<svg width="16" height="16" viewBox="0 0 16 16" fill="none" xmlns="http://www.w3.org/2000/svg">
<path fill-rule="evenodd" clip-rule="evenodd" d="M15.0139 0.809679L15.1472 0.835661L15.2611 0.910717L15.337 1.02234L15.3633 1.15513L15.3633 15.6545L15.337 15.7864L15.2611 15.899L15.1472 15.974L15.0139 16L0.349169 16L0.214863 15.974L0.101967 15.899L0.0260554 15.7864L-0.00022313 15.6545L-0.000222903 13.0584L0.0260556 12.9256L0.101967 12.8139L0.214863 12.7389L0.349169 12.7129L11.6883 12.7129L11.8226 12.686L11.9355 12.6109L12.0115 12.4993L12.0387 12.3665L12.0387 1.15513L12.065 1.02234L12.1409 0.910717L12.2538 0.835661L12.3881 0.809679L15.0139 0.809679Z" fill="#FF9E18"/>
</svg>
