<svg width="69" height="25" viewBox="0 0 69 25" fill="none" xmlns="http://www.w3.org/2000/svg">
<path fill-rule="evenodd" clip-rule="evenodd" d="M4.11222 18.6375L4.66526 18.3187L5.533 17.8214L6.91111 17.0345L8.29067 17.8214L9.15696 18.3187L9.70993 18.6375L10.2748 18.9608L11.6484 19.7535L12.0661 19.9904L12.4735 20.223L13.3001 20.6969V13.0825L11.6484 12.1333V17.8682L10.5306 17.2246L8.88335 16.2827L8.25533 15.9171L7.7377 15.6246V6.16878H6.08597V15.8498L4.9388 16.5094L3.29303 17.4587L2.14587 18.1124V12.145L0.500031 13.0884V20.7086L1.32072 20.2347L1.73258 20.0021L4.11222 18.6375ZM10.5292 15.9112V4.46045H8.88191V14.9693L10.5292 15.9112ZM4.94031 15.1887V7.87566H3.29447V16.1379L4.94031 15.1887Z" fill="#1C1C1C"/>
<path d="M20.2784 16.1874H21.7171L23.0432 11.6227H23.0977L24.4273 16.1874H25.8659L27.8637 9.20561H26.2512L25.0955 14.067H25.0341L23.7625 9.20561H22.3818L21.1068 14.0567H21.0489L19.8932 9.20561H18.2807L20.2784 16.1874Z" fill="#1C1C1C"/>
<path d="M28.6537 16.1874H33.3719V14.9704H30.1299V13.3033H33.1162V12.0863H30.1299V10.4227H33.3583V9.20561H28.6537V16.1874Z" fill="#1C1C1C"/>
<path d="M34.5318 16.1874H39.0012V14.9704H36.008V9.20561H34.5318V16.1874Z" fill="#1C1C1C"/>
<path d="M38.679 9.20561L41.2256 13.7192V16.1874H42.6915V13.7192L45.2381 9.20561H43.5847L41.9926 12.2124H41.9245L40.3324 9.20561H38.679Z" fill="#1C1C1C"/>
<path d="M46.2191 10.4227H48.3566V16.1874H49.8157V10.4227H51.9532V9.20561H46.2191V10.4227Z" fill="#1C1C1C"/>
<path d="M54.3736 9.20561H52.8975V16.1874H54.3736V9.20561Z" fill="#1C1C1C"/>
<path d="M61.7483 11.6499C61.554 10.0374 60.3336 9.11016 58.7176 9.11016C56.8733 9.11016 55.4654 10.4124 55.4654 12.6965C55.4654 14.9738 56.8495 16.2829 58.7176 16.2829C60.5074 16.2829 61.5881 15.0931 61.7483 13.8079L60.2551 13.8011C60.1154 14.5477 59.529 14.9772 58.7415 14.9772C57.6813 14.9772 56.962 14.1897 56.962 12.6965C56.962 11.2442 57.6711 10.4158 58.7517 10.4158C59.5597 10.4158 60.1426 10.8829 60.2551 11.6499H61.7483Z" fill="#1C1C1C"/>
<path d="M66.5944 11.2136H68.0091C67.9887 9.96925 66.9659 9.11016 65.4114 9.11016C63.8807 9.11016 62.7591 9.95561 62.7659 11.2238C62.7625 12.2533 63.4887 12.8431 64.6682 13.1261L65.4284 13.317C66.1887 13.5011 66.6114 13.7192 66.6148 14.1897C66.6114 14.7011 66.1273 15.0488 65.3773 15.0488C64.6103 15.0488 64.058 14.6942 64.0103 13.9954H62.5818C62.6193 15.5056 63.7 16.2863 65.3943 16.2863C67.0989 16.2863 68.1012 15.4715 68.1046 14.1931C68.1012 13.0306 67.225 12.4136 66.0114 12.1408L65.3841 11.9908C64.7773 11.8511 64.2694 11.6261 64.2796 11.1249C64.2796 10.6749 64.6784 10.3442 65.4012 10.3442C66.1069 10.3442 66.5398 10.6647 66.5944 11.2136Z" fill="#1C1C1C"/>
</svg>
