<svg width="51" height="25" viewBox="0 0 51 25" fill="none" xmlns="http://www.w3.org/2000/svg">
<path fill-rule="evenodd" clip-rule="evenodd" d="M9.65794 0.888433L9.59775 0.989269L11.7341 4.67838L13.8703 8.3675L13.9339 8.5293L13.9976 8.69111H9.54325H5.08874L3.6074 11.2454L2.12593 13.7998L1.99649 14.0223L1.86704 14.2448L1.18346 15.422L0.5 16.599L0.576244 16.7225L0.652615 16.846H2.13188H3.61128L3.9134 16.3606L4.21552 15.8752L5.49674 13.6406L6.77784 11.4062L11.2295 11.4401L15.681 11.4741L17.2092 14.1277L18.7373 16.7813H20.2693H21.8012L21.8362 14.0953L21.8712 11.4094H25.6383H29.4053L29.2767 11.5712L29.148 11.733L28.2699 12.898L27.3916 14.063L26.7646 14.858L26.1375 15.653V16.4311V17.2092L28.4351 17.2563L30.7328 17.3036L31.0564 17.4788L31.38 17.6542L31.7465 17.9944L32.1131 18.3346L32.2967 18.7711L32.4802 19.2075V19.5608V19.914L32.3332 20.354L32.1861 20.794L31.8478 21.1615L31.5094 21.5291L31.1211 21.744L30.7328 21.959L26.3694 21.9991L22.0059 22.0392L21.3535 23.1795L20.7009 24.3196V24.4662V24.6126H32.3188H43.9367L44.7777 24.3719L45.6187 24.1314L46.4159 23.7288L47.2131 23.3263L47.9929 22.6044L48.7727 21.8823L49.2279 21.1966L49.6832 20.5108L50.0308 19.6168L50.3787 18.7229L50.4392 17.1696L50.4999 15.6163L50.3572 14.8496L50.2144 14.0829L49.6833 12.9858L49.1522 11.8886L48.2224 10.9587L47.2925 10.0288L46.3261 9.5585L45.3598 9.08811L44.4129 8.88967L43.4659 8.69111H40.0442H36.6224V14.1924V19.6937H38.1619H39.7013L39.7799 19.489L39.8585 19.2842V15.3468V11.4094L41.3794 11.4108L42.9004 11.4123L43.5126 11.598L44.1249 11.7837L44.6963 12.1186L45.2676 12.4535L45.8726 13.1003L46.4778 13.7473L46.819 14.4875L47.1601 15.228L47.166 16.6542L47.172 18.0802L46.7277 18.9831L46.2835 19.8858L45.6619 20.4914L45.0402 21.0969L44.3166 21.4393L43.593 21.7815L42.8583 21.9019L42.1237 22.0221L38.4022 22.0229L34.6808 22.0237L34.6824 21.9913L34.6841 21.959L34.9413 21.1384L35.1985 20.3179V19.6409V18.9641L34.993 18.2611L34.7873 17.5579L34.3992 16.9467L34.0112 16.3353L33.5646 15.9433L33.1179 15.551L32.4431 15.206L31.7683 14.8607L31.0769 14.7195L30.3857 14.5784L31.0122 13.7833L31.6389 12.9881L32.642 11.6887L33.6452 10.3894V9.54025V8.69111H31.3697H29.0941L29.2016 8.27042L29.3089 7.84973V5.97281V4.09589L28.924 3.33632L28.5392 2.57688L27.8885 2.00708L27.2378 1.4374L26.5259 1.14861L25.8139 0.859826L17.7661 0.823712L9.71826 0.787598L9.65794 0.888433ZM24.7025 3.76659L25.1988 4.01978L25.5276 4.41057L25.8564 4.80123L26.0131 5.27628L26.1699 5.7512L26.0964 6.46327L26.023 7.17546L25.6458 7.64197L25.2687 8.10861L24.8294 8.3675L24.3901 8.62639L21.8012 8.69111L19.2124 8.75583L19.1476 10.2936L19.0829 11.8314L16.7642 7.76948L14.4455 3.70756L14.3942 3.61048L14.343 3.5134H19.2746H24.2063L24.7025 3.76659ZM10.8864 23.1976L10.2161 24.3714V24.492V24.6126H10.5969H10.9776L11.6972 23.3901L12.4166 22.1675V22.0957V22.0237H11.9866H11.5565L10.8864 23.1976ZM14.1317 23.2442L13.4522 24.459V24.5358V24.6126H14.22H14.9879L15.2359 24.2566L15.4839 23.9006L15.9566 23.0468L16.4293 22.193V22.1084V22.0237L15.6203 22.0265L14.8113 22.0294L14.1317 23.2442ZM17.2157 23.1717L16.5588 24.3196V24.4662V24.6126H18.0913H19.6239L19.7732 24.3213L19.9226 24.0301L20.1502 23.6417L20.3777 23.2534L20.6689 22.7851L20.9598 22.3168V22.1702V22.0237H19.4162H17.8726L17.2157 23.1717Z" fill="#323E48"/>
</svg>
