<svg width="123" height="33" viewBox="0 0 123 33" fill="none" xmlns="http://www.w3.org/2000/svg">
<g clip-path="url(#clip0_901_5827)">
<path d="M16.6394 19.4542C16.6394 20.8103 16.1559 21.8993 15.1921 22.7214C14.2702 23.4895 13.1171 23.8735 11.7328 23.8735H0.805627V21.3803H11.7328C12.4175 21.3803 13.012 21.2273 13.5165 20.9183C14.09 20.5402 14.3753 20.0302 14.3753 19.3882C14.3753 18.7461 14.081 18.2511 13.4955 17.9001C13.006 17.6061 12.4175 17.4591 11.7328 17.4591H4.97952C3.73636 17.4591 2.69439 17.1171 1.8536 16.433C0.958769 15.6979 0.511353 14.7199 0.511353 13.5048C0.511353 12.3047 0.958769 11.3326 1.8536 10.5916C2.69138 9.90751 3.73336 9.56549 4.97952 9.56549H15.7806V12.0587H4.97952C4.50507 12.0587 4.09969 12.1907 3.76338 12.4577C3.42707 12.7217 3.25892 13.0787 3.25892 13.5258C3.25892 13.9878 3.42707 14.3418 3.76338 14.5938C4.09969 14.8459 4.50507 14.9719 4.97952 14.9719H11.7328C13.1171 14.9719 14.2702 15.3709 15.1921 16.166C16.1559 17.003 16.6394 18.1011 16.6394 19.4542Z" fill="#D8DDE2"/>
<path d="M31.2875 12.0587H25.6483V23.8765H23.174V12.0587H17.5107V9.56549H31.2875V12.0587Z" fill="#D8DDE2"/>
<path d="M45.358 23.8765H32.9865V9.56549H45.358V12.0587H35.4818V21.3833H45.358V23.8765Z" fill="#D8DDE2"/>
<path d="M43.2532 17.864H36.5299V15.3708H44.7095L43.2532 17.864Z" fill="#D8DDE2"/>
<path d="M62.7347 23.8765L59.5247 23.8554L57.1134 19.8532H50.3181L51.8285 17.381H55.624L53.1287 13.2527L46.6697 23.8554H43.4597L51.24 10.9275C51.4351 10.5915 51.7084 10.2855 52.0567 10.0065C52.4771 9.68545 52.8525 9.52344 53.1888 9.52344C53.5521 9.52344 53.9304 9.67645 54.3209 9.98547C54.6571 10.2495 54.9304 10.5645 55.1376 10.9275L62.7347 23.8765Z" fill="#D8DDE2"/>
<path d="M75.6537 23.8765H63.303V9.56549H65.7984V21.3833H75.6537V23.8765Z" fill="#D8DDE2"/>
<path d="M85.5738 12.0587H79.9317V23.8765H77.4579V12.0587H71.7943V9.56549H85.571V12.0587H85.5738Z" fill="#D8DDE2"/>
<path d="M89.8295 23.8765H87.3342V9.56549H89.8295V23.8765ZM101.868 23.8765H99.3728V17.9271H90.9648V15.4339H99.3728V9.56549H101.868V23.8765Z" fill="#D8DDE2"/>
<path d="M122.511 16.5651C122.511 18.6743 121.833 20.4204 120.479 21.8035C119.121 23.1866 117.395 23.8767 115.299 23.8767H111.293C109.209 23.8767 107.486 23.1866 106.122 21.8035C104.759 20.4204 104.077 18.6743 104.077 16.5651C104.077 14.471 104.753 12.7789 106.102 11.4948C107.449 10.2107 109.179 9.56864 111.293 9.56864H115.299C117.425 9.56864 119.158 10.2107 120.5 11.4948C121.839 12.7789 122.511 14.468 122.511 16.5651ZM120.038 16.7721C120.038 15.3891 119.593 14.258 118.707 13.3789C117.818 12.4999 116.683 12.0588 115.299 12.0588H111.293C109.924 12.0588 108.795 12.4999 107.906 13.3789C107.017 14.258 106.576 15.3891 106.576 16.7721C106.576 18.1403 107.02 19.2534 107.906 20.1024C108.795 20.9545 109.924 21.3805 111.293 21.3805H115.299C116.683 21.3805 117.818 20.9545 118.707 20.1024C119.593 19.2534 120.038 18.1433 120.038 16.7721Z" fill="#D8DDE2"/>
</g>
<defs>
<clipPath id="clip0_901_5827">
<rect width="121.977" height="32" fill="white" transform="translate(0.511353 0.700195)"/>
</clipPath>
</defs>
</svg>
