<svg width="123" height="33" viewBox="0 0 123 33" fill="none" xmlns="http://www.w3.org/2000/svg">
<g clip-path="url(#clip0_901_5824)">
<path fill-rule="evenodd" clip-rule="evenodd" d="M38.8859 3.99488L38.4753 4.07904L37.7442 4.17588L37.013 4.27265L35.702 4.31135L34.391 4.35004L34.3237 4.61711L34.2563 4.88412L34.2167 4.98729L34.177 5.09046H34.9491H35.7211L35.8597 5.16329L35.9982 5.23606L36.0448 5.30579L36.0914 5.37545L36.092 5.75545L36.0925 6.13544L35.9706 6.64209L35.8487 7.14875L34.5504 11.5503L33.2521 15.9519L33.0867 16.6271L32.9213 17.3023L32.7879 18.0837L32.6543 18.8652L32.6864 19.7518L32.7185 20.6385L32.8565 21.113L32.9945 21.5876L33.1944 21.968L33.3944 22.3485L33.8083 22.7662L34.2223 23.184L34.6998 23.413L35.1772 23.6421L35.6194 23.7515L36.0617 23.8608L37.013 23.8597L37.9644 23.8585L38.5224 23.6888L39.0803 23.519L39.4738 23.3217L39.8672 23.1244L40.3109 22.8314L40.7545 22.5385L41.3257 21.9667L41.8968 21.3949L42.2655 20.8775L42.634 20.3601L42.9754 19.7075L43.3167 19.0549L43.5374 18.4845L43.758 17.9141L43.9171 17.2813L44.0763 16.6486L44.152 16.1221L44.2276 15.5957L44.194 14.6972L44.1605 13.7986L44.025 13.2603L43.8896 12.722L43.6371 12.2003L43.3845 11.6786L43.0098 11.2786L42.6351 10.8786L42.3293 10.7134L42.0237 10.5482L41.648 10.4399L41.2724 10.3316L40.6015 10.3622L39.9306 10.3927L39.5017 10.5573L39.0727 10.7219L38.6137 11.0158L38.1547 11.3096L37.5046 11.9716L36.8545 12.6337V12.587V12.5403L38.0957 8.27442L39.3369 4.00849L39.3166 3.9596L39.2964 3.91064L38.8859 3.99488ZM5.04708 5.22852L5.0167 5.31212L4.92054 5.58926L4.82432 5.86634V5.89009V5.91378H5.29139H5.7584L6.10008 5.97679L6.44169 6.03981L6.61611 6.23113L6.79053 6.42246V6.68066V6.93887L6.65987 7.5789L6.52928 8.219L5.03826 13.4154L3.5473 18.6119L3.26373 19.5477L2.98021 20.4836L2.78606 21.036L2.59198 21.5885L2.36542 22.0216L2.1388 22.4547L1.97852 22.5599L1.81818 22.6651L1.27576 22.6968L0.733344 22.7284L0.627422 23.0451L0.521501 23.3618L0.516427 23.4122L0.511353 23.4626L5.3793 23.4402L10.2473 23.4178L10.8748 23.2758L11.5023 23.1338L12.1059 22.9407L12.7095 22.7476L13.1857 22.531L13.6619 22.3143L14.1837 21.9676L14.7055 21.6209L15.1459 21.1501L15.5863 20.6792L15.8142 20.2461L16.042 19.8131L16.1751 19.3392L16.3081 18.8652L16.3103 18.1685L16.3125 17.4719L16.1506 16.9603L15.9886 16.4486L15.745 16.0736L15.5012 15.6986L15.0801 15.3066L14.6589 14.9146L14.2065 14.6508L13.7541 14.3869L13.1289 14.1514L12.5036 13.9158L13.0568 13.8423L13.6098 13.7687L14.1167 13.6366L14.6236 13.5043L15.0579 13.3226L15.4922 13.1408L15.9459 12.8739L16.3996 12.6071L16.8829 12.1207L17.3663 11.6344L17.6307 11.1014L17.8952 10.5686L17.9855 10.062L18.0759 9.55537V9.30204V9.04871L17.9859 8.54434L17.8959 8.0399L17.6608 7.56269L17.4256 7.08542L17.0274 6.69384L16.6292 6.30225L16.1655 6.04443L15.7019 5.7866L15.1148 5.59699L14.5276 5.40731L14.0048 5.30319L13.482 5.19901L9.27969 5.17197L5.07746 5.14499L5.04708 5.22852ZM12.9916 6.06812L13.3892 6.16622L13.7075 6.32721L14.0257 6.4882L14.2861 6.7231L14.5465 6.95806L14.6937 7.19093L14.8409 7.4238L14.9807 7.82457L15.1205 8.2254L15.1242 8.95372L15.1278 9.68203L15.044 10.0304L14.9603 10.3787L14.6746 10.9747L14.3888 11.5708L13.9021 12.0514L13.4153 12.532L13.054 12.7445L12.6928 12.9569L12.3059 13.1129L11.9189 13.269L11.4784 13.3607L11.0379 13.4524L9.43261 13.4355L7.82723 13.4186L8.83095 9.9987L9.83466 6.57876L9.93437 6.23734L10.034 5.89585L11.314 5.93297L12.594 5.97008L12.9916 6.06812ZM63.5886 10.3551L63.1446 10.4105L62.5785 10.5711L62.0124 10.7318L61.5637 10.9641L61.1149 11.1964L60.634 11.6742L60.1531 12.152L59.9844 12.5112L59.8157 12.8704L59.7201 13.237L59.6244 13.6036V14.1953V14.7869L59.7233 15.221L59.8222 15.6551L60.0411 16.0252L60.2601 16.3952L60.5519 16.6653L60.8437 16.9353L61.233 17.1514L61.6223 17.3674L62.2883 17.589L62.9543 17.8106L63.5894 18.0072L64.2245 18.2039L64.5527 18.3911L64.8808 18.5782L65.0567 18.8084L65.2326 19.0387L65.2577 19.4321L65.2828 19.8256L65.155 20.0737L65.0273 20.3218L64.8471 20.4926L64.6668 20.6634L64.3814 20.7885L64.096 20.9137L63.6837 20.9881L63.2714 21.0626L62.764 21.0197L62.2566 20.9769L61.8443 20.8898L61.4321 20.8027L60.9869 20.6502L60.5417 20.4976L60.2672 20.3578L59.9927 20.218L59.9522 20.2584L59.9118 20.2988L59.8354 21.3236L59.7591 22.3485L59.7551 22.6393L59.7513 22.9301L60.3697 23.0696L60.9881 23.209L61.5589 23.3012L62.1298 23.3935L62.9226 23.4339L63.7154 23.4742L64.3745 23.3976L65.0336 23.3208L65.5796 23.1637L66.1256 23.0067L66.571 22.7879L67.0165 22.5692L67.3956 22.2628L67.7747 21.9564L68.0457 21.5703L68.3167 21.1842L68.4843 20.7531L68.6519 20.3218L68.6787 19.4668L68.7055 18.6119L68.5511 18.1307L68.3968 17.6495L68.1535 17.2834L67.9101 16.9172L67.5569 16.6382L67.2038 16.3591L66.7197 16.1154L66.2356 15.8717L65.0389 15.4822L63.8423 15.0926L63.5894 14.9181L63.3366 14.7437L63.193 14.5309L63.0494 14.3182L63.0508 14.0584L63.0522 13.7986L63.1727 13.5336L63.2932 13.2687L63.5457 13.1018L63.7982 12.935L64.1057 12.8392L64.4131 12.7435L65.1263 12.7446L65.8395 12.7459L66.3631 12.8443L66.8867 12.9427L67.3824 13.0959L67.8781 13.2491L67.9004 13.1756L67.9227 13.102L68.0179 11.962L68.1131 10.822L68.0707 10.7813L68.0284 10.7406L67.1721 10.5751L66.3159 10.4097L65.6182 10.3468L64.9205 10.2838L64.4765 10.2917L64.0325 10.2997L63.5886 10.3551ZM75.2272 10.3236L75.0687 10.3463L74.6247 10.4176L74.1807 10.4888L73.6809 10.6698L73.1811 10.8508L72.7295 11.1323L72.2779 11.4139L71.8487 11.8469L71.4195 12.2799L71.2268 12.5643L71.0341 12.8486L70.8158 13.274L70.5976 13.6994L70.4388 14.1718L70.28 14.6442L70.1816 15.0764L70.0831 15.5086L70.0485 16.6169L70.0139 17.7252L70.1169 18.3522L70.2199 18.9792L70.4159 19.5694L70.6119 20.1596L70.8937 20.6403L71.1755 21.121L71.6315 21.6005L72.0876 22.0801L72.4365 22.3164L72.7853 22.5528L73.1659 22.744L73.5464 22.9352L74.0539 23.0937L74.5613 23.2523L75.037 23.3386L75.5127 23.4249L76.6543 23.4243L77.796 23.4238L78.4303 23.3053L79.0645 23.1869L79.5338 23.0344L80.0031 22.8819L80.4693 22.6668L80.9356 22.4517V21.1176V19.7835H80.9027H80.8699L80.2465 20.0959L79.6231 20.4082L78.9949 20.6252L78.3668 20.8422L77.9228 20.929L77.4789 21.0158L76.7178 21.0136L75.9566 21.0114L75.5794 20.8987L75.2022 20.786L74.85 20.6071L74.4978 20.4282L74.218 20.1872L73.9382 19.9461L73.6938 19.5686L73.4494 19.191L73.3295 18.8031L73.2095 18.4153L73.1879 18.1652L73.1663 17.9152L77.4949 17.8989L81.8235 17.8827V17.3106V16.7386L81.7564 16.1236L81.6891 15.5086L81.5705 14.934L81.4519 14.3594L81.3168 13.9523L81.1818 13.5453L80.9301 13.0386L80.6783 12.532L80.3607 12.1353L80.0431 11.7387L79.6807 11.4543L79.3182 11.1699L78.9059 10.9547L78.4937 10.7395L78.0497 10.6025L77.6057 10.4656L76.9397 10.3758L76.2738 10.2862L75.8298 10.2936L75.3858 10.3009L75.2272 10.3236ZM89.3078 10.3527L88.8956 10.4057L88.3881 10.5637L87.8807 10.7218L87.5039 10.9488L87.1269 11.1758L86.8062 11.4508L86.4854 11.726L86.2951 11.985L86.1048 12.244L86.0572 12.2455L86.0097 12.247V11.4237V10.6004H84.4557H82.9018V16.8702V23.1401H84.5509H86.1999V19.763V16.3859L86.3016 15.7889L86.4032 15.1919L86.5914 14.7016L86.7797 14.2112L87.0228 13.888L87.2661 13.5649L87.5845 13.3258L87.9031 13.0869L88.3162 12.9752L88.7293 12.8636L89.2271 12.8923L89.725 12.9212L90.0663 13.1065L90.4077 13.292L90.615 13.577L90.8224 13.862L90.9222 14.1786L91.022 14.4953L91.0842 14.8753L91.1464 15.2553L91.1468 19.1977L91.1472 23.1401H92.799H94.4508L94.4286 18.5327L94.4064 13.9253L94.2629 13.4186L94.1193 12.912L93.9058 12.4686L93.6924 12.0253L93.387 11.6494L93.0817 11.2736L92.691 11.0069L92.3003 10.7404L91.9429 10.6069L91.5855 10.4734L91.0409 10.3785L90.4963 10.2837L90.1082 10.2917L89.7201 10.2998L89.3078 10.3527ZM99.7414 10.3551L99.2974 10.4105L98.7313 10.5711L98.1653 10.7318L97.7165 10.9665L97.2678 11.2012L96.8161 11.6449L96.3645 12.0887L96.1651 12.4845L95.9657 12.8803L95.8652 13.3078L95.7647 13.7353L95.795 14.4003L95.8254 15.0653L95.9504 15.4518L96.0754 15.8384L96.3193 16.2054L96.5633 16.5725L96.979 16.879L97.3946 17.1856L97.8414 17.3726L98.2882 17.5597L99.1734 17.8245L100.059 18.0892L100.439 18.261L100.82 18.4328L101.034 18.6144L101.249 18.796L101.336 19.0027L101.422 19.2095V19.5302V19.8509L101.335 20.0547L101.247 20.2585L101.033 20.4611L100.82 20.6637L100.534 20.7886L100.249 20.9137L99.8365 20.9878L99.4243 21.062L98.8852 21.0178L98.346 20.9737L97.7553 20.8246L97.1647 20.6754L96.649 20.4528L96.1333 20.2302L96.1064 20.257L96.0795 20.2839L95.9937 21.4112L95.908 22.5385L95.906 22.7343L95.9041 22.9301L96.5225 23.0696L97.1409 23.209L97.7118 23.3019L98.2826 23.3949L99.1389 23.4344L99.9951 23.4739L100.566 23.3986L101.137 23.3232L101.517 23.2284L101.898 23.1336L102.333 22.9703L102.768 22.807L103.235 22.4954L103.701 22.1839L103.992 21.8545L104.283 21.5251L104.494 21.0818L104.705 20.6385L104.777 20.3383L104.849 20.0381L104.884 19.5783L104.92 19.1185L104.823 18.5848L104.727 18.0511L104.523 17.6348L104.319 17.2186L103.923 16.8294L103.528 16.4404L102.944 16.1486L102.36 15.8567L101.336 15.5321L100.312 15.2074L99.956 15.0288L99.5998 14.8503L99.4352 14.6551L99.2708 14.4599L99.2304 14.245L99.19 14.0302L99.2337 13.8194L99.2773 13.6086L99.4268 13.3773L99.5764 13.1461L99.9149 12.9807L100.254 12.8153L100.695 12.7614L101.137 12.7074L101.803 12.76L102.47 12.8127L103.073 12.9691L103.676 13.1256L103.852 13.1922L104.027 13.2589L104.053 13.1804L104.079 13.102L104.178 11.9657L104.277 10.8294L104.229 10.7828L104.181 10.7363L103.357 10.5774L102.532 10.4187L101.803 10.3514L101.073 10.2841L100.629 10.2919L100.185 10.2997L99.7414 10.3551ZM111.317 10.3236L111.158 10.3463L110.714 10.4176L110.27 10.4888L109.77 10.6698L109.27 10.8508L108.819 11.1323L108.367 11.4139L107.939 11.8463L107.511 12.2787L107.28 12.623L107.048 12.9673L106.808 13.478L106.569 13.9886L106.435 14.4636L106.302 14.9386L106.209 15.5403L106.116 16.1419L106.116 16.9132L106.116 17.6844L106.183 18.1798L106.251 18.6752L106.347 19.0552L106.443 19.4352L106.605 19.8468L106.767 20.2585L107.019 20.6931L107.271 21.1277L107.724 21.6039L108.177 22.0801L108.526 22.3164L108.875 22.5528L109.255 22.744L109.636 22.9352L110.143 23.0937L110.651 23.2523L111.126 23.3386L111.602 23.4249L112.744 23.4243L113.885 23.4238L114.52 23.3053L115.154 23.1869L115.623 23.0344L116.093 22.8819L116.559 22.6668L117.025 22.4517V21.1176V19.7835H117.001H116.976L116.192 20.1597L115.408 20.5359L115.01 20.6676L114.612 20.7992L114.172 20.8916L113.733 20.9838L113.143 21.0218L112.553 21.0598L112.024 20.964L111.494 20.8682L111.021 20.6439L110.548 20.4195L110.182 20.0541L109.816 19.6885L109.618 19.2751L109.421 18.8616L109.355 18.5784L109.29 18.2952L109.289 18.0894L109.287 17.8835H113.61H117.932L117.893 16.9494L117.854 16.0152L117.755 15.4136L117.656 14.8119L117.494 14.2419L117.333 13.672L117.053 13.0997L116.773 12.5274L116.42 12.0992L116.066 11.6711L115.673 11.3822L115.281 11.0933L114.932 10.9175L114.583 10.7416L114.139 10.6036L113.695 10.4656L113.029 10.3758L112.363 10.2862L111.919 10.2936L111.475 10.3009L111.317 10.3236ZM23.8613 10.4707L23.3948 10.5851L22.8148 10.874L22.2348 11.1629L21.7205 11.5756L21.2061 11.9883L20.8119 12.4502L20.4176 12.912L20.0655 13.4432L19.7135 13.9745L19.3749 14.6782L19.0363 15.3819L18.8162 16.0537L18.5961 16.7255L18.4933 17.257L18.3905 17.7885L18.3537 18.4535L18.3169 19.1185L18.3934 19.775L18.4699 20.4315L18.5916 20.9149L18.7134 21.3985L19.0061 21.9921L19.2987 22.5857L19.6889 22.9737L20.0791 23.3618L20.4394 23.5359L20.7996 23.71L21.2318 23.8118L21.6639 23.9136L22.2121 23.8797L22.7603 23.8459L23.2164 23.6875L23.6726 23.5291L24.03 23.3188L24.3875 23.1084L24.9374 22.5701L25.4872 22.0318L25.7989 21.5444L26.1107 21.057L26.1804 21.6077L26.25 22.1585L26.3793 22.5257L26.5086 22.893L26.7227 23.1906L26.9369 23.4883L27.2197 23.6629L27.5026 23.8375L27.865 23.9135L28.2275 23.9893L28.6275 23.9209L29.0277 23.8525L29.392 23.6804L29.7563 23.5083L30.139 23.1545L30.5217 22.8007L30.7949 22.4162L31.068 22.0318L31.3215 21.5251L31.575 21.0185L31.7411 20.4927L31.9072 19.967V19.9357V19.9044L31.4902 19.9231L31.0733 19.9418L30.9474 20.3218L30.8215 20.7018L30.5625 21.2291L30.3035 21.7564L29.9803 22.1094L29.6571 22.4625L29.4523 22.548L29.2474 22.6334H29.0603H28.8732L28.7705 22.5941L28.6678 22.5548L28.5762 22.3779L28.4846 22.201L28.4449 21.8631L28.4051 21.5251L28.5104 20.9551L28.6157 20.3852L28.828 19.5587L29.0403 18.7323L30.1599 14.8404L31.2796 10.9487L31.3122 10.8378L31.345 10.727H30.0087H28.6725V10.7629V10.7987L28.3848 12.077L28.097 13.3553L28.0789 13.4167L28.0607 13.4781L27.9508 13.0367L27.8409 12.5953L27.594 12.0833L27.3471 11.5713L27.0586 11.2508L26.7701 10.9304L26.4686 10.7393L26.1672 10.5482L25.8227 10.4476L25.4782 10.347L24.903 10.3517L24.3278 10.3563L23.8613 10.4707ZM51.2205 10.4198L51.0302 10.4722L50.3325 10.5751L49.6348 10.6781L47.7342 10.7184L45.8336 10.7587L45.7283 11.107L45.623 11.4553L46.3664 11.4947L47.1099 11.5341L47.3323 11.6073L47.5548 11.6807L47.6935 11.8281L47.8322 11.9755L47.8676 12.1935L47.903 12.4115L47.7363 13.1051L47.5695 13.7986L46.8758 16.0786L46.182 18.3585L46.0123 19.0552L45.8426 19.7518L45.8389 20.3218L45.8352 20.8918L45.9529 21.2589L46.0705 21.6259L46.2987 21.9502L46.527 22.2745L46.8358 22.4861L47.1445 22.6976L47.4998 22.8008L47.8551 22.9039L48.3961 22.8985L48.9371 22.8931L49.3811 22.756L49.8251 22.6189L50.2057 22.4275L50.5862 22.2361L50.9366 21.9988L51.2871 21.7614L51.7612 21.3189L52.2353 20.8764L52.6745 20.3305L53.1138 19.7846L53.1377 19.8085L53.1615 19.8323L52.7404 21.502L52.3192 23.1718L51.9846 24.1851L51.6499 25.1984L51.3635 25.8089L51.0771 26.4194L50.7756 26.8856L50.4741 27.3517L50.0476 27.7708L49.621 28.19L49.2156 28.3853L48.8103 28.5806L48.4095 28.6561L48.0087 28.7315L47.6765 28.6573L47.3443 28.5831L47.1116 28.3915L46.8789 28.2L46.8058 27.9564L46.7327 27.7128L46.8677 27.2691L47.0026 26.8254L47.0013 26.5819L46.9999 26.3384L46.8844 26.0845L46.7689 25.8306L46.5409 25.6308L46.313 25.431L45.9601 25.3521L45.6073 25.2733L45.2631 25.3501L44.919 25.427L44.669 25.6078L44.419 25.7887L44.2679 26.0952L44.1168 26.4017L44.1176 26.9113L44.1184 27.421L44.3237 27.8374L44.529 28.2539L44.8091 28.5117L45.0892 28.7694L45.4701 28.9615L45.851 29.1534L46.3158 29.2831L46.7807 29.4128L47.4466 29.4515L48.1126 29.4902L48.6749 29.415L49.2371 29.34L49.7531 29.1784L50.2691 29.0169L50.8088 28.7399L51.3485 28.463L51.874 28.0431L52.3995 27.6233L52.7867 27.1741L53.1739 26.7249L53.5508 26.1518L53.9276 25.5786L54.2 25.0081L54.4725 24.4375L54.6743 23.868L54.876 23.2984L56.6477 17.0469L58.4193 10.7952V10.7599V10.7245L57.0723 10.7416L55.7252 10.7587L55.0575 13.0703L54.3897 15.3819L54.1393 16.0469L53.8889 16.7119L53.4308 17.6302L52.9726 18.5485L52.5898 19.1185L52.2069 19.6885L51.8254 20.1265L51.4438 20.5645L51.0784 20.8741L50.7131 21.1838L50.2662 21.4052L49.8193 21.6266L49.4683 21.6628L49.1173 21.699L48.8228 21.5688L48.5282 21.4388L48.3999 21.2286L48.2716 21.0185L48.2714 20.794L48.2712 20.5695L48.4275 19.9688L48.5839 19.368L49.1207 17.7233L49.6575 16.0786L50.5539 13.2722L51.4504 10.4658L51.4306 10.4166L51.4108 10.3674L51.2205 10.4198ZM118.547 11.2282V11.3534L118.849 11.3727L119.15 11.392L119.167 12.3261L119.185 13.2603H119.31H119.435V12.3103V11.3603H119.757H120.079L120.057 11.2495L120.036 11.1387L119.292 11.1208L118.547 11.103V11.2282ZM120.45 12.1837V13.2603H120.575H120.7L120.718 12.3895L120.735 11.5187L121.054 12.373L121.372 13.2273L121.469 13.2459L121.566 13.2646L121.88 12.3916L122.194 11.5187L122.212 12.3937L122.23 13.2687L122.37 13.2486L122.511 13.2286V12.1837V11.1387L122.311 11.1193L122.111 11.0999L121.975 11.4676L121.84 11.8353L121.677 12.2679L121.513 12.7006L121.467 12.6479L121.42 12.5953L121.147 11.8512L120.875 11.107H120.662H120.45V12.1837ZM26.0675 11.7142L26.3267 11.8178L26.607 12.1291L26.8874 12.4405L27.0187 12.8346L27.1499 13.2286L27.2116 13.7036L27.2732 14.1786L27.2752 14.6944L27.2771 15.2102L27.2101 15.866L27.1431 16.5219L27.0142 17.1177L26.8854 17.7136L26.6642 18.3527L26.4431 18.9919L26.1684 19.5444L25.8936 20.097L25.5911 20.5577L25.2886 21.0185L24.7131 21.5892L24.1376 22.1599L23.7253 22.3808L23.313 22.6018H22.7105H22.1079L21.8135 22.4289L21.5191 22.2562L21.3278 21.9678L21.1365 21.6793L21.0514 21.3489L20.9663 21.0185L20.9734 20.0368L20.9806 19.0552L21.1158 18.2762L21.2511 17.4972L21.4107 16.8683L21.5704 16.2394L21.7648 15.6601L21.9592 15.0807L22.2029 14.5197L22.4465 13.9587L22.6852 13.562L22.9239 13.1653L23.1975 12.8063L23.471 12.4473L23.7409 12.2149L24.0107 11.9824L24.3117 11.8287L24.6127 11.6751L24.8508 11.6154L25.0889 11.5557L25.4486 11.5831L25.8083 11.6107L26.0675 11.7142ZM40.7049 11.7315L40.9455 11.8546L41.081 12.0033L41.2165 12.152L41.3445 12.4069L41.4726 12.6617L41.551 13.0601L41.6295 13.4584L41.5937 14.2302L41.5579 15.0019L41.4219 15.6986L41.2859 16.3952L41.1026 17.1236L40.9193 17.8519L40.7259 18.4369L40.5325 19.022L40.343 19.4983L40.1536 19.9745L39.8926 20.4965L39.6316 21.0185L39.2952 21.5265L38.9588 22.0344L38.6202 22.3539L38.2816 22.6733L37.9904 22.8435L37.6992 23.0136L37.3507 23.0835L37.0022 23.1534L36.6416 23.0787L36.281 23.0039L36.0128 22.8003L35.7445 22.5966L35.5407 22.2574L35.3368 21.9183L35.2235 21.4367L35.1103 20.9551L35.1177 19.9102L35.1252 18.8652L35.2304 18.2319L35.3357 17.5985L35.5255 16.8845L35.7153 16.1706L35.9036 15.6973L36.0919 15.224L36.3863 14.638L36.6808 14.0519L36.8729 13.767L37.065 13.482L37.4115 13.0537L37.7581 12.6255L38.1467 12.3178L38.5353 12.0101L38.868 11.8426L39.2007 11.6751L39.4388 11.6152L39.6769 11.5553L40.0707 11.5819L40.4645 11.6084L40.7049 11.7315ZM76.6199 12.7849L76.9026 12.8227L77.1728 12.942L77.443 13.0614L77.7688 13.3656L78.0945 13.6699L78.2737 14.0243L78.4529 14.3787L78.5526 14.7628L78.6522 15.1469V15.3752V15.6036H75.9028H73.1534L73.2081 15.2553L73.2628 14.9071L73.3978 14.5428L73.5328 14.1786L73.7513 13.8471L73.9698 13.5155L74.2125 13.3236L74.4552 13.1316L74.8072 12.9707L75.1592 12.8098L75.5579 12.7583L75.9566 12.7068L76.1469 12.7269L76.3372 12.7471L76.6199 12.7849ZM112.709 12.7849L112.992 12.8227L113.262 12.942L113.532 13.0614L113.858 13.3656L114.184 13.6699L114.361 14.0209L114.539 14.3718L114.616 14.6552L114.693 14.9386L114.738 15.2711L114.784 15.6036H112.035H109.287V15.4269V15.2502L109.381 14.8881L109.476 14.5261L109.67 14.1413L109.865 13.7566L110.15 13.472L110.435 13.1874L110.838 12.999L111.241 12.8106L111.644 12.7586L112.046 12.7068L112.236 12.7269L112.427 12.7471L112.709 12.7849ZM9.78107 14.2726L10.5834 14.3312L11.006 14.4291L11.4285 14.5269L11.7654 14.6861L12.1023 14.8452L12.3845 15.0933L12.6667 15.3413L12.8713 15.7245L13.0758 16.1077L13.1668 16.5365L13.2578 16.9652L13.2589 17.5138L13.26 18.0624L13.1702 18.5311L13.0804 18.9999L12.9159 19.404L12.7515 19.808L12.4971 20.198L12.2426 20.5879L11.7841 21.0289L11.3255 21.47L11.0401 21.6634L10.7547 21.8567L10.2972 22.0863L9.83986 22.316L9.28241 22.4865L8.72503 22.657L6.96495 22.6821L5.20488 22.7072V22.6359V22.5645L6.37934 18.443L7.5538 14.3214L7.58818 14.2658L7.62255 14.2103L8.30064 14.2121L8.97873 14.214L9.78107 14.2726Z" fill="#D8DDE2"/>
</g>
<defs>
<clipPath id="clip0_901_5824">
<rect width="121.977" height="32" fill="white" transform="translate(0.511353 0.700195)"/>
</clipPath>
</defs>
</svg>
