<svg width="123" height="33" viewBox="0 0 123 33" fill="none" xmlns="http://www.w3.org/2000/svg">
<path fill-rule="evenodd" clip-rule="evenodd" d="M88.3361 9.5619L88.2524 9.77908L88.2983 15.3884L88.3441 20.9977L88.9088 21.0517L89.4734 21.1059V18.013V14.9202L89.8644 14.3495L90.2553 13.7787L90.703 13.4493L91.1509 13.1198L91.8324 12.9654L92.5139 12.8109L93.1855 12.9887L93.857 13.1667L94.2571 13.5643L94.6571 13.9619L94.8442 14.6312L95.0313 15.3007L95.0322 18.1923L95.0332 21.084H95.5545H96.0757V17.6858V14.2875L95.7072 13.5312L95.3387 12.7747L94.6835 12.3439L94.0285 11.9132L93.079 11.8158L92.1296 11.7185L91.4738 11.9336L90.818 12.1485L90.1457 12.752L89.4734 13.3556V11.3501V9.34473H88.9468H88.4201L88.3361 9.5619ZM119.357 10.9848V11.9343H118.836H118.315V12.5385V13.1427H118.836H119.357V16.6127V20.0827L119.948 20.6697L120.539 21.2566H121.43H122.322L122.416 21.0111L122.511 20.7657L122.317 20.4054L122.123 20.0451L121.712 20.1476L121.301 20.2502L120.937 20.0568L120.573 19.8635V16.5031V13.1427H121.442H122.311V12.5385V11.9343H121.442H120.573V10.9848V10.0353H119.965H119.357V10.9848ZM3.96779 12.065L3.50911 12.3659L3.14825 12.7975L2.78738 13.229L2.78148 12.5734L2.77574 11.9179L1.68985 11.9691L0.603958 12.0206L0.557569 16.5523L0.511353 21.084H1.64346H2.77574V17.9898V14.8955L3.22556 14.3645L3.67539 13.8333H4.36271H5.05021L5.47658 14.2571L5.90312 14.6807V17.8825V21.084H7.03245H8.16177V18.0515V15.0191L8.36384 14.6419L8.56607 14.2649L8.84163 14.0546L9.11736 13.8443L9.71591 13.8388L10.3146 13.8333L10.8018 14.2971L11.2891 14.761V17.9225V21.084H12.4185H13.5478V17.7984V14.5128L13.2783 13.8709L13.009 13.229L12.4609 12.6662L11.9127 12.1035L11.2968 11.9336L10.681 11.7635L10.1094 11.7627L9.53782 11.7616L8.86873 12.1009L8.19965 12.4399L7.86172 12.9009L7.52379 13.362L7.13408 12.8182L6.74438 12.2744L6.24556 12.018L5.74657 11.7616L5.08652 11.7628L4.4263 11.7639L3.96779 12.065ZM18.3921 11.9895L17.7637 12.2231L17.1511 12.5993L16.5386 12.9754L16.0768 13.5771L15.615 14.1787L15.3632 14.7772L15.1115 15.3759L15.1153 16.5468L15.1191 17.7176L15.4399 18.4194L15.7608 19.1213L16.3126 19.7457L16.8644 20.3703L17.7595 20.8135L18.6546 21.2566H19.9763H21.298L22.1672 20.8263L23.0363 20.3959L23.5351 19.8786L24.0339 19.3613L23.9578 19.3162L23.8817 19.2713L23.234 18.6783L22.5864 18.0853L22.1912 18.4542L21.7959 18.8233L21.1522 19.0904L20.5086 19.3576L19.9384 19.3569L19.3682 19.3564L18.7601 18.9956L18.152 18.6348L17.8518 18.2624L17.5515 17.8902L17.5477 17.7642L17.5439 17.6383L21.1491 17.5916L24.7542 17.545L24.7414 16.3365L24.7283 15.128L24.3629 14.4258L23.9976 13.7235L23.3003 13.0975L22.6031 12.4717L22.0282 12.1751L21.4531 11.8787L20.2369 11.8172L19.0207 11.7558L18.3921 11.9895ZM29.0914 12.0363L28.39 12.2839L27.7447 12.8123L27.0994 13.3407L26.6713 14.0667L26.2432 14.7926L26.1296 15.7521L26.0161 16.7116L26.291 17.6508L26.5657 18.5901L27.199 19.325L27.8321 20.0601L28.5517 20.437L29.2715 20.8136L30.6033 20.8193L31.9348 20.825L32.7316 20.2676L33.5282 19.71V20.1248V20.5397L33.1041 21.0403L32.68 21.5411L31.9981 21.7442L31.3161 21.9472L30.6413 21.943L29.9665 21.9391L28.9699 21.5316L27.9732 21.1244L27.4524 21.9653L26.9317 22.8062L27.3227 23.0607L27.7136 23.3151L28.4452 23.5717L29.177 23.8282L30.1898 23.942L31.2025 24.0559L32.3219 23.7718L33.4414 23.4874L34.0833 23.0665L34.7252 22.6455L35.2127 21.8215L35.7 20.9977L35.7541 16.5523L35.8083 12.1069H34.8419H33.8757L33.7454 12.1002L33.6151 12.0933L33.5282 12.6338L33.4414 13.1741L33.007 12.7046L32.5727 12.235L32.0135 11.9983L31.4544 11.7616L30.6236 11.7753L29.7928 11.7889L29.0914 12.0363ZM40.5567 11.9906L40.0273 12.1932L39.3815 12.5972L38.7357 13.0012L38.2361 13.7226L37.7365 14.4442L37.5445 15.1313L37.3525 15.8186L37.3516 16.6079L37.3506 17.3972L37.6206 18.1846L37.8907 18.9721L38.4898 19.6675L39.0889 20.3629L39.9913 20.8098L40.8937 21.2566L42.0323 21.2559L43.171 21.2554L43.7791 20.8986L44.3872 20.5417L44.7772 20.0793L45.1673 19.6166L45.1681 20.3586L45.169 21.1004L46.2549 21.0491L47.3408 20.9977V16.5091V12.0206H46.2983H45.2559L45.2015 12.5817L45.1469 13.1427H45.026H44.9051L44.7013 12.8185L44.4975 12.4943L43.736 12.128L42.9745 11.7616L42.0302 11.7748L41.0861 11.7879L40.5567 11.9906ZM51.6844 11.9626L51.3369 12.1532L50.8591 12.5939L50.3813 13.0347V12.4845V11.9343H49.8601H49.3388V16.5091V21.084H49.8601H50.3813V17.7431V14.4023L50.7786 13.8157L51.1758 13.229L51.8211 13.0177L52.4662 12.8064L53.1113 13.0177L53.7566 13.229L54.1538 13.8157L54.5511 14.4023V17.754V21.1059L55.1158 21.0517L55.6805 20.9977L55.7673 17.5153L55.8542 14.0327L56.2707 13.5928L56.6871 13.1527L57.2424 12.9706L57.7977 12.7886L58.4598 13.0088L59.1221 13.229L59.4861 13.7159L59.8503 14.2029L59.9068 17.6434L59.9632 21.084H60.4808H60.9984L60.9456 17.3292L60.8927 13.5743L60.4872 13.0093L60.0817 12.4444L59.4083 12.1029L58.7349 11.7616H58.0442H57.3536L56.9272 11.9227L56.5009 12.0838L55.8994 12.6086L55.2979 13.1334L54.8811 12.6842L54.4643 12.235L53.9051 11.9983L53.3461 11.7616L52.6889 11.7668L52.0319 11.7722L51.6844 11.9626ZM65.8006 11.9975L65.1487 12.2391L64.546 12.6959L63.9433 13.1527L63.4893 13.7442L63.0352 14.3356L62.7893 15.1477L62.5433 15.9598V16.5052V17.0507L62.8077 17.9355L63.0722 18.8202L63.9162 19.738L64.7604 20.6557L65.6066 20.9569L66.4525 21.2584L67.5044 21.2575L68.556 21.2566L69.4511 20.8135L70.3463 20.3703L70.8751 19.7716L71.4042 19.1729V18.926V18.6792L71.0756 18.5045L70.7469 18.3298L69.9891 19.0828L69.2312 19.8358L68.5369 20.0273L67.8425 20.2189H67.4081H66.9737L66.3175 20.0378L65.6611 19.8567L65.049 19.3226L64.4368 18.7885L64.2071 18.3394L63.9772 17.8902L63.8577 17.5049L63.7381 17.1196L67.962 17.0733L72.186 17.027L72.2413 16.5502L72.2964 16.0736L72.0304 15.1645L71.7645 14.2555L71.1354 13.5253L70.5063 12.795L69.7206 12.3375L68.9351 11.8801L67.6937 11.8179L66.4525 11.7558L65.8006 11.9975ZM76.1435 12.1021L75.5839 12.4411L75.3634 12.7919L75.143 13.1427H74.9908H74.8386L74.9338 12.7809L75.029 12.4189L74.9355 12.1767L74.8419 11.9343H74.3392H73.8366V16.52V21.1059L74.4013 21.0517L74.9659 20.9977L75.0002 18.0629L75.0342 15.128L75.0436 14.7469L75.0528 14.3657L75.7208 13.6679L76.3889 12.9701H77.1916H77.9943L78.1875 12.6114L78.3807 12.2526L78.2858 12.0071L78.1911 11.7616L77.4471 11.7623L76.7033 11.7628L76.1435 12.1021ZM81.7219 12.0304L81.0071 12.2927L80.2816 12.9097L79.5562 13.5267L79.0963 14.4137L78.6362 15.3007L78.6385 16.5091L78.6409 17.7176L78.9149 18.346L79.1889 18.9742L79.8573 19.7108L80.5257 20.4477L81.3944 20.8504L82.2631 21.2532L83.3924 21.2418L84.5218 21.2304L85.0449 21.0277L85.5681 20.825L86.1308 20.4856L86.6936 20.1464V19.9513V19.7564L86.3664 19.4622L86.0392 19.1681L85.3933 19.6035L84.7475 20.039L84.1557 20.1493L83.5639 20.2597L82.7826 20.1433L82.0015 20.0268L81.2789 19.4764L80.5563 18.926L80.2206 18.2799L79.8849 17.6339L79.7968 16.9818L79.7089 16.3299L79.9094 15.5897L80.1101 14.8496L80.7392 14.1577L81.3683 13.4657L81.8863 13.1995L82.4042 12.9335L83.3761 12.9326L84.348 12.9319L84.9561 13.2126L85.5642 13.4932L85.865 13.7034L86.1657 13.9137L86.4701 13.6113L86.7745 13.3088L86.5879 13.01L86.4013 12.7111L85.652 12.2951L84.9024 11.879L83.6697 11.8234L82.4369 11.768L81.7219 12.0304ZM101.113 11.9229L100.678 12.0546L100.149 12.3265L99.6193 12.5982L98.8987 13.3751L98.1781 14.152L97.8882 15.1431L97.5982 16.134L97.7087 17.068L97.8192 18.0021L98.1648 18.6752L98.5105 19.3485L99.1202 19.9543L99.7298 20.56L100.292 20.8499L100.854 21.1396L102.084 21.219L103.315 21.2984L104.103 20.9516L104.892 20.6049L105.609 19.9612L106.327 19.3174V20.2008V21.084H106.848H107.369V16.5091V11.9343H106.848H106.327V12.7975V13.6606H106.264H106.201L105.528 13.0298L104.855 12.399L104.158 12.0841L103.46 11.7692L102.504 11.7803L101.549 11.7913L101.113 11.9229ZM112.464 11.8818L112.085 11.955L111.308 12.6352L110.53 13.3154H110.432H110.334L110.434 13.0561L110.534 12.7968L110.425 12.3655L110.316 11.9343H109.798H109.28V16.52V21.1059L109.845 21.0517L110.409 20.9977L110.496 17.8039L110.583 14.6101L110.856 14.2281L111.128 13.846L111.557 13.511L111.985 13.176L112.718 12.9801L113.45 12.7842L114.113 12.9615L114.776 13.1389L115.134 13.5293L115.491 13.9196L115.687 14.2966L115.882 14.6738V17.8899V21.1059L116.447 21.0517L117.012 20.9977L117.064 17.8902L117.117 14.7828L116.929 14.1432L116.742 13.5035L116.276 12.9533L115.81 12.403L115.108 12.0862L114.406 11.7692L113.624 11.7889L112.842 11.8086L112.464 11.8818ZM69.2248 13.376L69.9119 13.747L70.3838 14.4375L70.8557 15.128L70.9679 15.5165L71.0802 15.9049H67.5935H64.107L63.9767 15.8971L63.8464 15.8892L63.8997 15.5087L63.9529 15.128L64.4234 14.4458L64.8937 13.7635L65.4716 13.4281L66.0494 13.0927L66.5985 12.959L67.1475 12.8254L67.8425 12.915L68.5374 13.0048L69.2248 13.376ZM104.169 13.2463L104.705 13.4685L105.323 14.1487L105.941 14.8289L106.121 15.6691L106.3 16.5091L106.17 17.1997L106.04 17.8902L105.845 18.2503L105.65 18.6105L104.958 19.2316L104.266 19.8526L103.602 20.0357L102.939 20.2189H102.504H102.07L101.401 20.0342L100.731 19.8496L100 19.1232L99.2692 18.3967L99.0323 17.5555L98.7953 16.7142L98.9883 15.7991L99.1815 14.8839L99.5806 14.3476L99.9799 13.8112L100.576 13.4452L101.172 13.079L101.795 12.9585L102.417 12.8382L103.025 12.9312L103.633 13.0243L104.169 13.2463ZM20.9022 13.8961L21.4693 14.1316L21.9391 14.6863L22.4087 15.2408V15.4003V15.5596H19.9763H17.5439V15.4003V15.2408L18.013 14.6868L18.4823 14.1328L19.012 13.9035L19.5419 13.6741L19.9384 13.6674L20.3349 13.6606L20.9022 13.8961ZM32.2702 14.1777L32.8364 14.5207L33.1816 15.0833L33.527 15.646L33.5275 16.302L33.5282 16.9578L33.2841 17.4241L33.04 17.8902L32.5949 18.3035L32.1496 18.7166L31.2996 18.7978L30.4497 18.8789L29.7968 18.5711L29.1437 18.2631L28.8174 17.7314L28.4909 17.1997L28.4904 16.3569L28.4897 15.5141L28.8382 14.9537L29.1867 14.3933L29.7504 14.1173L30.314 13.8412L31.009 13.8379L31.7039 13.8345L32.2702 14.1777ZM43.5933 14.086L44.0852 14.3387L44.5296 14.8637L44.9742 15.3887L45.0856 16.1266L45.197 16.8644L44.9021 17.5964L44.6075 18.3282L44.1705 18.6697L43.7337 19.0111L43.0613 19.191L42.3891 19.3709L41.7315 19.195L41.0739 19.0191L40.5092 18.4402L39.9447 17.8614L39.7696 17.2311L39.5945 16.6008L39.7917 15.8645L39.989 15.128L40.2769 14.8012L40.5648 14.4744L41.0861 14.1545L41.6073 13.8345L42.3544 13.834L43.1013 13.8333L43.5933 14.086Z" fill="#D8DDE2"/>
</svg>
