<svg width="123" height="33" viewBox="0 0 123 33" fill="none" xmlns="http://www.w3.org/2000/svg">
<g clip-path="url(#clip0_901_5818)">
<path fill-rule="evenodd" clip-rule="evenodd" d="M19.3179 7.57082L18.4043 7.89516L17.8079 8.28388L17.2112 8.67285L16.5892 9.48407L15.9672 10.2953L15.5486 11.3721L15.1298 12.4486L15.1163 16.5788L15.1029 20.709L15.5322 21.9315L15.9616 23.1538L16.716 24.0644L17.4701 24.9747L18.4846 25.5048L19.4988 26.0352H21.5747H23.6506L24.6506 25.5121L25.6505 24.9893L26.4109 24.1278L27.1712 23.2663L27.4057 22.352L27.6401 21.4378L27.8015 20.6482L27.9632 19.8586H26.112H24.2611L24.2596 20.2838L24.2584 20.709L24.0042 21.6195L23.7499 22.5304L23.0407 22.895L22.3315 23.26H21.5747H20.8179L20.1316 22.9069L19.4456 22.5539L19.1059 21.7529L18.7662 20.9519V16.5788V12.2056L19.2339 11.4367L19.7018 10.6677L20.2833 10.4041L20.865 10.1405H21.5703H22.2756L22.9137 10.382L23.5521 10.6233L23.9065 11.4675L24.2611 12.3115V12.9267V13.5419H26.1037H27.9466L27.7854 12.6308L27.6242 11.7197L27.1512 10.6264L26.6784 9.53315L25.9037 8.73699L25.1293 7.94059L23.9182 7.58297L22.7071 7.2251L21.4692 7.23579L20.2315 7.24648L19.3179 7.57082ZM33.4799 7.57179L32.5635 7.8971L31.7283 8.53097L30.8928 9.16459L30.2415 10.4894L29.5899 11.814L29.345 13.7105L29.1 15.607L29.26 18.2498L29.42 20.8924L29.9306 22.2585L30.4415 23.6244L31.3266 24.5099L32.2116 25.3955L33.5314 25.7854L34.8511 26.1754L35.7228 26.1696L36.5941 26.1635L37.6931 25.914L38.7921 25.6645L39.7052 25.0384L40.6186 24.4123L41.2243 23.1679L41.8299 21.9237L41.9906 20.8912L42.1516 19.8586H40.403H38.6546L38.5681 20.1623L38.4814 20.466L38.2001 21.4971L37.9185 22.5282L37.2074 22.8941L36.4962 23.26H35.648H34.7999L34.0677 22.647L33.3353 22.0338L33.072 20.8127L32.8087 19.5919V16.7002V13.8086L33.072 12.5878L33.3353 11.3667L34.0677 10.7535L34.7999 10.1405H35.8666H36.9331L37.5815 10.6952L38.2297 11.2498L38.3593 12.3959L38.4893 13.5419H40.3106H42.132L41.964 12.5093L41.7962 11.4768L41.3715 10.5023L40.9471 9.5278L40.1617 8.74622L39.376 7.96489L38.1239 7.59511L36.8718 7.2251L35.6339 7.23579L34.3962 7.24648L33.4799 7.57179ZM75.2412 7.57179L74.3249 7.8971L73.4896 8.53097L72.6542 9.16459L72.0029 10.4894L71.3513 11.814L71.1053 13.7105L70.8592 15.607L71.0096 18.2216L71.16 20.8363L71.6815 22.2303L72.2029 23.6244L73.0879 24.5099L73.973 25.3955L75.2927 25.7854L76.6125 26.1754L77.4841 26.1696L78.3555 26.1635L79.4544 25.914L80.5534 25.6645L81.4666 25.0384L82.3799 24.4123L82.9856 23.1679L83.5913 21.9237L83.7519 20.8912L83.9129 19.8586H82.1643H80.4159L80.3295 20.1623L80.2428 20.466L79.9614 21.4971L79.6799 22.5282L78.9687 22.8941L78.2575 23.26H77.4094H76.5612L75.829 22.647L75.0966 22.0338L74.8333 20.8127L74.5701 19.5919V16.7002V13.8086L74.8333 12.5878L75.0966 11.3667L75.829 10.7535L76.5612 10.1405H77.6279H78.6944L79.3428 10.6952L79.991 11.2498L80.1207 12.3959L80.2506 13.5419H82.072H83.8934L83.7253 12.5093L83.5576 11.4768L83.1311 10.505L82.705 9.53315L81.8817 8.73748L81.0587 7.94156L79.8459 7.58345L78.6331 7.2251L77.3952 7.23579L76.1575 7.24648L75.2412 7.57179ZM6.35721 7.63957L6.23925 7.83248L3.49546 16.5788L0.75142 25.3251L0.631508 25.6394L0.511353 25.9541L2.42969 25.8824L4.34802 25.811L4.84647 23.9888L5.34492 22.1667H7.99591H10.6469L11.1654 23.9888L11.6839 25.811L13.5765 25.8819L15.4692 25.9528L15.4678 25.8819L15.4661 25.811L12.5865 16.7002L9.70691 7.58953L8.09116 7.5181L6.47516 7.44691L6.35721 7.63957ZM43.7986 16.7002V25.9324H49.0493H54.3V24.4747V23.017H50.8809H47.4618V20.466V17.915H50.3925H53.3231V16.4573V14.9996H50.3925H47.4618V12.6915V10.3835H50.8809H54.3V8.92576V7.46805H49.0493H43.7986V16.7002ZM56.0095 16.7051V25.9424L61.077 25.8766L66.1445 25.811L66.2178 24.414L66.2911 23.017H63.008H59.725L59.5768 22.6327L59.4285 22.2483V14.8582V7.46805H57.719H56.0095V16.7051ZM85.3157 16.7002V25.9324H90.4443H95.5728V24.4747V23.017H92.2759H88.979V15.2425V7.46805H87.1473H85.3157V16.7002ZM96.3055 14.7644V22.0607L96.6836 22.9606L97.0614 23.8608L97.5994 24.4344L98.1371 25.008L99.114 25.5197L100.091 26.0316L102.167 26.0427L104.243 26.0539L105.463 25.4465L106.684 24.8391L107.231 24.0175L107.779 23.1956L108.024 22.3168L108.27 21.4378L108.271 14.4529L108.272 7.46805H106.585H104.897L104.814 14.5856L104.731 21.7029L104.306 22.3486L103.88 22.9944L103.043 23.1506L102.205 23.3068L101.445 23.1409L100.685 22.9747L100.266 22.3392L99.8467 21.7034L99.7719 14.5858L99.6975 7.46805H98.0014H96.3055V14.7644ZM110.591 7.74793L110.464 8.07762L110.528 16.9442L110.592 25.811H114.622H118.651L119.81 25.2434L120.968 24.6759L121.47 23.9755L121.971 23.2748L122.241 21.9917L122.511 20.709L122.329 19.4942L122.147 18.2794L121.086 17.2651L120.024 16.2508L120.641 15.8492L121.257 15.4476L121.719 14.434L122.182 13.4204L122.177 12.4486L122.171 11.4768L121.839 10.5497L121.506 9.62255L121.056 9.12669L120.605 8.63106L119.628 8.11892L118.651 7.60702L114.685 7.51251L110.718 7.41824L110.591 7.74793ZM118.074 11.0922L118.529 11.6522V12.8509V14.0499L117.93 14.6461L117.331 15.2425H115.732H114.133V12.9751V10.7073L114.317 10.5224L114.5 10.3373L116.059 10.4347L117.618 10.5322L118.074 11.0922ZM8.99086 15.8081L9.8063 18.8516L9.66636 18.9906L9.52667 19.1298H7.85768H6.18894V18.9961V18.8625L6.93576 16.02L7.68258 13.1774L7.79614 12.839L7.90995 12.5006L8.0428 12.6327L8.17566 12.7647L8.99086 15.8081ZM118.196 18.4889L118.774 19.157V20.4337V21.7106L118.278 22.2393L117.783 22.7682L117.224 22.9077L116.665 23.0474L115.461 22.9713L114.256 22.8955L114.185 20.6057L114.114 18.3159L114.249 17.9658L114.384 17.6159L116.001 17.7182L117.618 17.8207L118.196 18.4889Z" fill="#D8DDE2"/>
</g>
<defs>
<clipPath id="clip0_901_5818">
<rect width="121.977" height="32" fill="white" transform="translate(0.511353 0.700195)"/>
</clipPath>
</defs>
</svg>
