<svg width="123" height="33" viewBox="0 0 123 33" fill="none" xmlns="http://www.w3.org/2000/svg">
<g clip-path="url(#clip0_901_5821)">
<path fill-rule="evenodd" clip-rule="evenodd" d="M102.22 7.63518L102.074 7.78159V8.06022V8.33863H102.61H103.147L103.077 7.97542L103.007 7.61242L102.687 7.55059L102.366 7.48877L102.22 7.63518ZM100.822 9.06965V9.5918H101.344H101.865V9.06965V8.54749H101.344H100.822V9.06965ZM98.4687 9.30336L98.3198 9.45249V10.0563V10.6601L99.2061 10.5958L100.092 10.5317V9.9051V9.27851L99.355 9.21627L98.6178 9.15424L98.4687 9.30336ZM100.695 10.5164L100.581 10.8147L100.649 11.2997L100.718 11.7849L101.604 11.849L102.491 11.9133V11.0657V10.2184H101.65H100.809L100.695 10.5164ZM97.5709 11.5503L97.4605 11.8379L97.5252 12.8557L97.5899 13.8735L98.789 13.9361L99.9882 13.9988V12.6307V11.2627H98.8347H97.681L97.5709 11.5503ZM95.8172 14.3956V15.6488H97.0685H98.3198V15.1266V14.6045H97.5899H96.8599V13.8735V13.1425H96.3386H95.8172V14.3956ZM4.85082 15.7944L4.40766 16.7975L2.45961 21.1736L0.511353 25.5495L0.692164 25.7306L0.872766 25.9115L1.68235 25.845L2.49193 25.7786L3.09151 24.5777L3.69088 23.3767L6.324 23.3836L8.95692 23.3905L9.51896 24.6368L10.0808 25.883H11.0184H11.9563L12.043 25.7264L12.1298 25.5698L9.77652 20.2438L7.42305 14.9178L6.35841 14.8545L5.29378 14.791L4.85082 15.7944ZM26.4193 20.2772L26.475 25.7786H27.4134H28.3519L28.4128 24.1599L28.4737 22.5413H29.9049H31.3362L31.9056 23.5333L32.4749 24.5254L32.9787 25.2042L33.4826 25.883H34.3756H35.2688L35.396 25.7556L35.5232 25.628L34.3958 23.9415L33.2682 22.2547L34.0797 21.5592L34.8911 20.8637L35.138 20.1139L35.3852 19.364L35.2995 18.1758L35.2135 16.9874L34.8067 16.4366L34.3998 15.8859L33.5656 15.4019L32.7314 14.9178L29.5475 14.8468L26.3636 14.7758L26.4193 20.2772ZM49.7683 15.701L49.8323 16.5887L51.5489 16.6493L53.2653 16.7098L53.3216 21.2442L53.3777 25.7786H54.3161H55.2546L55.3107 21.2446L55.367 16.7105L56.9791 16.6497L58.5914 16.5887L58.6554 15.701L58.7196 14.8134H54.2119H49.7041L49.7683 15.701ZM73.0855 20.2241V25.6742H74.0239H74.9624V24.1077V22.5413H76.3077H77.6531L78.7121 22.3138L79.7711 22.0864L80.4191 21.5404L81.067 20.9942L81.3515 20.3125L81.6359 19.6306V18.5242V17.4177L81.2503 16.6898L80.8645 15.9621L79.9469 15.4399L79.0291 14.9178L76.0573 14.8459L73.0855 14.7741V20.2241ZM114.089 17.0586L115.5 19.095L115.902 19.6496L116.304 20.2041L116.132 20.485L115.96 20.7659L114.23 23.191L112.501 25.6161V25.7496V25.883H113.499H114.496L115.904 23.8989L117.312 21.9147L117.462 21.9191L117.61 21.9234L119.034 23.9032L120.457 25.883H121.484H122.511V25.7634V25.6437L120.717 23.1135L118.923 20.5834L118.824 20.3238L118.724 20.0641L120.409 17.6693L122.094 15.2747V15.1484V15.0222H121.082H120.071L118.84 16.7898L117.61 18.5574L117.485 18.5651L117.359 18.5729L116.129 16.8053L114.899 15.0377L113.789 15.0299L112.679 15.0222L114.089 17.0586ZM78.1949 16.6873L79.0291 16.88L79.4983 17.4248L79.9675 17.9697V18.7051V19.4405L79.358 20.051L78.7484 20.6615H76.8554H74.9624V18.5729V16.4843L76.1615 16.4893L77.3607 16.4943L78.1949 16.6873ZM32.7719 17.1971L33.357 17.7013V18.6535V19.6055L32.8824 20.0813L32.4077 20.5571L30.4319 20.6295L28.4562 20.7018V18.6976V16.6931H30.3214H32.1867L32.7719 17.1971ZM7.26476 19.3929L8.01846 21.1527V21.3248V21.4969H6.22348H4.42851L4.53591 21.2359L4.64332 20.9748L5.42662 19.1397L6.20993 17.3047L6.3605 17.4688L6.51128 17.633L7.26476 19.3929ZM96.2343 21.4969V25.6742H97.0685H97.9027V21.4969V17.3197H97.0685H96.2343V21.4969Z" fill="#D8DDE2"/>
</g>
<defs>
<clipPath id="clip0_901_5821">
<rect width="121.977" height="32" fill="white" transform="translate(0.511353 0.700195)"/>
</clipPath>
</defs>
</svg>
