<svg width="123" height="49" viewBox="0 0 123 49" fill="none" xmlns="http://www.w3.org/2000/svg">
<path d="M39.7442 32.5688L40.6429 31.6201C40.763 31.4927 40.8065 31.3109 40.7551 31.1437C40.1335 29.0857 39.8009 26.9016 39.8062 24.6405C39.8405 12.3505 49.721 2.45969 61.944 2.48092C68.6413 2.49286 74.6499 5.51559 78.6987 10.2726C78.8174 10.4132 79.0378 10.3987 79.1381 10.2447C79.3361 9.93819 79.4588 9.64497 79.7069 9.16993C79.798 8.99744 79.7716 8.78514 79.6423 8.63913C79.3572 8.3207 79.0893 8.03676 78.7845 7.73024C74.2751 3.19613 68.2811 0.700195 61.9057 0.700195C55.5804 0.700195 49.4993 3.23329 45.0269 7.73024C40.5189 12.263 38.0365 18.2898 38.0365 24.7002C38.0365 27.3859 38.472 30.0039 39.31 32.4733C39.3734 32.6591 39.6109 32.7108 39.7455 32.5688H39.7442Z" fill="#D8DDE2"/>
<path d="M82.8522 13.1705C82.7691 13.0179 82.6833 12.8653 82.5962 12.714C82.4959 12.5389 82.2399 12.5535 82.1581 12.7379L81.5655 14.0609C81.4903 14.2294 81.4943 14.4231 81.5774 14.5863C83.132 17.6303 84.0083 21.0789 84.0043 24.7306C83.9885 36.9621 74.075 46.918 61.9115 46.9194C56.411 46.9194 51.3738 44.8892 47.5018 41.5347C47.4332 41.475 47.2603 41.3211 47.1125 41.1884C46.9805 41.0703 46.7773 41.0836 46.6612 41.2189L45.9076 42.1C45.7823 42.2459 45.802 42.4662 45.9499 42.5883C46.2428 42.8285 46.6955 43.2 46.8961 43.3632C51.1322 46.8212 56.3754 48.7001 61.9062 48.7001C68.2816 48.7001 74.2756 46.2041 78.7836 41.6701C83.2917 37.1373 85.7753 31.1105 85.7753 24.7001C85.7753 20.6039 84.7605 16.6643 82.8522 13.1705Z" fill="#D8DDE2"/>
<path d="M75.7966 19.4973C75.7491 19.4907 75.7016 19.484 75.6528 19.4814C75.4733 19.4681 75.2806 19.4668 75.0893 19.4734C75.0088 19.4761 74.9269 19.484 74.8491 19.4947C74.4017 19.5557 73.9345 19.6976 73.4621 19.9179C72.9883 20.1382 72.5053 20.4752 72.025 20.9197C71.7029 21.2223 71.3849 21.5912 71.0787 22.0158C70.8781 22.2944 70.6841 22.6116 70.4981 22.9606C70.18 23.3189 69.8105 23.6559 69.4925 23.9438L69.4146 24.0155C69.1982 24.2119 68.7746 24.4945 68.3351 24.7639C68.3734 24.7094 68.4116 24.655 68.4486 24.6007C68.7547 24.1468 68.9976 23.6585 69.1704 23.1477C69.2879 22.7921 69.3618 22.4378 69.3909 22.0968C69.4027 22.0397 69.408 21.9813 69.408 21.9229V21.7743C69.408 21.5129 69.3816 21.2648 69.3275 21.0392C69.2734 20.8123 69.1969 20.6039 69.1005 20.4195C68.9712 20.178 68.8023 19.975 68.599 19.8184C68.3984 19.6631 68.1609 19.5517 67.8956 19.4867C67.8046 19.4575 67.7082 19.4376 67.6093 19.4283C67.5169 19.4204 67.414 19.415 67.3045 19.415C66.7647 19.415 66.2078 19.5464 65.6496 19.8038C65.1006 20.0586 64.5714 20.4142 64.0778 20.8627C63.6924 21.2183 63.3401 21.6284 63.03 22.0821C62.8267 22.3807 62.6525 22.6925 62.51 23.015C62.2038 23.3533 61.8555 23.6691 61.5533 23.9425L61.4754 24.0142C61.2576 24.2105 60.8353 24.4932 60.3959 24.7625C60.4341 24.7081 60.4724 24.6537 60.5094 24.5993C60.8155 24.1455 61.0583 23.6572 61.2312 23.1463C61.3487 22.7907 61.4226 22.4364 61.4516 22.0954C61.4635 22.0384 61.4688 21.98 61.4688 21.9216V21.773C61.4688 21.5116 61.4424 21.2634 61.3883 21.0378C61.3342 20.8109 61.2576 20.6026 61.1613 20.4182C61.032 20.1767 60.8631 19.9737 60.6598 19.8171C60.4592 19.6618 60.2217 19.5504 59.9564 19.4853C59.8653 19.4562 59.769 19.4363 59.67 19.427C59.5777 19.419 59.4748 19.4137 59.3652 19.4137C58.8254 19.4137 58.2685 19.545 57.7103 19.8025C57.1613 20.0573 56.6322 20.4129 56.1385 20.8614C55.7532 21.217 55.4009 21.627 55.0907 22.0808C54.778 22.5386 54.5351 23.0296 54.3676 23.5404C54.3082 23.7235 54.258 23.904 54.2184 24.0765C54.1775 24.249 54.1511 24.4228 54.1406 24.5913C54.1287 24.6484 54.1234 24.7094 54.1234 24.7705V24.9111C54.1234 25.1725 54.1498 25.4207 54.2039 25.6489C54.258 25.8785 54.3345 26.0881 54.4322 26.2739C54.5602 26.5087 54.7291 26.7091 54.9311 26.8684C55.133 27.0276 55.3705 27.1417 55.6371 27.2067C55.7348 27.2372 55.835 27.2558 55.9367 27.2611C56.0264 27.2664 56.124 27.2691 56.227 27.2691C56.5371 27.2691 56.8552 27.2239 57.1732 27.1351C57.4741 27.0515 57.7789 26.9334 58.0811 26.7834C58.4968 26.7264 58.9389 26.6083 59.3968 26.4291C59.8297 26.2606 61.2563 25.6847 61.7763 25.422C61.8871 25.3663 61.9874 25.3145 62.0811 25.2641C62.0943 25.3968 62.1141 25.5255 62.1431 25.6476C62.1973 25.8771 62.2738 26.0868 62.3714 26.2725C62.4994 26.5074 62.6684 26.7078 62.8703 26.867C63.0722 27.0262 63.3097 27.1403 63.5763 27.2054C63.674 27.2359 63.7743 27.2545 63.8759 27.2598C63.9656 27.2651 64.0633 27.2677 64.1662 27.2677C64.4764 27.2677 64.7944 27.2226 65.1124 27.1337C65.4133 27.0501 65.7182 26.932 66.0204 26.7821C66.4361 26.7251 66.8782 26.607 67.3361 26.4278L67.4734 26.3747C67.9695 26.1823 69.0108 25.7776 69.6139 25.4737C69.5994 25.5998 69.5902 25.7219 69.5902 25.836C69.5902 25.9328 69.5954 26.0311 69.6073 26.1266C69.6192 26.2208 69.6324 26.307 69.6495 26.3854L69.6521 26.3973C69.7023 26.5791 69.7801 26.7357 69.8857 26.8644C69.9939 26.9971 70.1299 27.0952 70.2869 27.1563C70.3648 27.1921 70.4466 27.22 70.5297 27.2412C70.6195 27.2638 70.7198 27.2757 70.8253 27.2757C71.0853 27.2757 71.3902 27.2107 71.7293 27.082C72.1596 26.9228 72.632 26.6507 73.1375 26.2699C73.5109 25.9886 73.9055 25.6303 74.3146 25.2044C74.3146 25.2455 74.3146 25.2866 74.3146 25.3265C74.3146 25.5839 74.3331 25.8201 74.3687 26.0284C74.407 26.2487 74.4716 26.4424 74.5601 26.6029C74.6722 26.8113 74.828 26.9745 75.0206 27.0886C75.2133 27.2027 75.4574 27.2611 75.7464 27.2611H75.7702C76.2136 27.2611 76.6848 27.1178 77.1704 26.8338C77.6362 26.5618 78.1087 26.1956 78.5706 25.7471C78.981 25.3556 79.398 24.9005 79.8111 24.3963C79.9629 24.2105 80.112 24.0208 80.2545 23.8337C80.4261 23.6081 80.4366 23.3082 80.2822 23.0707C80.1278 22.8345 79.852 22.7257 79.5789 22.7934C79.4231 22.8318 79.2872 22.9274 79.1961 23.0614C78.9098 23.4821 78.6009 23.8974 78.2763 24.2941C77.9187 24.732 77.5676 25.1181 77.2338 25.4392C77.0767 25.5866 76.9434 25.706 76.8352 25.7949C76.7745 25.8453 76.7376 25.8692 76.7191 25.8811C76.6451 25.8758 76.5831 25.8559 76.529 25.8174C76.4565 25.7657 76.3958 25.6953 76.343 25.6024C76.2875 25.5043 76.2466 25.3795 76.2202 25.2296C76.1912 25.0677 76.1766 24.882 76.1766 24.6763C76.1766 24.4215 76.1991 24.1243 76.2453 23.7952C76.2757 23.567 76.3179 23.3228 76.372 23.0694C76.4235 22.8239 76.4842 22.5678 76.5528 22.3064C77.0134 21.5394 77.4964 20.7791 77.8909 19.9949C79.7741 16.2517 82.3185 10.7529 83.6778 6.83581C83.8427 6.35813 83.8784 5.94547 83.5577 5.79155C83.1235 5.58455 82.2472 6.06222 81.6085 7.16622C79.6131 10.6162 77.2126 15.8987 76.3641 18.0563C76.116 18.6892 75.9075 19.2173 75.7966 19.4973ZM59.6054 22.5492C59.6054 22.5811 59.6014 22.6169 59.5935 22.6554L59.5895 22.6792C59.5645 22.9499 59.5051 23.2419 59.4127 23.5404C59.2847 23.9279 59.1105 24.2875 58.8954 24.6099C58.6803 24.9337 58.4401 25.219 58.1867 25.4538C58.0323 25.5905 57.8673 25.7007 57.6971 25.7802C57.5375 25.8546 57.3764 25.8931 57.2168 25.8931C57.1336 25.8931 57.0399 25.8811 56.9409 25.8599C56.7786 25.8201 56.6427 25.7524 56.5213 25.6529C56.3972 25.5507 56.2917 25.422 56.2099 25.2734C56.066 24.9987 55.9934 24.6656 55.9934 24.2848V24.1442C55.9934 24.1004 55.996 24.0579 56 24.0142C56.0238 23.7342 56.0871 23.4422 56.1847 23.1477C56.3128 22.7642 56.4869 22.4046 56.6995 22.0795C56.9119 21.753 57.1508 21.4678 57.4028 21.2329C57.5572 21.0962 57.7248 20.9874 57.899 20.9078C58.0653 20.8322 58.225 20.7937 58.3741 20.7937C58.4559 20.7937 58.5509 20.8057 58.6499 20.8269C58.8109 20.8667 58.9482 20.9344 59.0696 21.0339C59.1937 21.1361 59.2992 21.2661 59.3837 21.4174C59.5315 21.6867 59.6067 22.0171 59.6067 22.4019V22.5505L59.6054 22.5492ZM67.5446 22.5492C67.5446 22.5811 67.5407 22.6169 67.5327 22.6554L67.5288 22.6792C67.5037 22.9499 67.4443 23.2419 67.3519 23.5404C67.2239 23.9279 67.0497 24.2875 66.8346 24.6099C66.6195 24.9337 66.3793 25.219 66.1273 25.4538C65.9729 25.5905 65.8079 25.7007 65.6376 25.7802C65.478 25.8546 65.317 25.8931 65.1573 25.8931C65.0741 25.8931 64.9805 25.8811 64.8815 25.8599C64.7192 25.8201 64.5832 25.7524 64.4619 25.6529C64.3378 25.5507 64.2322 25.422 64.1504 25.2734C64.0065 24.9987 63.934 24.6656 63.934 24.2848V24.1442C63.934 24.1004 63.9366 24.0579 63.9406 24.0142C63.9656 23.7342 64.0276 23.4422 64.1253 23.1477C64.2533 22.7642 64.4275 22.4046 64.64 22.0795C64.8538 21.753 65.0913 21.4678 65.3434 21.2329C65.4978 21.0962 65.6654 20.9874 65.8396 20.9078C66.0059 20.8322 66.1655 20.7937 66.3147 20.7937C66.3965 20.7937 66.4915 20.8057 66.5905 20.8269C66.7515 20.8667 66.8888 20.9344 67.0101 21.0339C67.1342 21.1361 67.2398 21.2661 67.3242 21.4174C67.472 21.6867 67.5473 22.0171 67.5473 22.4019V22.5505L67.5446 22.5492ZM75.1526 21.2462C75.0734 21.485 74.9995 21.7226 74.9322 21.9521C74.8676 22.1737 74.8042 22.3927 74.7448 22.6089C74.7224 22.6461 74.7013 22.6846 74.6802 22.7244C74.6617 22.7589 74.6405 22.7921 74.6115 22.8318C74.2776 23.3228 73.9649 23.7567 73.6824 24.1203C73.4013 24.4826 73.1414 24.7917 72.9078 25.0385C72.6769 25.284 72.471 25.4777 72.2954 25.6171C72.1305 25.7471 71.9906 25.8334 71.8824 25.8705C71.8336 25.8864 71.7782 25.8877 71.7201 25.8692C71.6172 25.8134 71.5459 25.7073 71.5037 25.5507C71.4773 25.4379 71.4627 25.3079 71.4627 25.1633C71.4627 24.9217 71.505 24.6391 71.5881 24.3246C71.6726 24.0035 71.8045 23.6493 71.9801 23.2724C72.2136 22.7828 72.4446 22.3688 72.669 22.0423C72.8893 21.7212 73.1123 21.4585 73.3341 21.2608C73.474 21.1334 73.6085 21.0378 73.7326 20.9768C73.8553 20.9158 73.9728 20.8773 74.0757 20.86C74.1021 20.8561 74.1285 20.8548 74.1549 20.8548H74.2803C74.4399 20.8548 74.5944 20.872 74.7396 20.9038C74.8821 20.9357 75.0114 20.9795 75.1236 21.0339C75.1553 21.0511 75.1843 21.0671 75.2133 21.0829L75.1552 21.2449L75.1526 21.2462Z" fill="#D8DDE2"/>
<path d="M54.0908 20.9809L53.654 20.7181C53.4811 20.6147 53.2779 20.5855 53.084 20.6386C52.8899 20.6903 52.7289 20.8164 52.63 20.9929C52.4637 21.2901 52.2987 21.6059 52.1377 21.9098C51.1862 23.7184 50.1067 25.7684 48.1338 26.1081C47.1295 26.2647 46.0896 26.0258 45.4205 25.4831C44.7422 24.9298 44.3172 24.0195 44.2236 22.9169C44.0929 21.6191 44.3238 20.1516 44.9296 18.4306C45.472 16.9298 46.306 15.5644 47.3407 14.4816C48.2882 13.505 49.3611 12.8217 50.4432 12.5059C51.5412 12.1768 53.0641 12.1914 53.7438 13.3166C54.1792 14.0278 54.2479 14.9806 53.9338 15.928C53.6422 16.7838 53.1724 17.4579 52.6115 17.8294C52.048 18.2063 51.1902 18.3655 50.6438 17.9396C50.3113 17.6742 50.141 17.0957 50.2585 16.622C50.3416 16.2876 50.1925 15.936 49.8982 15.7648L49.6277 15.6082C49.4231 15.4901 49.1816 15.4729 48.9625 15.5604C48.7408 15.6493 48.5746 15.8338 48.5073 16.0647C48.2697 16.8741 48.3661 17.7419 48.7804 18.5075C49.2608 19.3979 50.1978 19.9618 51.2799 20.0162C53.6092 20.1954 55.2456 18.1426 55.7813 16.1628C56.3119 14.2614 55.7035 11.7509 53.5366 10.8472C52.0123 10.1785 50.079 10.4014 48.2301 11.4589C45.1804 13.1866 42.962 16.8104 42.442 20.9146C42.2678 22.2017 42.2533 24.0673 43.1757 25.649C43.891 26.8645 45.1196 27.6924 46.5449 27.918C47.5452 28.0773 48.3225 27.8623 49.146 27.6354C49.332 27.5837 49.9351 27.3249 50.1318 27.2758C48.2763 34.6774 45.1539 38.2693 44.1418 39.3813C43.4212 40.1734 42.0989 41.0373 41.0721 40.6963C38.962 39.9957 39.7525 37.3392 40.671 35.8583C41.2886 34.8618 42.7178 33.3637 44.4163 32.1722C44.8491 31.8683 44.9612 31.2831 44.6736 30.8372C44.5284 30.6143 44.3054 30.463 44.0454 30.4127C43.7828 30.3609 43.5175 30.4179 43.2984 30.5732C41.1342 32.0938 39.6165 33.7737 38.6373 35.4855C35.1006 41.6716 39.1599 43.8185 41.5868 43.4881C42.7864 43.3249 44.0296 42.9932 45.6765 40.9855C46.6161 39.8417 49.4482 36.689 54.3798 21.9389C54.5026 21.5714 54.4247 21.1773 54.0935 20.9782L54.0908 20.9809Z" fill="#D8DDE2"/>
<path d="M74.8424 35.1843C74.5758 35.0437 74.2524 35.1339 74.102 35.394C74.007 35.5598 73.6349 35.9951 73.6691 36.1967C73.7682 36.7726 75.4692 36.9398 75.906 36.9398C76.7058 36.9398 77.5728 36.6612 78.1943 36.1556C78.8159 35.6501 79.0205 34.9216 78.7843 34.148C78.7024 33.88 78.5797 33.6119 78.4214 33.3532C78.2669 33.101 78.0835 32.8516 77.879 32.6114C77.6784 32.3779 77.4751 32.147 77.2732 31.9254C77.0713 31.7038 76.8773 31.4888 76.6899 31.2778L76.6147 31.1942C76.5263 31.0961 76.4299 30.8745 76.645 30.6622C76.7783 30.5321 77.1017 30.4551 77.5622 30.8665C77.6124 30.9103 77.652 30.9607 77.6942 31.0005C77.7457 31.0496 77.904 31.1982 78.1099 31.1359C78.292 31.0801 78.5098 30.7298 78.5295 30.5613C78.5784 30.1314 78.3659 29.7492 78.0386 29.4812C77.6045 29.1282 76.9103 28.9942 76.2703 29.1415C75.8281 29.2424 75.4956 29.4613 75.1366 29.7147C74.7698 29.9748 74.3659 30.4578 74.2934 30.9528C74.2934 30.9528 74.2828 31.0231 74.2828 31.0244L74.2986 31.0562C73.2271 33.1475 71.7279 34.4174 71.5801 34.5832C71.6593 34.1719 71.8071 33.6703 72.0222 33.0877C72.2874 32.3712 72.6781 31.5114 73.1848 30.5335C73.3577 30.2004 73.2508 29.7837 72.9368 29.5834C72.7849 29.4865 72.62 29.4082 72.4458 29.3498C72.2782 29.2941 72.1 29.2503 71.9166 29.2224C71.6263 29.1773 71.3241 29.1667 71.0694 29.1972C70.9836 29.2079 70.8965 29.2185 70.7962 29.2304C70.3673 29.3021 69.9212 29.4533 69.4686 29.6776C69.0159 29.9018 68.5554 30.2309 68.0961 30.6529C67.7768 30.9461 67.4614 31.311 67.1578 31.7383C66.915 32.0793 66.6801 32.4787 66.4557 32.9286C66.4069 32.9644 66.2063 33.0864 65.4779 33.3532C65.3446 33.4022 65.1955 33.3399 65.1493 33.2231C65.1387 33.1806 65.1308 33.1435 65.1242 33.1077C65.2337 32.8967 65.338 32.687 65.4356 32.4827C65.5439 32.2558 65.6454 32.0262 65.7352 31.802C65.8263 31.5751 65.9054 31.3575 65.9688 31.1531C66.0321 30.9514 66.0863 30.7603 66.1285 30.5892C66.1628 30.4591 66.1865 30.3318 66.201 30.211C66.2156 30.0902 66.2222 29.9828 66.2222 29.8832V29.789C66.2222 29.736 66.2143 29.6842 66.1971 29.6364C66.1271 29.3392 65.9068 29.1694 65.5887 29.1694C64.8576 29.1694 64.3033 29.5476 63.947 30.288C63.885 30.4074 63.823 30.556 63.7649 30.7272C63.7095 30.889 63.6475 31.0788 63.5789 31.2991C63.4508 31.7171 63.3558 32.0992 63.2977 32.4349C63.2384 32.7746 63.208 33.0877 63.208 33.3625V33.5442C63.208 33.5814 63.2106 33.6172 63.2133 33.6517C63.076 33.8998 62.9322 34.1413 62.7857 34.3682C62.6274 34.6124 62.4677 34.83 62.3106 35.0131C62.1589 35.1909 62.0084 35.3329 61.8646 35.4377C61.759 35.5147 61.6627 35.5572 61.5782 35.5664C61.4884 35.5373 61.4198 35.4934 61.3697 35.4337C61.2971 35.3475 61.2219 35.2241 61.144 35.0636C61.0926 34.9216 61.049 34.7544 61.0134 34.5699C60.9777 34.3829 60.9593 34.1692 60.9593 33.9317C60.9593 33.6769 60.9843 33.3916 61.0345 33.0812C61.0847 32.7693 61.1651 32.4256 61.2747 32.0581C61.3842 31.6905 61.5294 31.2911 61.7049 30.8718C61.8052 30.6329 61.9226 30.3809 62.0507 30.1248C62.1457 29.9363 62.1206 29.7187 61.986 29.5555C61.8514 29.3936 61.6442 29.3312 61.4436 29.391L60.8589 29.5661C60.7296 29.6046 60.6175 29.6948 60.5528 29.8143C60.4789 29.9483 60.409 30.0836 60.343 30.2163C60.2612 30.3809 60.1833 30.5387 60.112 30.69C59.7596 31.2181 57.7181 33.5947 57.3644 33.9755C57.0108 34.3563 56.6624 34.6801 56.3324 34.9375C56.2282 35.0158 56.1187 35.0954 56.0065 35.1724C55.8983 35.248 55.7848 35.3143 55.6699 35.3727C55.5565 35.4298 55.4416 35.4776 55.3282 35.5121C55.2252 35.5439 55.1223 35.5611 55.0207 35.5611C54.8663 35.5611 54.7238 35.5121 54.5878 35.4112C54.4096 35.2759 54.2896 35.1113 54.2197 34.9096C54.151 34.7079 54.1127 34.4956 54.1075 34.2754C54.2711 34.27 54.4374 34.2501 54.6023 34.217C54.7937 34.1785 54.9969 34.1228 55.2068 34.0511C55.4839 33.9529 55.7729 33.8229 56.0659 33.6663C56.3588 33.5097 56.6466 33.3306 56.9224 33.1342C57.1995 32.9365 57.4621 32.7176 57.7023 32.484C57.9464 32.2465 58.1562 31.9944 58.3278 31.7343C58.4598 31.5326 58.5587 31.3256 58.6221 31.1186C58.6868 30.9103 58.7184 30.7086 58.7184 30.5175C58.7184 30.142 58.597 29.8222 58.3568 29.5648C58.114 29.3034 57.7524 29.172 57.2853 29.172H57.1757C56.6466 29.1893 56.0883 29.3724 55.5142 29.7174C54.9534 30.0557 54.3648 30.5892 53.7657 31.3044C53.4964 31.6229 53.2642 31.9453 53.0741 32.2611C52.8841 32.5756 52.7231 32.8887 52.5964 33.1899C52.4684 33.4938 52.3734 33.7937 52.3127 34.0803C52.252 34.3682 52.2216 34.6456 52.2216 34.9017C52.2216 35.1976 52.2612 35.4736 52.3377 35.7204C52.417 35.9738 52.5317 36.1954 52.6809 36.3812C52.834 36.5709 53.024 36.7209 53.2457 36.8244C53.4661 36.9279 53.7168 36.981 53.9913 36.981C54.4427 36.981 54.9705 36.8589 55.5578 36.6161C56.1371 36.3772 56.7587 36.0003 57.404 35.4961C57.8501 35.1485 58.3094 34.7252 58.7686 34.2369C58.8755 34.1241 58.9942 34.0113 59.1196 33.8985C59.0906 34.1426 59.0748 34.3722 59.0748 34.5859C59.0748 34.8817 59.0959 35.1485 59.1368 35.3767C59.179 35.6076 59.2371 35.8159 59.311 35.999C59.472 36.3944 59.7003 36.6704 59.9867 36.8177C60.1608 36.9199 60.3469 36.973 60.537 36.973C60.8708 36.973 61.2047 36.9119 61.5267 36.7925C61.8408 36.6758 62.1496 36.5165 62.4465 36.3175C62.7408 36.1198 63.0259 35.8836 63.2938 35.6142C63.5155 35.3913 63.7306 35.1524 63.9352 34.9017C64.2598 35.0291 64.6465 35.0078 65.1018 34.8446L65.1678 34.8207C65.3446 34.7584 65.565 34.6801 65.7973 34.5859C65.693 34.968 65.6415 35.3104 65.6415 35.6195C65.6415 35.723 65.6481 35.8212 65.6587 35.9115C65.6706 36.0017 65.689 36.0893 65.7128 36.1742C65.8223 36.5497 66.0335 36.8045 66.3489 36.9345C66.5006 36.9916 66.6643 37.0207 66.8385 37.0207C67.1288 37.0207 67.4719 36.9411 67.8612 36.7819C68.1898 36.6439 68.5488 36.4369 68.9302 36.1649C69.1532 36.0057 69.3841 35.8186 69.623 35.6036C69.6151 35.7071 69.6111 35.8133 69.6111 35.9194C69.6111 36.0468 69.6243 36.1715 69.652 36.2909C69.6824 36.4223 69.7338 36.5417 69.8051 36.6452C69.8816 36.7541 69.9806 36.8429 70.1021 36.9067C70.2248 36.9716 70.3739 37.0048 70.5481 37.0048C71.0205 37.0048 71.0773 36.981 71.4046 36.6439C71.6144 36.4276 71.745 36.2591 71.8955 36.0641C72.0169 35.9075 72.1541 35.7296 72.3613 35.4908C72.3613 35.4908 73.8724 33.7804 74.0162 33.5906H74.0241L74.977 32.3898C75.035 32.4601 75.0957 32.5331 75.1631 32.6114C75.3174 32.7918 75.4784 32.9856 75.6408 33.186C75.8057 33.389 75.972 33.6 76.133 33.8123C76.2901 34.0193 76.4286 34.2262 76.5461 34.428C76.6609 34.6243 76.9169 34.9985 76.8812 35.305C76.8338 35.7111 76.2676 35.9367 74.8371 35.1817L74.8424 35.1843ZM54.5905 32.5026C54.663 32.3593 54.7488 32.2067 54.8478 32.0461C54.9468 31.8869 55.0563 31.721 55.1764 31.5552C55.2925 31.3933 55.4166 31.242 55.5459 31.1053C55.6713 30.9713 55.8032 30.8532 55.9378 30.7551C56.0606 30.6648 56.186 30.6011 56.31 30.5666L56.3219 30.5626C56.3905 30.5401 56.4301 30.5348 56.4525 30.5348C56.5739 30.5348 56.6571 30.5759 56.7205 30.6701C56.8009 30.7896 56.8405 30.9315 56.8405 31.1067C56.8405 31.3017 56.7864 31.5167 56.6782 31.7436C56.5713 31.9692 56.4011 32.1722 56.1741 32.346C55.9709 32.496 55.761 32.626 55.5512 32.7321C55.183 32.9192 54.8267 32.9392 54.4888 32.7096C54.5192 32.6459 54.5535 32.5769 54.5918 32.5026H54.5905ZM71.2343 31.0801C71.1301 31.2911 71.0298 31.4955 70.9348 31.6932C70.783 32.009 70.6457 32.3168 70.5283 32.6074C70.5244 32.6127 70.5204 32.618 70.5151 32.6234C70.4966 32.6459 70.4808 32.6711 70.465 32.7016C70.4029 32.7945 70.3093 32.9312 70.1852 33.1077C70.0572 33.2908 69.9081 33.4925 69.7404 33.7101C69.5728 33.929 69.3907 34.1573 69.1994 34.3908C69.012 34.6204 68.8233 34.8287 68.6385 35.0118C68.4564 35.1923 68.2822 35.3422 68.1212 35.4576C67.9483 35.5811 67.8467 35.5996 67.8005 35.5996C67.7398 35.5996 67.7174 35.5811 67.7094 35.5744C67.6738 35.5452 67.6448 35.5081 67.6197 35.4603C67.5907 35.4032 67.5709 35.3369 67.559 35.2626C67.5458 35.1776 67.5379 35.094 67.5379 35.0118C67.5379 34.8446 67.559 34.6628 67.5999 34.4691C67.6421 34.2674 67.6936 34.0723 67.7517 33.8879C67.8098 33.7021 67.8704 33.5283 67.9338 33.3731C67.9971 33.2151 68.0499 33.0918 68.0895 33.0068C68.3192 32.5198 68.5474 32.1072 68.7705 31.7807C68.9896 31.4583 69.2099 31.1942 69.4237 30.9992C69.5597 30.8771 69.6864 30.7842 69.8011 30.7258C69.9081 30.6714 70.0097 30.6316 70.1034 30.6091L70.2696 30.5919C70.3106 30.5878 70.3515 30.5852 70.3911 30.5852C70.6009 30.5852 70.8068 30.617 71.0021 30.6807C71.0377 30.6927 71.072 30.7046 71.105 30.7179C71.1697 30.7431 71.2185 30.7935 71.2449 30.8599C71.2726 30.9315 71.2686 31.0111 71.2343 31.0801Z" fill="#D8DDE2"/>
</svg>
