<svg width="123" height="33" viewBox="0 0 123 33" fill="none" xmlns="http://www.w3.org/2000/svg">
<path fill-rule="evenodd" clip-rule="evenodd" d="M8.84078 19.4701C8.6028 20.1365 8.27914 20.7314 7.9888 21.0741C7.61279 21.5168 7.13682 21.6548 5.83743 21.6548C4.98545 21.6548 4.38573 21.6548 4.06207 21.4311C3.75269 21.2264 3.65274 20.8504 3.65274 20.0508V16.8237H5.27579C6.76081 16.8237 6.8798 16.9285 7.1035 18.1374H7.59851V14.877H7.1035C6.89884 16.0194 6.81316 16.1574 5.26151 16.1574H3.6575V12.2735C3.6575 11.7785 3.69082 11.7261 4.21914 11.7261H5.51377C6.74177 11.7261 7.20346 11.8451 7.44144 12.2211C7.66514 12.5781 7.83173 12.9541 7.9888 13.6728L8.48381 13.6062C8.43145 12.7352 8.34578 11.5738 8.34578 11.1502H0.735058V11.6262C2.06777 11.7309 2.20104 11.7975 2.20104 13.3159V20.1079C2.20104 21.5073 2.06301 21.6453 0.511353 21.7643V22.2403H8.73607C8.88838 21.7119 9.23108 20.1079 9.33103 19.5463L8.83603 19.4796M22.3154 11.155H18.2887V11.6309C19.4834 11.6833 19.8737 11.9022 19.9594 12.6876C20.026 13.1636 20.0784 13.9346 20.0784 15.5196V19.7176H20.026L12.8913 11.1502H10.3829V11.6262C11.1825 11.6928 11.5443 11.8308 11.9013 12.2592C12.2106 12.6495 12.244 12.7352 12.244 13.9822V17.7376C12.244 19.2893 12.1916 20.127 12.144 20.6553C12.0583 21.493 11.6157 21.7119 10.6447 21.7643V22.2403H14.6904V21.7643C13.5291 21.6977 13.1388 21.493 13.0531 20.622C13.0007 20.127 12.9531 19.3083 12.9531 17.7376V13.4539H12.9865L20.2545 22.3926H20.7828V15.5148C20.7828 13.9299 20.8161 13.1588 20.8828 12.6305C20.9494 11.8975 21.3587 11.6738 22.3154 11.6214V11.1455V11.155ZM33.8529 17.095H29.5168V17.571C31.2065 17.69 31.3064 17.809 31.3064 19.037V20.4887C31.3064 21.2074 31.1018 21.4264 30.7591 21.6167C30.3831 21.8024 29.8547 21.9071 29.2741 21.9071C25.9804 21.9071 24.5287 19.0418 24.5287 16.5667C24.5287 13.4253 26.4373 11.4977 29.0504 11.4977C30.6877 11.4977 31.968 12.0593 32.3774 14.1583L32.8533 14.0536C32.7344 12.9256 32.6487 11.9879 32.5963 11.393C32.0347 11.274 30.7353 10.8979 29.3026 10.8979C25.9566 10.8979 22.7866 12.8256 22.7866 16.7666C22.7866 20.1603 25.295 22.4973 29.0504 22.4973C30.4164 22.4973 31.8157 22.1213 32.8724 21.8833C32.7677 21.4073 32.7534 20.86 32.7534 20.2602V18.7943C32.7534 17.7852 32.82 17.6995 33.8434 17.5663V17.0903L33.8529 17.095ZM42.6916 19.4654C42.4346 20.2507 42.13 20.7981 41.8206 21.136C41.4303 21.5787 40.8496 21.6643 39.9072 21.6643C39.1885 21.6643 38.6126 21.631 38.2699 21.4406C37.9605 21.2693 37.8796 20.9266 37.8796 20.008V13.2683C37.8796 11.8023 38.0319 11.7309 39.3789 11.6309V11.155H34.9238V11.6309C36.3232 11.7357 36.4279 11.8213 36.4279 13.2683V20.0936C36.4279 21.5453 36.2898 21.6643 34.8572 21.7643V22.2403H42.5869C42.7392 21.7119 43.1009 20.0889 43.2009 19.5606L42.6868 19.4558L42.6916 19.4654ZM48.9363 22.245V21.7691C47.5369 21.6643 47.3989 21.5834 47.3989 20.1127V13.2873C47.3989 11.8356 47.5369 11.7357 48.9363 11.6309V11.155H44.4146V11.6309C45.8139 11.7357 45.952 11.8356 45.952 13.2873V20.1127C45.952 21.5644 45.8139 21.6643 44.4146 21.7691V22.245H48.9363ZM56.904 13.6443C56.766 12.5686 56.6803 11.888 56.6137 11.2882C55.9663 11.0836 55.2476 10.8979 54.4623 10.8979C52.2585 10.8979 50.9449 12.2973 50.9449 13.9346C50.9449 15.8623 52.6679 16.7 53.7626 17.295C55.043 17.9756 55.9806 18.5753 55.9806 19.8366C55.9806 21.0979 55.2286 21.8833 53.9339 21.8833C52.1586 21.8833 51.3923 20.1603 51.1353 19.1179L50.6212 19.2369C50.7402 20.0556 50.9639 21.5215 51.0829 21.8833C51.2542 21.969 51.5113 22.107 51.9349 22.2403C52.3442 22.3593 52.9059 22.4973 53.6055 22.4973C55.8759 22.4973 57.3942 21.0646 57.3942 19.2702C57.3942 17.3426 55.7902 16.5572 54.4432 15.8575C53.0962 15.1721 52.2776 14.5772 52.2776 13.3301C52.2776 12.4068 52.8583 11.4691 54.1719 11.4691C55.657 11.4691 56.1186 12.6448 56.409 13.7204L56.904 13.6348V13.6443ZM70.3358 11.155H65.8807V11.6309C67.2134 11.7499 67.3467 11.8356 67.3467 13.254V16.0194H61.5304V13.254C61.5304 11.8356 61.6684 11.7357 62.9631 11.6309V11.155H58.5413V11.6309C59.9407 11.7357 60.0787 11.8213 60.0787 13.254V20.146C60.0787 21.5787 59.9407 21.6643 58.5794 21.7691V22.245H63.0678V21.7691C61.6684 21.6643 61.5304 21.5644 61.5304 20.146V16.7524H67.3467V20.146C67.3467 21.5787 67.2087 21.6643 65.7427 21.7691V22.245H70.3167V21.7691C68.9364 21.6643 68.7984 21.5834 68.7984 20.146V13.254C68.7984 11.8356 68.9364 11.7547 70.3358 11.6309V11.155ZM82.3778 11.155V11.6309C83.7105 11.7499 83.8438 11.8356 83.8438 13.254V16.0194H78.0274V13.254C78.0274 11.8356 78.1655 11.7357 79.4601 11.6309V11.155H75.0431V11.6309C76.4425 11.7357 76.5805 11.8213 76.5805 13.254V20.146C76.5805 21.5787 76.4425 21.6643 75.0812 21.7691V22.245H79.5696V21.7691C78.1702 21.6643 78.0322 21.5644 78.0322 20.146V16.7524H83.8485V20.146C83.8485 21.5787 83.7105 21.6643 82.2445 21.7691V22.245H86.8185V21.7691C85.4382 21.6643 85.3002 21.5834 85.3002 20.146V13.254C85.3002 11.8356 85.4382 11.7547 86.8376 11.6309V11.155H82.3778ZM92.8443 10.8979C89.246 10.8979 87.0946 13.749 87.0946 16.819C87.0946 20.1127 89.5506 22.502 92.6396 22.502C95.7287 22.502 98.337 20.2507 98.337 16.562C98.337 13.1302 95.7239 10.8979 92.8443 10.8979ZM92.4683 11.5119C94.7196 11.5119 96.5997 13.4206 96.5997 17.0237C96.5997 20.2983 94.91 21.888 93.0014 21.888C90.5977 21.888 88.8366 19.551 88.8366 16.343C88.8366 13.135 90.5787 11.5119 92.473 11.5119M112.597 22.245V21.7691C111.112 21.6501 111.06 21.5453 111.012 19.7367L110.86 13.5586C110.807 11.8023 110.912 11.769 112.43 11.6309V11.155H109.522L105.567 19.7034L101.678 11.155H98.8748V11.6309C100.431 11.7832 100.517 11.8546 100.36 14.0727L100.122 17.6234C100.003 19.413 99.8981 20.1508 99.7982 20.7457C99.6792 21.4644 99.3555 21.6691 98.3465 21.7691V22.245H102.321V21.7691C101.178 21.6501 100.783 21.5311 100.75 20.7124C100.731 20.0318 100.731 19.294 100.802 17.8804L101.064 13.016H101.098L104.915 22.126H105.258L109.417 12.7733H109.484L109.551 19.7367C109.551 21.5453 109.498 21.6453 108.104 21.7691V22.245H112.597ZM122.021 19.4796C121.783 20.146 121.459 20.741 121.169 21.0837C120.793 21.5263 120.317 21.6643 119.018 21.6643C118.166 21.6643 117.566 21.6643 117.242 21.4406C116.933 21.236 116.833 20.86 116.833 20.0603V16.8333H118.456C119.941 16.8333 120.06 16.938 120.284 18.1469H120.779V14.8866H120.284C120.079 16.0289 119.993 16.1669 118.442 16.1669H116.838V12.2735C116.838 11.7785 116.871 11.7261 117.399 11.7261H118.694C119.922 11.7261 120.384 11.8451 120.622 12.2211C120.845 12.5781 121.012 12.9541 121.169 13.6728L121.664 13.6062C121.612 12.7352 121.526 11.5738 121.526 11.1502H113.915V11.6262C115.248 11.7309 115.381 11.7975 115.381 13.3159V20.1079C115.381 21.5073 115.243 21.6453 113.692 21.7643V22.2403H121.916C122.069 21.7119 122.411 20.1079 122.511 19.5463L122.016 19.4796H122.021Z" fill="#D8DDE2"/>
</svg>
