<svg width="51" height="33" viewBox="0 0 51 33" fill="none" xmlns="http://www.w3.org/2000/svg">
<g clip-path="url(#clip0_195_9351)">
<path fill-rule="evenodd" clip-rule="evenodd" d="M21.1486 10.425C19.2571 11.7823 16.5251 12.5091 14.1608 12.5091C10.8508 12.5091 7.8736 11.3269 5.61441 9.34796C5.43927 9.1991 5.59689 8.98019 5.80705 9.10278C8.24138 10.4688 11.2536 11.3007 14.3535 11.3007C16.4463 11.3007 18.758 10.8804 20.8771 10.0047C21.2011 9.8646 21.4725 10.2061 21.1486 10.425Z" fill="#323E48"/>
<path fill-rule="evenodd" clip-rule="evenodd" d="M21.5178 9.50535C21.2989 9.21638 20.0467 9.374 19.4951 9.4353C19.3287 9.45281 19.3024 9.3127 19.4513 9.19887C20.4408 8.48959 22.0695 8.69099 22.2534 8.92741C22.446 9.1726 22.2009 10.8276 21.2727 11.6157C21.1326 11.7295 20.9924 11.677 21.0537 11.5106C21.2814 10.9852 21.7455 9.79431 21.5178 9.50535Z" fill="#323E48"/>
<path fill-rule="evenodd" clip-rule="evenodd" d="M19.5373 3.39343V2.63161C19.5373 2.51777 19.6249 2.43896 19.7212 2.43896H23.0137C23.1188 2.43896 23.2063 2.52653 23.2063 2.63161V3.28835C23.2063 3.39343 23.11 3.54229 22.9524 3.76996L21.2449 6.30937C21.8753 6.29185 22.5496 6.39693 23.1275 6.72968C23.2501 6.80849 23.2939 6.91357 23.3027 7.03616V7.85052C23.3027 7.9556 23.1888 8.09571 23.0575 8.02565C22.0417 7.47399 20.6932 7.4127 19.5724 8.03441C19.4585 8.10446 19.3359 7.96436 19.3359 7.85928V7.07995C19.3359 6.95735 19.3359 6.7472 19.4585 6.55455L21.455 3.57732H19.73C19.6337 3.58608 19.5461 3.51602 19.5373 3.39343Z" fill="#323E48"/>
<path fill-rule="evenodd" clip-rule="evenodd" d="M7.62953 8.37595H6.65755C6.56123 8.36719 6.49118 8.28838 6.48242 8.20082V2.74548C6.48242 2.6404 6.56999 2.55283 6.67507 2.55283H7.59451C7.69083 2.56159 7.76088 2.6404 7.76964 2.73672V3.45476H7.78715C8.02358 2.76299 8.47892 2.44775 9.08312 2.44775C9.69608 2.44775 10.0814 2.76299 10.3528 3.45476C10.5893 2.76299 11.1322 2.44775 11.7013 2.44775C12.1129 2.44775 12.5595 2.63164 12.8397 3.0432C13.1549 3.5073 13.0849 4.1728 13.0849 4.75073V8.18331C13.0849 8.28838 12.9973 8.37595 12.901 8.37595H11.9115C11.8064 8.36719 11.7364 8.27963 11.7364 8.18331V5.29364C11.7364 5.06597 11.7539 4.48803 11.7101 4.26912C11.6313 3.90134 11.4124 3.79627 11.1322 3.79627C10.8957 3.79627 10.6418 3.96264 10.5455 4.24285C10.4404 4.52306 10.4491 4.96965 10.4491 5.28488V8.17455C10.4491 8.27963 10.3616 8.36719 10.2653 8.36719H9.27577C9.17069 8.35844 9.10064 8.27087 9.10064 8.17455V5.28488C9.10064 4.68068 9.19696 3.77875 8.49643 3.77875C7.78715 3.77875 7.81342 4.65441 7.81342 5.28488V8.17455C7.82218 8.29714 7.74337 8.37595 7.62953 8.37595Z" fill="#323E48"/>
<path fill-rule="evenodd" clip-rule="evenodd" d="M26.2815 3.53354C25.5372 3.53354 25.4846 4.58432 25.4846 5.23231C25.4846 5.88905 25.4759 7.28135 26.2727 7.28135C27.0608 7.28135 27.0959 6.15175 27.0959 5.46874C27.0959 5.0134 27.0783 4.47924 26.947 4.05017C26.8332 3.67364 26.5967 3.53354 26.2815 3.53354ZM26.2727 2.43896C27.7876 2.43896 28.602 3.76996 28.602 5.45122C28.602 7.07995 27.6913 8.37592 26.2727 8.37592C24.7841 8.37592 23.9785 7.04492 23.9785 5.38993C23.9785 3.73494 24.7929 2.43896 26.2727 2.43896Z" fill="#323E48"/>
<path fill-rule="evenodd" clip-rule="evenodd" d="M30.7194 8.37589H29.765C29.6599 8.36713 29.5898 8.27956 29.5898 8.18324V2.7279C29.5986 2.62282 29.6774 2.55277 29.7737 2.55277H30.6669C30.7545 2.56152 30.8158 2.62282 30.8333 2.70163V3.5335H30.8508C31.1222 2.7892 31.4988 2.43018 32.1643 2.43018C32.5933 2.43018 33.0224 2.60531 33.2939 3.06941C33.5478 3.50723 33.5478 4.23403 33.5478 4.76818V8.192C33.5391 8.29708 33.4515 8.35837 33.3639 8.35837H32.4007C32.3044 8.34962 32.2431 8.27956 32.2343 8.192V5.24103C32.2343 4.64559 32.3044 3.76993 31.6301 3.76993C31.3937 3.76993 31.1748 3.93631 31.0785 4.20776C30.9471 4.54051 30.9296 4.87326 30.9296 5.24103V8.17448C30.9033 8.29708 30.8245 8.37589 30.7194 8.37589Z" fill="#323E48"/>
<path fill-rule="evenodd" clip-rule="evenodd" d="M18.1732 8.29714C18.1032 8.35844 18.0069 8.36719 17.9281 8.32341C17.5865 8.03444 17.5252 7.9031 17.3326 7.63164C16.7634 8.20958 16.3606 8.38471 15.6251 8.38471C14.7494 8.38471 14.0664 7.85056 14.0664 6.76474C14.0664 5.92411 14.5217 5.34618 15.1697 5.06597C15.7302 4.82078 16.5182 4.76824 17.1224 4.70695V4.5756C17.1224 4.33042 17.14 4.04145 16.9999 3.82254C16.8773 3.62989 16.6321 3.55108 16.4219 3.55108C16.0279 3.55108 15.6776 3.75248 15.59 4.1728C15.5725 4.26912 15.5025 4.35669 15.4149 4.36544L14.4079 4.25161C14.3203 4.23409 14.2328 4.16404 14.2591 4.03269C14.4867 2.80677 15.59 2.44775 16.5795 2.44775C17.0874 2.44775 17.7354 2.5791 18.1382 2.96439C18.6461 3.43725 18.5936 4.06772 18.5936 4.75073V6.37945C18.5936 6.86982 18.795 7.07998 18.9876 7.34268C19.0576 7.439 19.0752 7.55283 18.9876 7.62289C18.7599 7.7805 18.3834 8.11325 18.1732 8.29714ZM17.1312 5.75774C17.1312 6.16054 17.14 6.49329 16.9386 6.86106C16.7722 7.15879 16.5095 7.33392 16.2205 7.33392C15.8265 7.33392 15.59 7.02744 15.59 6.58085C15.59 5.69644 16.3781 5.53007 17.1312 5.53007V5.75774Z" fill="#323E48"/>
<path fill-rule="evenodd" clip-rule="evenodd" d="M4.95839 8.29714C4.88834 8.35844 4.79202 8.36719 4.71321 8.32341C4.3717 8.03444 4.31041 7.9031 4.11776 7.63164C3.54859 8.20958 3.14578 8.38471 2.41023 8.38471C1.53458 8.38471 0.851562 7.85056 0.851562 6.76474C0.851562 5.92411 1.3069 5.34618 1.95489 5.06597C2.51531 4.82078 3.3034 4.76824 3.9076 4.70695V4.5756C3.9076 4.33042 3.92512 4.04145 3.78501 3.82254C3.66242 3.62989 3.41724 3.55108 3.20708 3.55108C2.81303 3.55108 2.46277 3.75248 2.37521 4.1728C2.35769 4.26912 2.28764 4.35669 2.20007 4.36544L1.20183 4.26036C1.11426 4.24285 1.02669 4.1728 1.05296 4.04145C1.28063 2.81553 2.38396 2.44775 3.3647 2.44775C3.87258 2.44775 4.52056 2.5791 4.92337 2.96439C5.43125 3.43725 5.37871 4.06772 5.37871 4.75073V6.3707C5.37871 6.86106 5.58011 7.07122 5.77275 7.33392C5.84281 7.43024 5.86032 7.54408 5.77275 7.61413C5.54508 7.7805 5.16855 8.11325 4.95839 8.29714ZM3.91636 5.75774C3.91636 6.16054 3.92512 6.49329 3.72372 6.86106C3.55734 7.15879 3.29464 7.33392 3.00568 7.33392C2.61163 7.33392 2.37521 7.02744 2.37521 6.58085C2.37521 5.69644 3.1633 5.53007 3.91636 5.53007V5.75774Z" fill="#323E48"/>
<path fill-rule="evenodd" clip-rule="evenodd" d="M41.7969 3.95406C41.5079 4.29556 41.3765 4.76842 41.3765 5.37262C41.3765 5.97682 41.5079 6.45844 41.7793 6.8087C42.0946 7.20274 42.5412 7.40415 43.1541 7.40415C43.7233 7.40415 44.1611 7.2115 44.4851 6.81745C44.7653 6.46719 44.9054 6.00309 44.9054 5.44267V5.33759C44.9054 4.7509 44.7391 4.26929 44.4326 3.91027C44.1173 3.5425 43.7058 3.36737 43.1979 3.36737C42.5762 3.36737 42.1033 3.56001 41.7969 3.95406ZM45.7636 0.994337V7.73689C45.7636 7.84197 45.6673 7.91203 45.5622 7.91203H45.1506C45.0368 7.91203 44.9405 7.82446 44.9405 7.72814V7.08015C44.5464 7.72814 43.9072 8.04337 43.0578 8.04337C42.2259 8.04337 41.5779 7.76316 41.1138 7.23777C40.6848 6.7474 40.4746 6.11693 40.4746 5.35511C40.4746 4.6108 40.6848 4.0066 41.1138 3.51623C41.5779 2.97332 42.1997 2.70187 43.014 2.70187C43.8284 2.70187 44.4501 3.05213 44.8879 3.77017V0.968068C44.8879 0.862989 44.9842 0.78418 45.0981 0.78418H45.5359C45.6585 0.78418 45.7636 0.880502 45.7636 0.994337Z" fill="#323E48"/>
<path fill-rule="evenodd" clip-rule="evenodd" d="M39.0034 5.81024C39.0034 6.2218 38.8108 6.58958 38.4342 6.91357C38.0489 7.23756 37.6111 7.41269 37.112 7.41269C36.788 7.41269 36.5253 7.32513 36.3239 7.17627C36.1225 7.00989 36.0262 6.81725 36.0262 6.57206C36.0262 5.80149 36.6129 5.4162 37.795 5.38993L39.0034 5.37242V5.81024ZM39.3537 3.03441C38.9859 2.63161 38.4342 2.43896 37.6899 2.43896C37.4623 2.43896 37.2609 2.45648 37.0682 2.4915C36.5341 2.56156 36.0349 2.80674 35.6672 3.02565C35.5971 3.06944 35.5708 3.14825 35.6059 3.2183L35.7547 3.53354C35.7898 3.61234 35.8861 3.63861 35.9649 3.60359C36.3151 3.41094 36.7968 3.24457 37.2171 3.14825C37.3397 3.12198 37.4885 3.11322 37.6374 3.11322C38.5568 3.11322 39.0034 3.55981 39.0034 4.45298V4.73319L37.7425 4.7507C36.9544 4.75946 36.3414 4.86453 35.9123 5.16226C35.422 5.47749 35.1855 5.96786 35.1855 6.57206C35.1855 7.00114 35.3432 7.36016 35.6759 7.64037C35.9912 7.91182 36.4027 8.04317 36.9369 8.04317C37.4272 8.04317 37.8651 7.93809 38.2503 7.71917C38.5743 7.53529 38.8458 7.29886 39.0472 7.00114V7.70166C39.0472 7.80674 39.1435 7.90306 39.2486 7.90306H39.6076C39.7127 7.90306 39.809 7.80674 39.809 7.70166V4.47049C39.8178 3.86629 39.6602 3.38467 39.3537 3.03441Z" fill="#323E48"/>
<path fill-rule="evenodd" clip-rule="evenodd" d="M46.4297 7.06243C46.4297 6.9486 46.561 6.86979 46.6661 6.93984C47.0777 7.18502 47.5155 7.29886 47.9884 7.29886C48.7239 7.29886 49.2318 7.05368 49.2318 6.57206C49.2318 6.37066 49.1442 6.19553 48.9866 6.06418C48.829 5.93284 48.3649 5.76646 47.8658 5.59133C47.2703 5.3549 46.885 5.11847 46.7099 4.88205C46.5348 4.64562 46.4384 4.36541 46.4384 4.04142C46.4384 3.56856 46.6398 3.14825 47.0426 2.86804C47.4454 2.57907 47.9446 2.43896 48.5313 2.43896C48.9516 2.43896 49.3456 2.54404 49.7046 2.68415C49.7659 2.71042 49.8097 2.76296 49.8097 2.82425V3.36716C49.8097 3.481 49.6959 3.55105 49.5821 3.49851C49.2405 3.33213 48.8553 3.19203 48.4437 3.19203C48.1372 3.19203 47.8045 3.26208 47.6118 3.38467C47.4192 3.50727 47.2878 3.73494 47.2878 3.94509C47.2878 4.15525 47.3579 4.32163 47.498 4.44422C47.6293 4.55805 48.0672 4.71567 48.54 4.89956C49.1355 5.11847 49.547 5.3549 49.7572 5.59133C49.9673 5.82776 50.0724 6.11672 50.0724 6.47574C50.0724 6.96611 49.871 7.3514 49.4682 7.62285C49.0654 7.90306 48.54 8.04317 47.9008 8.04317C47.3842 8.04317 46.9288 7.94685 46.5348 7.77171C46.4735 7.74544 46.4384 7.69291 46.4384 7.63161V7.06243H46.4297Z" fill="#323E48"/>
<path d="M2.26053 23.7346L0.623047 18.6646H1.7614L2.89975 22.2285H2.91727L4.05562 18.6646H5.20273L3.52147 23.7258H2.26053V23.7346Z" fill="#009596"/>
<path d="M6.42797 22.8501C6.57683 22.999 6.79575 23.069 7.08471 23.069C7.28611 23.069 7.46125 23.0165 7.61011 22.9202C7.75897 22.8151 7.84653 22.71 7.88156 22.5962H8.76597C8.62587 23.034 8.40696 23.3492 8.10923 23.5419C7.82026 23.7345 7.46125 23.8221 7.04969 23.8221C6.76072 23.8221 6.49802 23.7783 6.27035 23.682C6.04268 23.5857 5.84128 23.4543 5.68366 23.2879C5.52604 23.1216 5.3947 22.9114 5.30713 22.675C5.21956 22.4386 5.17578 22.1759 5.17578 21.8956C5.17578 21.6242 5.21956 21.3703 5.30713 21.1338C5.3947 20.8974 5.52604 20.696 5.69242 20.5209C5.85879 20.3457 6.05144 20.2144 6.28787 20.1093C6.51554 20.013 6.76948 19.9604 7.04969 19.9604C7.36492 19.9604 7.63638 20.0217 7.86405 20.1443C8.09172 20.2669 8.28436 20.4245 8.43322 20.6259C8.58209 20.8273 8.68717 21.0638 8.75722 21.3177C8.82727 21.5804 8.84478 21.8519 8.82727 22.1321H6.18279C6.19154 22.4648 6.27911 22.7013 6.42797 22.8501ZM7.56632 20.9237C7.44373 20.7923 7.25984 20.7223 7.01466 20.7223C6.85704 20.7223 6.71694 20.7485 6.61186 20.8011C6.50678 20.8536 6.41921 20.9237 6.35792 21.0025C6.29662 21.0813 6.25284 21.1689 6.22657 21.2564C6.2003 21.344 6.18279 21.4228 6.18279 21.5016H7.82026C7.76773 21.2477 7.68892 21.055 7.56632 20.9237Z" fill="#009596"/>
<path d="M10.5883 20.0656V20.7486H10.6058C10.6496 20.6348 10.7196 20.5297 10.7984 20.4334C10.8773 20.337 10.9736 20.2495 11.0787 20.1882C11.1837 20.1181 11.2976 20.0656 11.4114 20.0306C11.5252 19.9955 11.6566 19.978 11.7792 19.978C11.8492 19.978 11.9193 19.9868 11.9981 20.0131V20.95C11.9543 20.9412 11.893 20.9325 11.8317 20.9237C11.7617 20.915 11.7004 20.915 11.6391 20.915C11.4552 20.915 11.2976 20.95 11.175 21.0113C11.0436 21.0726 10.9473 21.1602 10.8685 21.2652C10.7897 21.3703 10.7371 21.4929 10.7021 21.6418C10.6671 21.7819 10.6496 21.9395 10.6496 22.1059V23.7609H9.64258V20.0919H10.5883V20.0656Z" fill="#009596"/>
<path d="M12.6367 19.4964V18.6646H13.6437V19.4964H12.6367ZM13.6437 20.0656V23.7346H12.6367V20.0656H13.6437Z" fill="#009596"/>
<path d="M14.2656 20.7398V20.0656H14.8698V19.7766C14.8698 19.4526 14.9749 19.1812 15.1763 18.971C15.3777 18.7608 15.6842 18.6558 16.0957 18.6558C16.1833 18.6558 16.2796 18.6558 16.3672 18.6645C16.4548 18.6733 16.5423 18.6733 16.6299 18.682V19.4351C16.5073 19.4176 16.3847 19.4176 16.2621 19.4176C16.122 19.4176 16.0257 19.4526 15.9644 19.5139C15.9031 19.5752 15.8768 19.689 15.8768 19.8379V20.0568H16.5686V20.7311H15.8768V23.7258H14.8698V20.7398H14.2656Z" fill="#009596"/>
<path d="M17.252 19.4964V18.6646H18.259V19.4964H17.252ZM18.259 20.0656V23.7346H17.252V20.0656H18.259Z" fill="#009596"/>
<path d="M20.342 22.8501C20.4909 22.999 20.7098 23.069 20.9988 23.069C21.2002 23.069 21.3753 23.0165 21.5242 22.9202C21.673 22.8151 21.7606 22.71 21.7956 22.5962H22.68C22.5399 23.034 22.321 23.3492 22.0233 23.5419C21.7343 23.7345 21.3753 23.8221 20.9637 23.8221C20.6748 23.8221 20.4121 23.7783 20.1844 23.682C19.9567 23.5857 19.7553 23.4543 19.5977 23.2879C19.4401 23.1216 19.3088 22.9114 19.2212 22.675C19.1336 22.4386 19.0898 22.1759 19.0898 21.8956C19.0898 21.6242 19.1336 21.3703 19.2212 21.1338C19.3088 20.8974 19.4401 20.696 19.6065 20.5209C19.7729 20.3457 19.9655 20.2144 20.2019 20.1093C20.4296 20.013 20.6835 19.9604 20.9637 19.9604C21.279 19.9604 21.5504 20.0217 21.7781 20.1443C22.0058 20.2669 22.1984 20.4245 22.3473 20.6259C22.4961 20.8273 22.6012 21.0638 22.6713 21.3177C22.7413 21.5804 22.7588 21.8519 22.7413 22.1321H20.0968C20.1056 22.4648 20.1932 22.7013 20.342 22.8501ZM21.4804 20.9237C21.3578 20.7923 21.1739 20.7223 20.9287 20.7223C20.7711 20.7223 20.631 20.7485 20.5259 20.8011C20.4208 20.8536 20.3333 20.9237 20.272 21.0025C20.2107 21.0813 20.1669 21.1689 20.1406 21.2564C20.1144 21.344 20.0968 21.4228 20.0968 21.5016H21.7343C21.6818 21.2477 21.603 21.055 21.4804 20.9237Z" fill="#009596"/>
<path d="M26.1479 23.2618C26.0341 23.4632 25.8765 23.6033 25.6838 23.6909C25.4912 23.7785 25.2723 23.8222 25.0359 23.8222C24.7644 23.8222 24.5192 23.7697 24.3091 23.6646C24.0989 23.5595 23.9325 23.4107 23.7924 23.2355C23.6611 23.0517 23.556 22.8415 23.4859 22.6051C23.4159 22.3686 23.3809 22.1235 23.3809 21.8695C23.3809 21.6243 23.4159 21.3879 23.4859 21.1602C23.556 20.9326 23.6523 20.7312 23.7924 20.556C23.9238 20.3809 24.0989 20.2408 24.3003 20.1357C24.5017 20.0306 24.7381 19.9781 25.0096 19.9781C25.2285 19.9781 25.4299 20.0219 25.6313 20.1182C25.8239 20.2145 25.9816 20.3459 26.0954 20.5298H26.1129V18.6821H27.1199V23.7434H26.1654V23.2793H26.1479V23.2618ZM26.1129 21.4492C26.0866 21.3091 26.0341 21.1865 25.964 21.0814C25.894 20.9763 25.8064 20.8888 25.7013 20.8187C25.5963 20.7487 25.4562 20.7224 25.2898 20.7224C25.1234 20.7224 24.9833 20.7574 24.8695 20.8187C24.7556 20.8888 24.6681 20.9763 24.598 21.0814C24.528 21.1865 24.4754 21.3179 24.4492 21.458C24.4141 21.5981 24.4054 21.7469 24.4054 21.8958C24.4054 22.0359 24.4229 22.176 24.4579 22.3249C24.4929 22.465 24.5455 22.5963 24.6155 22.7014C24.6856 22.8152 24.7819 22.9028 24.8957 22.9728C25.0096 23.0429 25.1409 23.0779 25.2985 23.0779C25.4649 23.0779 25.605 23.0429 25.7101 22.9816C25.8239 22.9116 25.9115 22.824 25.9728 22.7189C26.0429 22.6051 26.0866 22.4825 26.1129 22.3424C26.1392 22.2023 26.1567 22.0534 26.1567 21.9045C26.1479 21.7382 26.1392 21.5893 26.1129 21.4492Z" fill="#009596"/>
<path d="M2.01501 27.3336V27.7977H2.03253C2.15512 27.5963 2.31274 27.4562 2.49662 27.3687C2.68927 27.2811 2.89067 27.2373 3.11834 27.2373C3.40731 27.2373 3.65249 27.2898 3.86265 27.4037C4.07281 27.5088 4.23918 27.6576 4.37929 27.8328C4.51939 28.0166 4.61571 28.218 4.68577 28.4632C4.75582 28.6997 4.78209 28.9536 4.78209 29.2075C4.78209 29.4527 4.74706 29.6891 4.68577 29.9168C4.61571 30.1445 4.51939 30.3459 4.38804 30.521C4.25669 30.6961 4.08156 30.8363 3.88016 30.9413C3.67876 31.0464 3.44233 31.0989 3.17088 31.0989C2.94321 31.0989 2.73305 31.0552 2.54041 30.9588C2.34776 30.8625 2.19014 30.7312 2.06755 30.5473H2.05004V32.2811H1.06055V27.3336H2.01501ZM3.3285 30.2408C3.44233 30.1708 3.5299 30.0919 3.59995 29.9781C3.67 29.873 3.71379 29.7504 3.74881 29.6016C3.77508 29.4615 3.7926 29.3126 3.7926 29.1725C3.7926 29.0236 3.77508 28.8835 3.74881 28.7434C3.71379 28.6033 3.67 28.472 3.59995 28.3669C3.5299 28.2531 3.43358 28.1655 3.3285 28.0954C3.21466 28.0254 3.08331 27.9904 2.91694 27.9904C2.75056 27.9904 2.61046 28.0254 2.50538 28.0954C2.39155 28.1655 2.30398 28.2531 2.23393 28.3581C2.16387 28.4632 2.12009 28.5946 2.08507 28.7347C2.0588 28.8748 2.04128 29.0236 2.04128 29.1725C2.04128 29.3214 2.0588 29.4615 2.08507 29.6016C2.12009 29.7417 2.16387 29.8643 2.23393 29.9781C2.30398 30.0832 2.39155 30.1708 2.50538 30.2408C2.61922 30.3109 2.75932 30.3371 2.91694 30.3371C3.07456 30.3371 3.21466 30.3021 3.3285 30.2408Z" fill="#323E48"/>
<path d="M5.56211 28.4632C5.57962 28.2268 5.63216 28.0342 5.73724 27.8765C5.84232 27.7189 5.97367 27.5963 6.13129 27.5C6.28891 27.4037 6.47279 27.3424 6.67419 27.2986C6.8756 27.2548 7.077 27.2373 7.2784 27.2373C7.46229 27.2373 7.64617 27.2461 7.83882 27.2723C8.03146 27.2986 8.19784 27.3511 8.35546 27.4212C8.51307 27.5 8.63567 27.6051 8.74074 27.7364C8.83707 27.8678 8.88961 28.0517 8.88961 28.2706V30.1795C8.88961 30.3459 8.89836 30.5035 8.91588 30.6524C8.93339 30.8012 8.96842 30.9151 9.0122 30.9939H8.00519C7.98768 30.9413 7.97017 30.88 7.96141 30.8187C7.95265 30.7574 7.9439 30.6961 7.93514 30.6349C7.77752 30.8012 7.58488 30.9151 7.36596 30.9851C7.14705 31.0552 6.92814 31.0814 6.70046 31.0814C6.52533 31.0814 6.35896 31.0639 6.2101 31.0201C6.06123 30.9764 5.92989 30.9151 5.81605 30.8187C5.70222 30.7312 5.61465 30.6173 5.55335 30.4772C5.49206 30.3371 5.45703 30.1795 5.45703 29.9869C5.45703 29.7767 5.49206 29.6103 5.57087 29.4702C5.64092 29.3389 5.73724 29.225 5.85108 29.1462C5.96491 29.0674 6.09626 29.0061 6.24512 28.9623C6.39398 28.9186 6.54285 28.8923 6.69171 28.866C6.84057 28.8398 6.98943 28.8222 7.13829 28.8135C7.28715 28.796 7.4185 28.7785 7.53234 28.7522C7.64617 28.7259 7.73374 28.6821 7.80379 28.6296C7.87384 28.5771 7.90011 28.4982 7.90011 28.3932C7.90011 28.2881 7.8826 28.2005 7.84757 28.1305C7.81255 28.0692 7.76877 28.0166 7.70747 27.9816C7.64617 27.9466 7.57612 27.9203 7.50607 27.9116C7.43602 27.9028 7.33969 27.894 7.25213 27.894C7.05073 27.894 6.90187 27.9378 6.78803 28.0254C6.67419 28.113 6.60414 28.2531 6.58663 28.4545H5.56211V28.4632ZM7.89136 29.2075C7.84757 29.2426 7.79503 29.2776 7.73374 29.2951C7.67244 29.3126 7.60239 29.3301 7.53234 29.3476C7.46229 29.3651 7.38348 29.3739 7.30467 29.3827C7.22586 29.3914 7.14705 29.4002 7.05948 29.4177C6.98067 29.4352 6.91062 29.4527 6.83181 29.4702C6.76176 29.4965 6.69171 29.5228 6.63917 29.5665C6.58663 29.6103 6.54285 29.6541 6.50782 29.7154C6.47279 29.7767 6.45528 29.8555 6.45528 29.9518C6.45528 30.0394 6.47279 30.1182 6.50782 30.1795C6.54285 30.2408 6.58663 30.2933 6.63917 30.3284C6.69171 30.3634 6.76176 30.3897 6.84057 30.4072C6.91938 30.4247 6.99819 30.4247 7.077 30.4247C7.2784 30.4247 7.42726 30.3897 7.54109 30.3284C7.64617 30.2583 7.73374 30.1795 7.78628 30.0919C7.83882 29.9956 7.87384 29.9081 7.8826 29.8117C7.89136 29.7154 7.90011 29.6454 7.90011 29.5841V29.2075H7.89136Z" fill="#323E48"/>
<path d="M10.85 27.3337V28.0167H10.8675C10.9113 27.9028 10.9814 27.7978 11.0602 27.7014C11.139 27.6051 11.2353 27.5175 11.3404 27.4563C11.4455 27.3862 11.5593 27.3337 11.6731 27.2986C11.787 27.2636 11.9183 27.2461 12.0409 27.2461C12.111 27.2461 12.181 27.2549 12.2598 27.2811V28.2181C12.216 28.2093 12.1547 28.2006 12.0934 28.1918C12.0234 28.183 11.9621 28.183 11.9008 28.183C11.7169 28.183 11.5593 28.2181 11.4367 28.2794C11.3053 28.3407 11.209 28.4282 11.1302 28.5333C11.0514 28.6384 10.9989 28.761 10.9638 28.9098C10.9288 29.0499 10.9113 29.2076 10.9113 29.3739V31.0289H9.9043V27.3599H10.85V27.3337Z" fill="#323E48"/>
<path d="M14.879 27.3338V28.0081H14.1434V29.8207C14.1434 29.987 14.1697 30.1009 14.231 30.1622C14.2835 30.2147 14.3973 30.2497 14.5725 30.2497C14.625 30.2497 14.6863 30.2497 14.7388 30.241C14.7914 30.2322 14.8439 30.2322 14.8877 30.2235V31.0028C14.8001 31.0203 14.7038 31.0291 14.6075 31.0291C14.5024 31.0378 14.4061 31.0378 14.301 31.0378C14.1434 31.0378 13.9945 31.0291 13.8544 31.0028C13.7143 30.9853 13.5917 30.9415 13.4867 30.8802C13.3816 30.8189 13.294 30.7313 13.2327 30.6175C13.1714 30.5037 13.1364 30.3548 13.1364 30.1709V28.0081H12.5234V27.3338H13.1364V26.2305H14.1434V27.3338H14.879Z" fill="#323E48"/>
<path d="M16.5248 27.3336V27.8415H16.5423C16.6736 27.6313 16.8313 27.4737 17.0414 27.3774C17.2428 27.2811 17.453 27.2285 17.6631 27.2285C17.9346 27.2285 18.1535 27.2635 18.3286 27.3423C18.5038 27.4124 18.6351 27.5175 18.7402 27.6488C18.8365 27.7802 18.9066 27.9378 18.9503 28.1217C18.9941 28.3056 19.0116 28.5157 19.0116 28.7434V31.0026H18.0046V28.9273C18.0046 28.6208 17.9609 28.4019 17.8645 28.253C17.7682 28.1042 17.6018 28.0254 17.3567 28.0254C17.0852 28.0254 16.8838 28.1042 16.7612 28.2705C16.6386 28.4369 16.5773 28.6996 16.5773 29.0762V31.0026H15.5703V27.3336H16.5248Z" fill="#323E48"/>
<path d="M21.0686 30.1182C21.2175 30.267 21.4364 30.3371 21.7253 30.3371C21.9267 30.3371 22.1019 30.2846 22.2507 30.1882C22.3996 30.0832 22.4872 29.9781 22.5222 29.8642H23.4066C23.2665 30.3021 23.0476 30.6173 22.7499 30.81C22.4609 31.0026 22.1019 31.0902 21.6903 31.0902C21.4013 31.0902 21.1386 31.0464 20.911 30.9501C20.6833 30.8537 20.4819 30.7224 20.3243 30.556C20.1667 30.3896 20.0353 30.1795 19.9478 29.9431C19.8602 29.7066 19.8164 29.4439 19.8164 29.1637C19.8164 28.8923 19.8602 28.6383 19.9478 28.4019C20.0353 28.1655 20.1667 27.9641 20.333 27.7889C20.4994 27.6138 20.6921 27.4825 20.9285 27.3774C21.1562 27.2811 21.4101 27.2285 21.6903 27.2285C22.0055 27.2285 22.277 27.2898 22.5047 27.4124C22.7323 27.535 22.925 27.6926 23.0738 27.894C23.2227 28.0954 23.3278 28.3318 23.3978 28.5858C23.4679 28.8485 23.4854 29.1199 23.4679 29.4001H20.8147C20.8322 29.7329 20.911 29.9693 21.0686 30.1182ZM22.2069 28.1917C22.0844 28.0604 21.9005 27.9903 21.6553 27.9903C21.4977 27.9903 21.3576 28.0166 21.2525 28.0691C21.1474 28.1217 21.0598 28.1917 20.9985 28.2705C20.9372 28.3494 20.8935 28.4369 20.8672 28.5245C20.8409 28.6121 20.8234 28.6909 20.8234 28.7697H22.4609C22.4083 28.5157 22.3208 28.3231 22.2069 28.1917Z" fill="#323E48"/>
<path d="M25.2289 27.3337V28.0167H25.2464C25.2902 27.9028 25.3603 27.7978 25.4391 27.7014C25.5179 27.6051 25.6142 27.5175 25.7193 27.4563C25.8244 27.3862 25.9382 27.3337 26.052 27.2986C26.1659 27.2636 26.2972 27.2461 26.4198 27.2461C26.4899 27.2461 26.5599 27.2549 26.6387 27.2811V28.2181C26.5949 28.2093 26.5336 28.2006 26.4723 28.1918C26.4023 28.183 26.341 28.183 26.2797 28.183C26.0958 28.183 25.9382 28.2181 25.8156 28.2794C25.6843 28.3407 25.5879 28.4282 25.5091 28.5333C25.4303 28.6384 25.3778 28.761 25.3427 28.9098C25.3077 29.0499 25.2902 29.2076 25.2902 29.3739V31.0289H24.2832V27.3599H25.2289V27.3337Z" fill="#323E48"/>
</g>
<defs>
<clipPath id="clip0_195_9351">
<rect width="50" height="31.7863" fill="white" transform="translate(0.5 0.774902)"/>
</clipPath>
</defs>
</svg>
