<svg width="21" height="21" viewBox="0 0 21 21" fill="none" xmlns="http://www.w3.org/2000/svg">
<g clip-path="url(#clip0_701_14309)">
<path d="M20.9 10.3682C20.9 4.84531 16.4229 0.368164 10.9 0.368164C5.37717 0.368164 0.900024 4.84531 0.900024 10.3682C0.900024 15.3594 4.55686 19.4965 9.33752 20.2467V13.2588H6.79846V10.3682H9.33752V8.16504C9.33752 5.65879 10.8305 4.27441 13.1147 4.27441C14.2084 4.27441 15.3531 4.46973 15.3531 4.46973V6.93066H14.0922C12.85 6.93066 12.4625 7.70156 12.4625 8.49316V10.3682H15.236L14.7926 13.2588H12.4625V20.2467C17.2432 19.4965 20.9 15.3594 20.9 10.3682Z" fill="#1877F2"/>
<path d="M14.7926 13.2588L15.236 10.3682H12.4625V8.49316C12.4625 7.70234 12.85 6.93066 14.0922 6.93066H15.3531V4.46973C15.3531 4.46973 14.2088 4.27441 13.1147 4.27441C10.8305 4.27441 9.33752 5.65879 9.33752 8.16504V10.3682H6.79846V13.2588H9.33752V20.2467C10.3729 20.4087 11.4272 20.4087 12.4625 20.2467V13.2588H14.7926Z" fill="white"/>
</g>
<defs>
<clipPath id="clip0_701_14309">
<rect width="20" height="20" fill="white" transform="translate(0.900024 0.368164)"/>
</clipPath>
</defs>
</svg>
