<svg width="32" height="33" viewBox="0 0 32 33" fill="none" xmlns="http://www.w3.org/2000/svg">
<rect width="32" height="32" transform="translate(0 0.5)" fill="white"/>
<path fill-rule="evenodd" clip-rule="evenodd" d="M16.3762 23.4653L16.4297 23.6577L16.5056 23.8425L16.6029 24.0118L16.7207 24.1677L16.8628 24.313L17.0214 24.441L17.3883 24.6585L17.802 24.8134L18.2623 24.9068L18.7694 24.9375L19.109 24.927L19.4467 24.8923L19.763 24.8355L20.0735 24.7547L20.4618 24.6123L20.8317 24.4275L21.1781 24.2024L21.4137 24.0118L21.6171 23.8088L21.7874 23.5971L21.9304 23.3662L22.0404 23.1256L22.1192 22.8735L22.1669 22.6041L22.1825 22.3317V21.0279L22.1718 20.9528L22.1397 20.8999L22.0862 20.8681L22.0112 20.8575H19.6317L18.9115 20.8931L18.5893 20.9364L18.2701 21L17.9849 21.0779L17.7076 21.177L17.4604 21.2896L17.2248 21.4243L17.0166 21.5735L16.8365 21.738L16.6847 21.916L16.5582 22.1123L16.4599 22.324L16.3908 22.5463L16.3489 22.7859L16.3353 23.0409L16.346 23.2555L16.3791 23.4682M13.0107 23.2671L13.0351 22.7301L13.1081 22.223L13.2297 21.7467L13.401 21.3011L13.62 20.8864L13.8886 20.5015L14.2059 20.1474L14.5718 19.8241L14.9825 19.5354L15.4331 19.2852L15.9236 19.0735L16.454 18.9003L17.0244 18.7656L17.6336 18.6693L18.2828 18.6116L18.9728 18.5924H22.0112L22.0862 18.5818L22.1397 18.55L22.1718 18.4971L22.1825 18.423V17.7716L22.1718 17.5031L22.1397 17.25L22.0881 17.0171L22.0132 16.791L21.8837 16.5216L21.7144 16.2752L21.509 16.0568L21.328 15.9125L21.1314 15.7903L20.9076 15.6834L20.674 15.5997L20.4151 15.5333L20.1358 15.4862L19.837 15.4573L19.5178 15.4477L19.038 15.4698L18.601 15.5362L18.2068 15.6469L17.8555 15.8018L17.5528 15.9962L17.3037 16.2242L17.1081 16.486L16.9669 16.7804L16.9338 16.8728L16.891 16.9517L16.7801 17.0701L16.6331 17.1355L16.5465 17.148H16.4511L13.8711 16.8362L13.763 16.8179L13.6696 16.791L13.5908 16.7544L13.5265 16.7092L13.4779 16.6573L13.4477 16.5995L13.4351 16.537L13.4409 16.4686L13.5265 16.0568L13.657 15.6575L13.8312 15.2802L14.0472 14.9242L14.3071 14.5865L14.6107 14.2689L14.9582 13.9706L15.3484 13.6915L15.7747 13.4375L16.2214 13.22L16.7012 13.0334L17.1937 12.8842L17.7163 12.7668L18.2643 12.6831L18.8365 12.6331L19.4331 12.6167L20.31 12.6562L20.7236 12.7043L21.1343 12.7735L21.5236 12.8602L21.9071 12.9679L22.272 13.094L22.6292 13.2412L22.9611 13.4019L23.2832 13.5819L23.5772 13.7724L23.8574 13.9822L24.1124 14.2025L24.3509 14.4402L24.5669 14.6904L24.7635 14.956L24.9893 15.3255L25.1762 15.7152L25.3222 16.1222L25.4039 16.4388L25.4613 16.7602L25.4964 17.097L25.5071 17.4357V24.111L25.5285 24.3304L25.5918 24.5411L25.6939 24.7364L25.73 24.7913L26.2876 25.6438L26.3382 25.7689L26.3363 25.9037L26.2818 26.0278L26.1835 26.1221L23.8662 27.603L23.7397 27.6531L23.6034 27.6511L23.4779 27.5972L23.3825 27.5001L22.8248 26.6475L22.7012 26.4589L22.5582 26.303L22.3723 26.1991L22.163 26.1587L21.9519 26.1856L21.7601 26.278L21.4604 26.5128L21.1431 26.7245L20.6711 26.9795L20.1757 27.1844L19.6433 27.3451L19.0789 27.4606L18.4823 27.5299L17.8536 27.553L17.3348 27.5357L16.8404 27.4856L16.3694 27.4009L15.9217 27.2835L15.5022 27.1334L15.0983 26.9468L14.7227 26.7283L14.3694 26.4752L14.0521 26.1914L13.7737 25.8709L13.5382 25.5159L13.3484 25.1348L13.1995 24.7181L13.0935 24.2688L13.0292 23.7867L13.0078 23.2719" fill="#232323"/>
<path fill-rule="evenodd" clip-rule="evenodd" d="M6.0115 20.537L5.87817 20.511L5.7643 20.436L5.68839 20.3243L5.66211 20.1915V5.69213L5.68839 5.5603L5.7643 5.44772L5.87817 5.37266L6.0115 5.34668H20.6762L20.8105 5.37266L20.9234 5.44772L20.9993 5.5603L21.0256 5.69213V8.28832L20.9993 8.42112L20.9234 8.53274L20.8105 8.6078L20.6762 8.63378H9.33705L9.20274 8.66072L9.08985 8.73578L9.01393 8.8474L8.98668 8.98019V20.1915L8.96041 20.3243L8.88449 20.436L8.7716 20.511L8.63729 20.537H6.0115Z" fill="#FF9E18"/>
</svg>
