<svg width="21" height="21" viewBox="0 0 21 21" fill="none" xmlns="http://www.w3.org/2000/svg">
<g clip-path="url(#clip0_701_14331)">
<path d="M10.1049 0.519775C5.99257 0.519775 4.78988 0.524018 4.5561 0.543412C3.71219 0.613563 3.18705 0.746442 2.61495 1.03129C2.17405 1.25023 1.82633 1.50402 1.48316 1.85978C0.858182 2.50856 0.479405 3.30674 0.342288 4.25553C0.275623 4.71614 0.25623 4.81008 0.252291 7.16281C0.250776 7.94705 0.252291 8.97917 0.252291 10.3636C0.252291 14.4727 0.256836 15.6742 0.276533 15.9075C0.344712 16.7287 0.473496 17.2454 0.746215 17.8105C1.26741 18.8924 2.26284 19.7045 3.43553 20.0075C3.84158 20.112 4.29005 20.1696 4.86579 20.1969C5.10972 20.2075 7.59601 20.2151 10.0838 20.2151C12.5716 20.2151 15.0594 20.212 15.2973 20.1999C15.9639 20.1686 16.351 20.1166 16.7791 20.006C17.9593 19.7014 18.9366 18.9014 19.4684 17.8045C19.7358 17.253 19.8714 16.7166 19.9328 15.9383C19.9461 15.7686 19.9517 13.063 19.9517 10.361C19.9517 7.65856 19.9456 4.95796 19.9323 4.78826C19.8702 3.99735 19.7346 3.46553 19.4585 2.90341C19.232 2.44326 18.9805 2.09962 18.6154 1.74826C17.9637 1.12584 17.1668 0.747048 16.2171 0.610078C15.757 0.543563 15.6653 0.523866 13.3108 0.519775H10.1049Z" fill="url(#paint0_radial_701_14331)"/>
<path d="M10.1049 0.519775C5.99257 0.519775 4.78988 0.524018 4.5561 0.543412C3.71219 0.613563 3.18705 0.746442 2.61495 1.03129C2.17405 1.25023 1.82633 1.50402 1.48316 1.85978C0.858182 2.50856 0.479405 3.30674 0.342288 4.25553C0.275623 4.71614 0.25623 4.81008 0.252291 7.16281C0.250776 7.94705 0.252291 8.97917 0.252291 10.3636C0.252291 14.4727 0.256836 15.6742 0.276533 15.9075C0.344712 16.7287 0.473496 17.2454 0.746215 17.8105C1.26741 18.8924 2.26284 19.7045 3.43553 20.0075C3.84158 20.112 4.29005 20.1696 4.86579 20.1969C5.10972 20.2075 7.59601 20.2151 10.0838 20.2151C12.5716 20.2151 15.0594 20.212 15.2973 20.1999C15.9639 20.1686 16.351 20.1166 16.7791 20.006C17.9593 19.7014 18.9366 18.9014 19.4684 17.8045C19.7358 17.253 19.8714 16.7166 19.9328 15.9383C19.9461 15.7686 19.9517 13.063 19.9517 10.361C19.9517 7.65856 19.9456 4.95796 19.9323 4.78826C19.8702 3.99735 19.7346 3.46553 19.4585 2.90341C19.232 2.44326 18.9805 2.09962 18.6154 1.74826C17.9637 1.12584 17.1668 0.747048 16.2171 0.610078C15.757 0.543563 15.6653 0.523866 13.3108 0.519775H10.1049Z" fill="url(#paint1_radial_701_14331)"/>
<path d="M10.1003 3.09546C8.12523 3.09546 7.87736 3.1041 7.10163 3.1394C6.32741 3.17485 5.79894 3.29743 5.33653 3.47728C4.85821 3.66303 4.45246 3.91152 4.04823 4.31591C3.6437 4.72016 3.39522 5.12591 3.20886 5.6041C3.02857 6.06667 2.90584 6.59531 2.871 7.36925C2.8363 8.145 2.82721 8.39303 2.82721 10.3682C2.82721 12.3433 2.836 12.5905 2.87115 13.3662C2.90675 14.1405 3.02932 14.6689 3.20902 15.1314C3.39492 15.6097 3.6434 16.0155 4.04778 16.4197C4.45186 16.8242 4.8576 17.0733 5.33562 17.2591C5.79833 17.4389 6.32695 17.5615 7.10102 17.597C7.87675 17.6323 8.12447 17.6409 10.0994 17.6409C12.0747 17.6409 12.3218 17.6323 13.0975 17.597C13.8717 17.5615 14.4008 17.4389 14.8635 17.2591C15.3417 17.0733 15.7468 16.8242 16.1509 16.4197C16.5554 16.0155 16.8039 15.6097 16.9903 15.1315C17.169 14.6689 17.2918 14.1403 17.3281 13.3664C17.363 12.5906 17.3721 12.3433 17.3721 10.3682C17.3721 8.39303 17.363 8.14516 17.3281 7.3694C17.2918 6.59516 17.169 6.06667 16.9903 5.60425C16.8039 5.12591 16.5554 4.72016 16.1509 4.31591C15.7464 3.91137 15.3418 3.66288 14.8631 3.47728C14.3994 3.29743 13.8707 3.17485 13.0964 3.1394C12.3207 3.1041 12.0737 3.09546 10.0981 3.09546H10.1003ZM9.44792 4.40606C9.64155 4.40576 9.8576 4.40606 10.1003 4.40606C12.0421 4.40606 12.2722 4.41303 13.039 4.44788C13.7481 4.48031 14.1329 4.59879 14.3893 4.69834C14.7287 4.83016 14.9706 4.98773 15.225 5.24228C15.4796 5.49682 15.6371 5.73925 15.7692 6.07864C15.8688 6.3347 15.9874 6.71955 16.0197 7.42864C16.0545 8.19531 16.0621 8.42561 16.0621 10.3665C16.0621 12.3074 16.0545 12.5377 16.0197 13.3044C15.9873 14.0135 15.8688 14.3983 15.7692 14.6544C15.6374 14.9938 15.4796 15.2355 15.225 15.4899C14.9705 15.7444 14.7288 15.902 14.3893 16.0338C14.1332 16.1338 13.7481 16.252 13.039 16.2844C12.2724 16.3192 12.0421 16.3268 10.1003 16.3268C8.15841 16.3268 7.92827 16.3192 7.16162 16.2844C6.45255 16.2517 6.06772 16.1332 5.81121 16.0336C5.47183 15.9018 5.22941 15.7442 4.97487 15.4897C4.72033 15.2352 4.56276 14.9933 4.43065 14.6538C4.3311 14.3977 4.21247 14.0129 4.1802 13.3038C4.14535 12.5371 4.13838 12.3068 4.13838 10.3647C4.13838 8.42258 4.14535 8.19349 4.1802 7.42682C4.21262 6.71773 4.3311 6.33288 4.43065 6.07652C4.56246 5.73713 4.72033 5.4947 4.97487 5.24016C5.22941 4.98561 5.47183 4.82803 5.81121 4.69591C6.06757 4.59591 6.45255 4.47773 7.16162 4.44516C7.83251 4.41485 8.09251 4.40576 9.44792 4.40425V4.40606ZM13.9823 5.61364C13.5005 5.61364 13.1096 6.0041 13.1096 6.48606C13.1096 6.96788 13.5005 7.35879 13.9823 7.35879C14.4641 7.35879 14.855 6.96788 14.855 6.48606C14.855 6.00425 14.4641 5.61334 13.9823 5.61334V5.61364ZM10.1003 6.63334C8.03781 6.63334 6.36559 8.30561 6.36559 10.3682C6.36559 12.4308 8.03781 14.1023 10.1003 14.1023C12.1628 14.1023 13.8345 12.4308 13.8345 10.3682C13.8345 8.30561 12.1628 6.63334 10.1003 6.63334ZM10.1003 7.94394C11.4391 7.94394 12.5245 9.02925 12.5245 10.3682C12.5245 11.707 11.4391 12.7924 10.1003 12.7924C8.76142 12.7924 7.67615 11.707 7.67615 10.3682C7.67615 9.02925 8.76142 7.94394 10.1003 7.94394Z" fill="white"/>
</g>
<defs>
<radialGradient id="paint0_radial_701_14331" cx="0" cy="0" r="1" gradientUnits="userSpaceOnUse" gradientTransform="translate(5.48448 21.732) rotate(-90) scale(19.5195 18.1591)">
<stop stop-color="#FFDD55"/>
<stop offset="0.1" stop-color="#FFDD55"/>
<stop offset="0.5" stop-color="#FF543E"/>
<stop offset="1" stop-color="#C837AB"/>
</radialGradient>
<radialGradient id="paint1_radial_701_14331" cx="0" cy="0" r="1" gradientUnits="userSpaceOnUse" gradientTransform="translate(-3.04825 1.93859) rotate(78.678) scale(8.72538 35.9744)">
<stop stop-color="#3771C8"/>
<stop offset="0.128" stop-color="#3771C8"/>
<stop offset="1" stop-color="#6600FF" stop-opacity="0"/>
</radialGradient>
<clipPath id="clip0_701_14331">
<rect width="20" height="20" fill="white" transform="translate(0.100006 0.368164)"/>
</clipPath>
</defs>
</svg>
