<svg width="21" height="21" viewBox="0 0 21 21" fill="none" xmlns="http://www.w3.org/2000/svg">
<g clip-path="url(#clip0_701_14326)">
<path d="M18.8236 0.368164H1.77641C1.38484 0.368164 1.00932 0.523712 0.732443 0.800589C0.455566 1.07747 0.300018 1.45299 0.300018 1.84455V18.8918C0.300018 19.2833 0.455566 19.6589 0.732443 19.9357C1.00932 20.2126 1.38484 20.3682 1.77641 20.3682H18.8236C19.2152 20.3682 19.5907 20.2126 19.8676 19.9357C20.1445 19.6589 20.3 19.2833 20.3 18.8918V1.84455C20.3 1.45299 20.1445 1.07747 19.8676 0.800589C19.5907 0.523712 19.2152 0.368164 18.8236 0.368164ZM6.26113 17.4057H3.25419V7.85428H6.26113V17.4057ZM4.75557 6.53066C4.41449 6.52874 4.08161 6.42583 3.79896 6.2349C3.51631 6.04398 3.29655 5.77361 3.16742 5.4579C3.03828 5.1422 3.00556 4.79532 3.07338 4.46104C3.1412 4.12676 3.30652 3.82006 3.54848 3.57965C3.79044 3.33924 4.0982 3.17589 4.43291 3.11021C4.76762 3.04454 5.11428 3.07949 5.42914 3.21065C5.74401 3.34181 6.01297 3.5633 6.20207 3.84717C6.39118 4.13105 6.49195 4.46457 6.49168 4.80566C6.4949 5.03403 6.45211 5.2607 6.36586 5.47217C6.27961 5.68364 6.15167 5.87558 5.98966 6.03655C5.82765 6.19753 5.63489 6.32423 5.42287 6.40912C5.21085 6.49401 4.98391 6.53535 4.75557 6.53066ZM17.3445 17.414H14.3389V12.1959C14.3389 10.6571 13.6847 10.1821 12.8403 10.1821C11.9486 10.1821 11.0736 10.8543 11.0736 12.2348V17.414H8.06668V7.86122H10.9584V9.18483H10.9972C11.2875 8.59733 12.3042 7.59316 13.8556 7.59316C15.5334 7.59316 17.3459 8.589 17.3459 11.5057L17.3445 17.414Z" fill="#0A66C2"/>
</g>
<defs>
<clipPath id="clip0_701_14326">
<rect width="20" height="20" fill="white" transform="translate(0.300018 0.368164)"/>
</clipPath>
</defs>
</svg>
