<svg width="101" height="19" viewBox="0 0 101 19" fill="none" xmlns="http://www.w3.org/2000/svg">
<path fill-rule="evenodd" clip-rule="evenodd" d="M31.6482 12.079L31.6839 12.2073L31.7345 12.3305L31.7994 12.4434L31.8779 12.5473L31.9726 12.6442L32.0784 12.7295L32.323 12.8745L32.5987 12.9778L32.9056 13.04L33.2437 13.0606L33.4701 13.0535L33.6953 13.0304L33.9061 12.9926L34.1131 12.9387L34.372 12.8437L34.6185 12.7206L34.8489 12.5704L35.0059 12.4434L35.1415 12.3081L35.255 12.1669L35.3504 12.013L35.4237 11.8526L35.4763 11.6845L35.5081 11.5049L35.5185 11.3233V10.4541L35.5113 10.4041L35.4899 10.3688L35.4542 10.3476L35.4043 10.3405H33.8179L33.3378 10.3643L33.123 10.3931L32.9102 10.4355L32.7201 10.4874L32.5352 10.5535L32.3704 10.6286L32.2133 10.7184L32.0745 10.8178L31.9545 10.9275L31.8532 11.0462L31.7689 11.1771L31.7034 11.3182L31.6573 11.4664L31.6294 11.6261L31.6203 11.7961L31.6275 11.9392L31.6495 12.081M29.4039 11.9469L29.4201 11.5889L29.4688 11.2508L29.5499 10.9333L29.6641 10.6363L29.8101 10.3598L29.9892 10.1032L30.2007 9.86711L30.4446 9.65156L30.7184 9.4591L31.0189 9.29231L31.3459 9.15118L31.6995 9.03571L32.0797 8.94589L32.4858 8.88174L32.9186 8.84325L33.378 8.83042H35.4036L35.4536 8.82337L35.4893 8.8022L35.5107 8.76691L35.5178 8.71752V8.28321L35.5107 8.10423L35.4893 7.93551L35.4549 7.78027L35.4049 7.62951L35.3186 7.44989L35.2057 7.28566L35.0688 7.14004L34.9481 7.04381L34.8171 6.96234L34.6678 6.89113L34.5121 6.83532L34.3395 6.79105L34.1533 6.75962L33.9541 6.74038L33.7413 6.73396L33.4215 6.74871L33.1301 6.79298L32.8674 6.86675L32.6331 6.97004L32.4313 7.09962L32.2652 7.25166L32.1348 7.42615L32.0408 7.62245L32.0187 7.68404L31.9901 7.73664L31.9162 7.81555L31.8182 7.85917L31.7605 7.86751H31.6969L29.9768 7.65966L29.9048 7.64747L29.8425 7.62951L29.79 7.60513L29.7472 7.57498L29.7147 7.54034L29.6946 7.50185L29.6862 7.46015L29.6901 7.4146L29.7472 7.14004L29.8341 6.87381L29.9502 6.62234L30.0943 6.38498L30.2675 6.15981L30.4699 5.94811L30.7016 5.74924L30.9618 5.5632L31.2459 5.39384L31.5438 5.24886L31.8636 5.1244L32.1919 5.02497L32.5404 4.94671L32.9056 4.89089L33.2871 4.85754L33.6849 4.84663L34.2695 4.87293L34.5452 4.90501L34.819 4.9512L35.0786 5.00893L35.3342 5.08078L35.5775 5.16482L35.8156 5.26297L36.0369 5.3701L36.2516 5.49007L36.4476 5.61709L36.6344 5.75694L36.8044 5.90384L36.9634 6.0623L37.1074 6.22909L37.2385 6.40615L37.389 6.65249L37.5136 6.9123L37.6109 7.18366L37.6654 7.39472L37.7037 7.60898L37.7271 7.83351L37.7349 8.05932V12.5095L37.7491 12.6558L37.7913 12.7963L37.8594 12.9265L37.8834 12.963L38.2552 13.5314L38.2889 13.6148L38.2877 13.7046L38.2513 13.7874L38.1858 13.8503L36.6409 14.8375L36.5566 14.8709L36.4657 14.8696L36.3821 14.8337L36.3185 14.7689L35.8643 14.0748L35.7689 13.9709L35.645 13.9016L35.5055 13.8746L35.3647 13.8926L35.2369 13.9542L35.037 14.1107L34.8255 14.2518L34.5108 14.4218L34.1806 14.5585L33.8257 14.6656L33.4494 14.7426L33.0516 14.7888L32.6325 14.8042L32.2867 14.7926L31.9571 14.7593L31.643 14.7028L31.3446 14.6246L31.0649 14.5245L30.7957 14.4L30.5452 14.2544L30.3097 14.0857L30.0982 13.8964L29.9126 13.6828L29.7556 13.4461L29.6291 13.1921L29.5298 12.9143L29.4591 12.6147L29.4163 12.2933L29.402 11.9501" fill="#232323"/>
<path fill-rule="evenodd" clip-rule="evenodd" d="M67.6023 12.079L67.6379 12.2073L67.6886 12.3305L67.7534 12.4434L67.8319 12.5473L67.9267 12.6442L68.0324 12.7295L68.277 12.8745L68.5528 12.9778L68.8597 13.04L69.1977 13.0606L69.4242 13.0535L69.6493 13.0304L69.8602 12.9926L70.0671 12.9387L70.326 12.8437L70.5726 12.7206L70.8029 12.5704L70.9599 12.4434L71.0955 12.3081L71.2091 12.1669L71.3045 12.013L71.3778 11.8526L71.4303 11.6845L71.4621 11.5049L71.4725 11.3233V10.4541L71.4654 10.4041L71.444 10.3688L71.4083 10.3476L71.3583 10.3405H69.7719L69.2918 10.3643L69.077 10.3931L68.8642 10.4355L68.6741 10.4874L68.4892 10.5535L68.3244 10.6286L68.1674 10.7184L68.0285 10.8178L67.9085 10.9275L67.8073 11.0462L67.7229 11.1771L67.6574 11.3182L67.6113 11.4664L67.5834 11.6261L67.5744 11.7961L67.5815 11.9392L67.6036 12.081M65.358 11.9469L65.3742 11.5889L65.4229 11.2508L65.504 10.9333L65.6181 10.6363L65.7641 10.3598L65.9432 10.1032L66.1547 9.86711L66.3987 9.65156L66.6725 9.4591L66.9729 9.29231L67.2999 9.15118L67.6535 9.03571L68.0337 8.94589L68.4399 8.88174L68.8727 8.84325L69.332 8.83042H71.3577L71.4076 8.82337L71.4433 8.8022L71.4647 8.76691L71.4719 8.71752V8.28321L71.4647 8.10423L71.4433 7.93551L71.4089 7.78027L71.359 7.62951L71.2727 7.44989L71.1598 7.28566L71.0229 7.14004L70.9022 7.04381L70.7711 6.96234L70.6219 6.89113L70.4662 6.83532L70.2936 6.79105L70.1074 6.75962L69.9082 6.74038L69.6954 6.73396L69.3755 6.74871L69.0842 6.79298L68.8214 6.86675L68.5872 6.97004L68.3854 7.09962L68.2193 7.25166L68.0889 7.42615L67.9948 7.62245L67.9727 7.68404L67.9442 7.73664L67.8702 7.81555L67.7722 7.85917L67.7145 7.86751H67.6509L65.9309 7.65966L65.8589 7.64747L65.7966 7.62951L65.744 7.60513L65.7012 7.57498L65.6688 7.54034L65.6486 7.50185L65.6402 7.46015L65.6441 7.4146L65.7012 7.14004L65.7881 6.87381L65.9043 6.62234L66.0483 6.38498L66.2216 6.15981L66.424 5.94811L66.6556 5.74924L66.9158 5.5632L67.2 5.39384L67.4978 5.24886L67.8177 5.1244L68.146 5.02497L68.4944 4.94671L68.8597 4.89089L69.2412 4.85754L69.6389 4.84663L70.2235 4.87293L70.4993 4.90501L70.7731 4.9512L71.0326 5.00893L71.2882 5.08078L71.5316 5.16482L71.7697 5.26297L71.9909 5.3701L72.2057 5.49007L72.4016 5.61709L72.5885 5.75694L72.7585 5.90384L72.9174 6.0623L73.0615 6.22909L73.1925 6.40615L73.3431 6.65249L73.4676 6.9123L73.565 7.18366L73.6195 7.39472L73.6578 7.60898L73.6811 7.83351L73.6883 8.05932V12.5095L73.7025 12.6558L73.7447 12.7963L73.8128 12.9265L73.8368 12.963L74.2086 13.5314L74.2424 13.6148L74.2411 13.7046L74.2047 13.7874L74.1392 13.8503L72.5943 14.8375L72.51 14.8709L72.4191 14.8696L72.3354 14.8337L72.2719 14.7689L71.8177 14.0748L71.7223 13.9709L71.5984 13.9016L71.4589 13.8746L71.3181 13.8926L71.1903 13.9542L70.9904 14.1107L70.7789 14.2518L70.4642 14.4218L70.134 14.5585L69.7791 14.6656L69.4027 14.7426L69.005 14.7888L68.5859 14.8042L68.2401 14.7926L67.9104 14.7593L67.5964 14.7028L67.298 14.6246L67.0183 14.5245L66.7491 14.4L66.4986 14.2544L66.2631 14.0857L66.0516 13.8964L65.866 13.6828L65.709 13.4461L65.5825 13.1921L65.4832 12.9143L65.4125 12.6147L65.3696 12.2933L65.3554 11.9501" fill="#232323"/>
<path fill-rule="evenodd" clip-rule="evenodd" d="M7.64292 12.079L7.67861 12.2073L7.72921 12.3305L7.7941 12.4434L7.87261 12.5473L7.96733 12.6442L8.07309 12.7295L8.3177 12.8745L8.59345 12.9778L8.90035 13.04L9.23839 13.0606L9.46483 13.0535L9.68997 13.0304L9.90084 12.9926L10.1078 12.9387L10.3667 12.8437L10.6132 12.7206L10.8442 12.5704L11.0012 12.4434L11.1369 12.3081L11.2504 12.1669L11.3458 12.013L11.4191 11.8526L11.4716 11.6845L11.5034 11.5049L11.5138 11.3233V10.4541L11.5067 10.4041L11.4853 10.3688L11.4496 10.3476L11.3996 10.3405H9.81324L9.33311 10.3643L9.11835 10.3931L8.90554 10.4355L8.71543 10.4874L8.53052 10.5535L8.36571 10.6286L8.2087 10.7184L8.06985 10.8178L7.94982 10.9275L7.8486 11.0462L7.76425 11.1771L7.69872 11.3182L7.65265 11.4664L7.62475 11.6261L7.61567 11.7961L7.62281 11.9392L7.64487 12.081M5.39928 11.9469L5.4155 11.5889L5.46416 11.2508L5.54527 10.9333L5.65946 10.6363L5.80545 10.3598L5.98452 10.1032L6.19604 9.86711L6.44 9.65156L6.7138 9.4591L7.01421 9.29231L7.34122 9.15118L7.69483 9.03571L8.07504 8.94589L8.48121 8.88174L8.91397 8.84325L9.37399 8.83042H11.3996L11.4496 8.82337L11.4853 8.8022L11.5067 8.76691L11.5138 8.71752V8.28321L11.5067 8.10423L11.4853 7.93551L11.4509 7.78027L11.4009 7.62951L11.3146 7.44989L11.2017 7.28566L11.0648 7.14004L10.9441 7.04381L10.8131 6.96234L10.6639 6.89113L10.5081 6.83532L10.3356 6.79105L10.1493 6.75962L9.95015 6.74038L9.73733 6.73396L9.41746 6.74871L9.12614 6.79298L8.86336 6.86675L8.62914 6.97004L8.42735 7.09962L8.26125 7.25166L8.13084 7.42615L8.03676 7.62245L8.0147 7.68404L7.98615 7.73664L7.91218 7.81555L7.81421 7.85917L7.75647 7.86751H7.69288L5.97284 7.65966L5.90082 7.64747L5.83854 7.62951L5.78598 7.60513L5.74316 7.57498L5.71072 7.54034L5.6906 7.50185L5.68217 7.46015L5.68606 7.4146L5.74316 7.14004L5.8301 6.87381L5.94624 6.62234L6.09028 6.38498L6.26352 6.15981L6.46595 5.94811L6.69758 5.74924L6.95776 5.5632L7.24195 5.39384L7.53976 5.24886L7.85963 5.1244L8.18794 5.02497L8.53636 4.94671L8.90164 4.89089L9.28315 4.85754L9.68089 4.84663L10.2655 4.87293L10.5412 4.90501L10.815 4.9512L11.0746 5.00893L11.3302 5.08078L11.5735 5.16482L11.8116 5.26297L12.0329 5.3701L12.2476 5.49007L12.4436 5.61709L12.6304 5.75694L12.8004 5.90384L12.9594 6.0623L13.1034 6.22909L13.2345 6.40615L13.385 6.65249L13.5096 6.9123L13.6069 7.18366L13.6614 7.39472L13.6997 7.60898L13.7231 7.83351L13.7302 8.05932V12.5095L13.7445 12.6558L13.7867 12.7963L13.8548 12.9265L13.8788 12.963L14.2506 13.5314L14.2843 13.6148L14.283 13.7046L14.2467 13.7874L14.1811 13.8503L12.6363 14.8375L12.5519 14.8709L12.4611 14.8696L12.3774 14.8337L12.3138 14.7689L11.8596 14.0748L11.7643 13.9709L11.6403 13.9016L11.5008 13.8746L11.36 13.8926L11.2322 13.9542L11.0324 14.1107L10.8209 14.2518L10.5062 14.4218L10.1759 14.5585L9.82103 14.6656L9.44471 14.7426L9.04698 14.7888L8.62784 14.8042L8.28202 14.7926L7.95241 14.7593L7.63838 14.7028L7.33992 14.6246L7.06028 14.5245L6.79101 14.4L6.54057 14.2544L6.30504 14.0857L6.09352 13.8964L5.90796 13.6828L5.75094 13.4461L5.62442 13.1921L5.52515 12.9143L5.45443 12.6147L5.41161 12.2933L5.39733 11.9501" fill="#232323"/>
<path fill-rule="evenodd" clip-rule="evenodd" d="M0.732929 10.1269L0.644039 10.1096L0.568127 10.0596L0.517518 9.98514L0.5 9.89661V0.230303L0.517518 0.142416L0.568127 0.0673588L0.644039 0.0173208L0.732929 0H10.5094L10.599 0.0173208L10.6742 0.0673588L10.7249 0.142416L10.7424 0.230303V1.9611L10.7249 2.04963L10.6742 2.12405L10.599 2.17409L10.5094 2.19141H2.94997L2.86043 2.20937L2.78517 2.25941L2.73456 2.33382L2.71639 2.42235V9.89661L2.69887 9.98514L2.64826 10.0596L2.573 10.1096L2.48346 10.1269H0.732929Z" fill="#FF9E18"/>
<path d="M16.744 14.4353V1.28816C16.744 1.07838 16.8504 0.973174 17.0626 0.973174H18.6548C18.8404 0.973174 18.9734 1.04566 19.0525 1.19001L24.6266 10.2039C24.6532 10.2565 24.6831 10.2764 24.7161 10.2629C24.7492 10.2501 24.7661 10.2174 24.7661 10.1648V1.28816C24.7661 1.07838 24.8725 0.973174 25.0847 0.973174H26.7567C26.9689 0.973174 27.0753 1.07838 27.0753 1.28816V14.4353C27.0753 14.6451 26.9689 14.7503 26.7567 14.7503H25.1243C24.938 14.7503 24.8057 14.6784 24.7265 14.5335L19.1525 5.46055C19.1259 5.40795 19.096 5.3887 19.0629 5.40153C19.0298 5.41501 19.013 5.44772 19.013 5.49969L19.0331 14.4353C19.0331 14.6451 18.9267 14.7503 18.7145 14.7503H17.0626C16.8504 14.7503 16.744 14.6457 16.744 14.4353Z" fill="#232323"/>
<path d="M42.383 14.4943L39.2382 5.04678C39.2245 5.00764 39.2181 4.96146 39.2181 4.90885C39.2181 4.76451 39.3108 4.69266 39.4971 4.69266H41.3683C41.5538 4.69266 41.6739 4.77798 41.7264 4.94863L43.6177 11.4831C43.6443 11.5357 43.6742 11.562 43.7073 11.562C43.7404 11.562 43.7637 11.5357 43.7767 11.4831L45.668 4.96851C45.7206 4.78504 45.8406 4.6933 46.0262 4.6933L47.8974 4.71255C48.0038 4.71255 48.083 4.74527 48.1362 4.8107C48.1887 4.87678 48.1959 4.96146 48.1556 5.06666L45.0302 14.4943C44.977 14.665 44.8577 14.7503 44.6721 14.7503H42.7412C42.555 14.7503 42.4356 14.665 42.383 14.4943Z" fill="#232323"/>
<path d="M50.1858 3.02986C49.9068 2.76107 49.768 2.41657 49.768 1.99638C49.768 1.57619 49.9075 1.23555 50.1858 0.973171C50.4648 0.710793 50.823 0.579924 51.2609 0.579924C51.6989 0.579924 52.0538 0.711434 52.3257 0.973171C52.5975 1.23555 52.7338 1.57683 52.7338 1.99638C52.7338 2.41593 52.5975 2.76107 52.3257 3.02986C52.0538 3.29865 51.6989 3.43337 51.2609 3.43337C50.823 3.43337 50.4648 3.29865 50.1858 3.02986ZM50.106 14.4353V5.00764C50.106 4.79787 50.2118 4.69266 50.4246 4.69266H52.0966C52.3088 4.69266 52.4152 4.79787 52.4152 5.00764V14.4353C52.4152 14.6451 52.3088 14.7503 52.0966 14.7503H50.4246C50.2118 14.7503 50.106 14.6457 50.106 14.4353Z" fill="#232323"/>
<path d="M61.5721 4.6933H63.2441C63.4563 4.6933 63.5627 4.79851 63.5627 5.00828V14.0818C63.5627 15.7215 63.0851 16.8962 62.1294 17.605C61.1737 18.3139 59.9267 18.668 58.387 18.668C58.0152 18.668 57.6369 18.6481 57.2522 18.609C57.066 18.5955 56.9732 18.4775 56.9732 18.2549L57.0329 16.798C57.0329 16.7063 57.066 16.6338 57.1322 16.5818C57.1983 16.5292 57.2846 16.5093 57.391 16.5228C57.842 16.5491 58.1541 16.5619 58.3266 16.5619C59.3349 16.5619 60.0752 16.3682 60.5463 15.9814C61.0173 15.5939 61.2529 14.9415 61.2529 14.0228V13.9048C61.2529 13.8522 61.2392 13.8195 61.2133 13.8066C61.1867 13.7938 61.1536 13.8066 61.114 13.8458C60.5696 14.4103 59.8066 14.6919 58.8249 14.6919C57.962 14.6919 57.173 14.4751 56.4561 14.0421C55.7391 13.609 55.2415 12.947 54.9631 12.054C54.7905 11.4375 54.7043 10.644 54.7043 9.67272C54.7043 8.58407 54.81 7.75075 55.0228 7.17339C55.2882 6.37342 55.7456 5.73383 56.3964 5.25462C57.0465 4.77606 57.8095 4.53613 58.6855 4.53613C59.7074 4.53613 60.5171 4.83123 61.114 5.42206C61.1536 5.46119 61.1867 5.47466 61.2133 5.46119C61.2399 5.44836 61.2529 5.41564 61.2529 5.36304V5.00892C61.2529 4.79915 61.3593 4.69394 61.5714 4.69394L61.5721 4.6933ZM61.2237 10.7652C61.2431 10.5356 61.2535 10.1648 61.2535 9.65348C61.2535 9.14219 61.2438 8.79706 61.2237 8.58087C61.2035 8.36403 61.1607 8.15105 61.0939 7.94128C60.9875 7.50826 60.7721 7.16056 60.447 6.89818C60.122 6.6358 59.7074 6.50493 59.2032 6.50493C58.7257 6.50493 58.3208 6.63644 57.9886 6.89818C57.6571 7.16056 57.4176 7.50826 57.2717 7.94128C57.1127 8.30887 57.0329 8.88623 57.0329 9.67336C57.0329 10.4605 57.0991 11.0577 57.2321 11.3856C57.3644 11.8057 57.6071 12.1502 57.9588 12.419C58.3104 12.6878 58.7315 12.8225 59.2227 12.8225C59.7404 12.8225 60.1583 12.6917 60.4769 12.4293C60.7954 12.1669 61.0076 11.8256 61.114 11.4054C61.1666 11.2085 61.2035 10.9949 61.2237 10.7652Z" fill="#232323"/>
<path d="M81.2588 6.54279H79.3279C79.2481 6.54279 79.2085 6.58192 79.2085 6.66083V11.306C79.2085 11.8179 79.3175 12.1849 79.5368 12.4081C79.7554 12.6314 80.1038 12.743 80.582 12.743H81.0998C81.312 12.743 81.4184 12.8482 81.4184 13.058V14.3769C81.4184 14.5867 81.312 14.699 81.0998 14.7118L80.1441 14.7317C79.0956 14.7317 78.3124 14.5514 77.7953 14.1903C77.2776 13.8297 77.0122 13.1568 76.9992 12.1733V6.66211C76.9992 6.5832 76.959 6.54407 76.8798 6.54407H75.845C75.6328 6.54407 75.5264 6.4395 75.5264 6.22909V5.00893C75.5264 4.79916 75.6328 4.69395 75.845 4.69395H76.8798C76.9596 4.69395 76.9992 4.65418 76.9992 4.57591V2.37167C76.9992 2.1619 77.105 2.05669 77.3178 2.05669H78.8905C79.1027 2.05669 79.2091 2.1619 79.2091 2.37167V4.57591C79.2091 4.65482 79.2487 4.69395 79.3285 4.69395H81.2594C81.4716 4.69395 81.578 4.79916 81.578 5.00893V6.22909C81.578 6.43886 81.4716 6.54407 81.2594 6.54407L81.2588 6.54279Z" fill="#232323"/>
<path d="M85.0609 14.1203C84.3044 13.5956 83.7801 12.8675 83.4881 11.9353C83.2623 11.2925 83.1494 10.5445 83.1494 9.69197C83.1494 8.8394 83.2552 8.10422 83.468 7.4486C83.773 6.52995 84.3037 5.81531 85.0602 5.30338C85.8168 4.79145 86.7258 4.53613 87.7873 4.53613C88.8487 4.53613 89.6682 4.79209 90.4053 5.30338C91.1417 5.81531 91.6621 6.52354 91.9676 7.42935C92.2064 8.05932 92.3258 8.80732 92.3258 9.67272C92.3258 10.5381 92.2129 11.247 91.9871 11.9167C91.6815 12.8482 91.1579 13.5795 90.4144 14.1113C89.6708 14.6425 88.7884 14.9087 87.7665 14.9087C86.7446 14.9087 85.8155 14.6464 85.0589 14.1216L85.0609 14.1203ZM89.0324 12.5262C89.384 12.2503 89.6325 11.8635 89.7792 11.365C89.9251 10.9455 89.9978 10.3944 89.9978 9.71185C89.9978 9.06906 89.931 8.518 89.7986 8.05868C89.652 7.56022 89.397 7.17595 89.0324 6.90716C88.6671 6.63837 88.233 6.50365 87.7289 6.50365C87.2247 6.50365 86.7932 6.63837 86.4351 6.90716C86.0769 7.17595 85.8246 7.56022 85.6786 8.05868C85.5456 8.518 85.4794 9.06906 85.4794 9.71185C85.4794 10.3546 85.5456 10.9057 85.6786 11.365C85.8246 11.8635 86.0802 12.251 86.4448 12.5262C86.8095 12.8014 87.2513 12.9393 87.7684 12.9393C88.259 12.9393 88.6807 12.8014 89.0324 12.5262Z" fill="#232323"/>
<path d="M100.309 4.79145C100.468 4.87036 100.528 5.00123 100.488 5.18534L100.169 6.81863C100.156 6.92384 100.119 6.98928 100.06 7.01558C100 7.04188 99.9106 7.04188 99.7912 7.01558C99.6322 6.96297 99.4194 6.93667 99.154 6.93667C98.9951 6.93667 98.8686 6.94373 98.7758 6.95656C98.2184 6.98286 97.7539 7.17596 97.3821 7.53713C97.0103 7.8983 96.8248 8.36724 96.8248 8.9446V14.436C96.8248 14.6457 96.7183 14.7509 96.5062 14.7509H94.8342C94.622 14.7509 94.5156 14.6464 94.5156 14.436V5.00764C94.5156 4.79787 94.6213 4.69266 94.8342 4.69266H96.5062C96.7183 4.69266 96.8248 4.79787 96.8248 5.00764V5.77489C96.8248 5.8275 96.8377 5.86021 96.8643 5.87304C96.8909 5.88587 96.9175 5.86663 96.9441 5.81402C97.5015 4.98711 98.271 4.57398 99.2533 4.57398C99.6381 4.57398 99.9897 4.64647 100.308 4.79017L100.309 4.79145Z" fill="#232323"/>
</svg>
