<svg width="58" height="10" viewBox="0 0 58 10" fill="none" xmlns="http://www.w3.org/2000/svg">
<path d="M17.9862 9.30563V6.26782H14.6527V9.30454H13.323V1.98845H14.6527V5.02517H17.9862V1.99172H19.3061V9.30782L17.9862 9.30563ZM24.86 8.9169C24.4353 9.21282 23.8255 9.38862 23.0087 9.38862C21.9839 9.38862 21.1345 9.08287 20.6543 8.36109C20.3678 7.96253 20.2012 7.41655 20.2012 6.7319C20.2012 6.08328 20.3678 5.54713 20.6815 5.13874C21.153 4.48356 21.9556 4.09264 22.9989 4.09264C24.0977 4.09264 24.8502 4.49121 25.2804 5.1027C25.6583 5.63885 25.7966 6.41305 25.7323 7.19488H21.4198C21.4325 7.48993 21.5585 7.76849 21.7716 7.97236C22.0112 8.22241 22.4642 8.39822 23.0087 8.39822C23.374 8.40848 23.7358 8.32582 24.0607 8.15799C24.3286 8.00948 24.4582 7.80529 24.4767 7.67644H25.6953C25.5858 8.18201 25.2867 8.62611 24.86 8.9169ZM24.2132 5.5373C23.9638 5.3058 23.5946 5.11144 23.0033 5.11144C22.45 5.11144 22.0438 5.27851 21.7759 5.51874C21.5627 5.7131 21.4305 5.98107 21.4057 6.26891H24.4996C24.5082 5.99592 24.4046 5.73145 24.2132 5.5373ZM26.6874 9.30563C26.6602 9.28707 26.6504 9.22264 26.6504 8.92563V2.49184C26.6504 2.24178 26.6417 2.01902 26.6319 1.93603H27.8701C27.8987 2.09153 27.9111 2.24964 27.9071 2.40776V8.83391C27.9071 9.10144 27.9071 9.25977 27.9343 9.30563H26.6874ZM28.97 3.62092V2.38046H30.2768V3.62092H28.97ZM30.2997 9.30563H29.0625C29.0157 9.28707 28.9972 9.17569 28.9972 8.80552V4.21385H30.2528V8.77931C30.2528 9.14839 30.2626 9.27833 30.2997 9.30563ZM35.0674 9.30563L35.0401 8.58385C34.6797 9.17569 33.913 9.38862 33.1747 9.38862C32.0116 9.38862 31.282 8.93546 31.282 7.76925C31.282 4.67684 31.2722 4.24115 31.2351 4.21385H32.4962C32.5147 4.21385 32.5245 4.39839 32.5245 7.42638C32.5245 8.1296 33.0037 8.37965 33.6593 8.37965C34.4815 8.37965 34.9988 7.98109 34.9988 7.35213V4.21385H36.2359V8.48121C36.2307 8.75638 36.2398 9.03155 36.2631 9.30563H35.0674ZM44.0899 6.21322C44.0899 5.70437 43.896 5.25011 43.0466 5.25011C42.428 5.25011 41.9293 5.59299 41.9293 6.24052V9.30563H40.7477V6.13897C40.7477 5.59299 40.3687 5.25011 39.7316 5.25011C39.0205 5.25011 38.5773 5.74149 38.5773 6.26891V9.30563H37.3304V4.21385H38.55V5.02845C38.7679 4.45408 39.455 4.11121 40.2119 4.11121C40.9688 4.11121 41.5688 4.41695 41.791 5.03718C41.9935 4.41695 42.6404 4.11121 43.48 4.11121C44.7727 4.11121 45.2224 4.80569 45.2224 5.76879C45.2224 7.90793 45.2312 9.26305 45.2682 9.30563H44.1487C44.0899 9.30563 44.0899 8.01494 44.0899 6.21322ZM49.1908 9.30563V3.48224L47.3994 3.7323V2.68621C48.9142 2.46782 49.3389 2.23195 49.4685 1.9546H50.4933V9.30563H49.1908ZM57.2637 3.83385C57.3726 4.3427 57.3846 4.94437 57.3846 5.64868C57.3846 6.22305 57.3192 7.07477 57.2081 7.4908C56.8814 8.80115 55.9525 9.39845 54.4388 9.39845C52.8782 9.39845 52.019 8.85247 51.6683 7.48207C51.53 6.98195 51.493 6.22305 51.493 5.63885C51.493 4.94437 51.4843 4.47264 51.6226 3.84259C51.872 2.64908 52.7955 1.9 54.4475 1.9C56.0821 1.9 57.0056 2.73207 57.2637 3.83385ZM55.9253 4.12977C55.8055 3.46368 55.3067 3.05638 54.4475 3.05638C53.5708 3.05638 53.0536 3.46368 52.9425 4.12977C52.8967 4.45736 52.8597 5.25011 52.8597 5.64868C52.858 6.1726 52.898 6.69586 52.9795 7.21345C53.1178 7.92649 53.6264 8.26828 54.4475 8.26828C55.2686 8.26828 55.7543 7.88937 55.897 7.21345C55.9623 6.92626 56.0059 6.0931 56.0059 5.63885C56.0103 5.13459 55.9834 4.63065 55.9253 4.12977Z" fill="#323E48"/>
<path d="M0 1.99063V5.02845H2.30762V3.25512L0 1.99063ZM3.63731 3.25512V5.02845H5.94602V1.99063L3.63731 3.25512ZM7.27571 1.26339V5.02845H9.58333V0L7.27571 1.26339Z" fill="#3F97BA"/>
<path d="M1.24192e-09 6.26891H2.30762V9.30563H1.24192e-09V6.26891ZM3.63731 6.26891H5.94493V9.30563H3.63731V6.26891ZM7.27571 6.26891H9.58333V9.30563H7.27571V6.26891Z" fill="#323E48"/>
</svg>
