<svg width="58" height="10" viewBox="0 0 58 10" fill="none" xmlns="http://www.w3.org/2000/svg">
<path d="M4.21129 7.06071H1.72565L1.31435 8.24988H0L2.24424 2H3.70165L5.94588 8.24988H4.62259L4.21129 7.06071ZM3.87153 6.05929L2.96847 3.44847L2.06541 6.05929H3.87153Z" fill="#323E48"/>
<path d="M12.8469 3.22494C13.4549 3.22494 13.9436 3.41271 14.3132 3.78824C14.6887 4.1578 14.8765 4.67639 14.8765 5.344V8.24988H13.6247V5.51388C13.6247 5.12643 13.5264 4.83137 13.3297 4.62871C13.133 4.42008 12.8647 4.31576 12.525 4.31576C12.1852 4.31576 11.914 4.42008 11.7113 4.62871C11.5146 4.83137 11.4163 5.12643 11.4163 5.51388V8.24988H10.1645V5.51388C10.1645 5.12643 10.0662 4.83137 9.86945 4.62871C9.67275 4.42008 9.40451 4.31576 9.06475 4.31576C8.71902 4.31576 8.44482 4.42008 8.24216 4.62871C8.04545 4.83137 7.9471 5.12643 7.9471 5.51388V8.24988H6.69533V3.29647H7.9471V3.89553C8.10804 3.6869 8.31369 3.52298 8.56404 3.40376C8.82035 3.28455 9.10051 3.22494 9.40451 3.22494C9.79196 3.22494 10.1377 3.30839 10.4417 3.47529C10.7457 3.63624 10.9811 3.86871 11.148 4.17271C11.309 3.88659 11.5415 3.6571 11.8455 3.48424C12.1554 3.31137 12.4892 3.22494 12.8469 3.22494Z" fill="#323E48"/>
<path d="M15.6531 5.75529C15.6531 5.25459 15.7514 4.81051 15.9481 4.42306C16.1508 4.03561 16.422 3.73757 16.7618 3.52894C17.1075 3.32031 17.492 3.216 17.9152 3.216C18.2847 3.216 18.6066 3.29051 18.8808 3.43953C19.161 3.58855 19.3845 3.77631 19.5514 4.00282V3.29647H20.8121V8.24988H19.5514V7.52565C19.3905 7.75812 19.1669 7.95184 18.8808 8.10682C18.6007 8.25584 18.2758 8.33035 17.9062 8.33035C17.489 8.33035 17.1075 8.22306 16.7618 8.00847C16.422 7.79388 16.1508 7.49286 15.9481 7.10541C15.7514 6.712 15.6531 6.26196 15.6531 5.75529ZM19.5514 5.77318C19.5514 5.46918 19.4918 5.20988 19.3726 4.99529C19.2534 4.77475 19.0924 4.60784 18.8898 4.49459C18.6871 4.37537 18.4695 4.31576 18.2371 4.31576C18.0046 4.31576 17.79 4.37239 17.5933 4.48565C17.3966 4.5989 17.2357 4.7658 17.1105 4.98635C16.9913 5.20094 16.9317 5.45726 16.9317 5.75529C16.9317 6.05333 16.9913 6.31561 17.1105 6.54212C17.2357 6.76267 17.3966 6.93255 17.5933 7.05176C17.796 7.17098 18.0106 7.23059 18.2371 7.23059C18.4695 7.23059 18.6871 7.17396 18.8898 7.06071C19.0924 6.94149 19.2534 6.77459 19.3726 6.56C19.4918 6.33945 19.5514 6.07718 19.5514 5.77318Z" fill="#323E48"/>
<path d="M23.0898 7.22165H25.2982V8.24988H21.6681V7.23953L23.8319 4.32471H21.677V3.29647H25.2714V4.30682L23.0898 7.22165Z" fill="#323E48"/>
<path d="M28.3775 8.33035C27.9007 8.33035 27.4715 8.22604 27.09 8.01741C26.7085 7.80282 26.4075 7.5018 26.187 7.11435C25.9724 6.7269 25.8651 6.27984 25.8651 5.77318C25.8651 5.26651 25.9754 4.81945 26.1959 4.432C26.4224 4.04455 26.7294 3.74651 27.1168 3.53788C27.5043 3.32329 27.9364 3.216 28.4133 3.216C28.8902 3.216 29.3223 3.32329 29.7098 3.53788C30.0972 3.74651 30.4012 4.04455 30.6218 4.432C30.8483 4.81945 30.9615 5.26651 30.9615 5.77318C30.9615 6.27984 30.8453 6.7269 30.6128 7.11435C30.3863 7.5018 30.0764 7.80282 29.683 8.01741C29.2955 8.22604 28.8604 8.33035 28.3775 8.33035ZM28.3775 7.23953C28.6041 7.23953 28.8157 7.18588 29.0124 7.07859C29.215 6.96533 29.376 6.79843 29.4952 6.57788C29.6144 6.35733 29.674 6.0891 29.674 5.77318C29.674 5.30227 29.5488 4.94165 29.2985 4.69129C29.0541 4.43498 28.7531 4.30682 28.3954 4.30682C28.0378 4.30682 27.7368 4.43498 27.4924 4.69129C27.2539 4.94165 27.1347 5.30227 27.1347 5.77318C27.1347 6.24408 27.251 6.60769 27.4834 6.864C27.7219 7.11435 28.0199 7.23953 28.3775 7.23953Z" fill="#323E48"/>
<path d="M34.5353 3.22494C35.1254 3.22494 35.6023 3.41271 35.9659 3.78824C36.3295 4.1578 36.5113 4.67639 36.5113 5.344V8.24988H35.2595V5.51388C35.2595 5.12047 35.1612 4.81945 34.9645 4.61082C34.7678 4.39624 34.4995 4.28894 34.1598 4.28894C33.814 4.28894 33.5398 4.39624 33.3372 4.61082C33.1405 4.81945 33.0421 5.12047 33.0421 5.51388V8.24988H31.7904V3.29647H33.0421V3.91341C33.209 3.69882 33.4206 3.53192 33.6769 3.41271C33.9392 3.28753 34.2253 3.22494 34.5353 3.22494Z" fill="#323E48"/>
</svg>
