<svg width="58" height="10" viewBox="0 0 58 10" fill="none" xmlns="http://www.w3.org/2000/svg">
<path d="M7.5167 6.91384C6.85435 7.50219 5.95466 7.82098 5.00794 7.82098C3.06747 7.82098 1.65654 6.5052 1.65654 4.69919C1.65654 2.88492 3.06747 1.56914 5.00794 1.56914C5.94552 1.56914 6.83519 1.88755 7.50756 2.468L7.77233 2.69695L8.93678 1.69169L8.68116 1.46274C7.71571 0.604479 6.4093 0.139067 5.00794 0.139067C2.14906 0.139067 0 2.10034 0 4.70709C0 7.30595 2.15864 9.25932 5.00794 9.25932C6.41888 9.25932 7.7253 8.78564 8.69074 7.92737L8.94636 7.69843L7.79149 6.677L7.5167 6.91384Z" fill="#323E48"/>
<path d="M9.84758 0H11.5895V9.39845H9.84758V0ZM17.6861 6.40034C17.6861 7.83868 16.2852 7.95334 15.8684 7.95334C14.8272 7.95334 14.6378 7.11199 14.6378 6.60448V3.0075H12.8959V6.59696C12.8959 7.48793 13.2199 8.22327 13.7877 8.71349C14.2894 9.14694 15.041 9.38379 15.8554 9.38379C16.4328 9.38379 17.2506 9.22852 17.6861 8.88529V9.39845H19.428V3.0075H17.6861V6.40034ZM22.9118 0.751876H21.1699V3.0075H19.8635V4.51125H21.1699V9.39845H22.9118V4.51125H24.2182V3.0075H22.9118V0.751876ZM29.7039 7.48756C29.3246 7.78192 28.8238 7.94507 28.2742 7.94507C27.0627 7.94507 26.173 7.17703 26.173 6.12252C26.173 5.06802 27.0344 4.33231 28.2742 4.33231C28.8142 4.33231 29.3246 4.48757 29.7134 4.78193L29.9778 4.97817L31.1522 3.96464L30.8583 3.7357C30.1672 3.19698 29.2497 2.89472 28.2738 2.89472C26.0964 2.89472 24.5152 4.25111 24.5152 6.11463C24.5152 7.97026 26.1343 9.37514 28.2738 9.37514C29.268 9.37514 30.1951 9.07289 30.8775 8.52552L31.1614 8.29657L29.9686 7.2838L29.7039 7.48756ZM37.3695 3.56464C36.8678 3.13156 36.2799 2.89472 35.4656 2.89472C34.8882 2.89472 34.2341 3.04998 33.7986 3.39284V0H32.0567V9.39845H33.7986V5.87779C33.7986 4.43945 34.9822 4.32517 35.399 4.32517C36.4402 4.32517 36.4115 5.16689 36.4115 5.67366V9.39845H38.1533V5.68155C38.1533 4.79058 37.9378 4.05524 37.3695 3.56464Z" fill="#323E48"/>
<path d="M5.14164 2.79211C5.72753 2.79211 6.28941 2.99303 6.70369 3.35068C7.11797 3.70832 7.35071 4.19339 7.35071 4.69917C7.35071 5.20496 7.11797 5.69002 6.70369 6.04767C6.28941 6.40531 5.72753 6.60623 5.14164 6.60623C4.55576 6.60623 3.99387 6.40531 3.57959 6.04767C3.16531 5.69002 2.93257 5.20496 2.93257 4.69917C2.93257 4.19339 3.16531 3.70832 3.57959 3.35068C3.99387 2.99303 4.55576 2.79211 5.14164 2.79211Z" fill="#FF3D2E"/>
</svg>
