<svg width="19" height="18" viewBox="0 0 19 18" fill="none" xmlns="http://www.w3.org/2000/svg">
<path opacity="0.2" d="M16.6789 7.64719L14.4395 6.37172C14.3945 6.29016 14.3473 6.2107 14.2988 6.13195L14.2904 3.6007C13.5826 3.00341 12.7685 2.54514 11.8906 2.25L9.64063 3.50789C9.54641 3.50789 9.45149 3.50789 9.35938 3.50789L7.10938 2.25C6.23182 2.54611 5.4181 3.00533 4.71102 3.60352L4.69977 6.13477C4.65055 6.21352 4.60344 6.29367 4.55915 6.37453L2.3204 7.64719C2.14389 8.53995 2.14389 9.45864 2.3204 10.3514L4.55985 11.6269C4.60485 11.7084 4.65196 11.7879 4.70047 11.8666L4.70891 14.3979C5.41676 14.9958 6.2312 15.4545 7.10938 15.75L9.35938 14.4935C9.4536 14.4935 9.54852 14.4935 9.64063 14.4935L11.8906 15.75C12.7674 15.4537 13.5804 14.9944 14.2869 14.3965L14.2981 11.8652C14.3473 11.7865 14.3945 11.7063 14.4388 11.6255L16.6775 10.3528C16.8547 9.45968 16.8551 8.5405 16.6789 7.64719ZM9.5 11.8125C8.94375 11.8125 8.39998 11.6475 7.93746 11.3385C7.47495 11.0295 7.11446 10.5902 6.90159 10.0763C6.68872 9.56238 6.63303 8.99688 6.74155 8.45131C6.85007 7.90574 7.11793 7.4046 7.51127 7.01126C7.9046 6.61793 8.40574 6.35006 8.95131 6.24154C9.49688 6.13302 10.0624 6.18872 10.5763 6.40159C11.0902 6.61446 11.5295 6.97495 11.8385 7.43746C12.1476 7.89997 12.3125 8.44374 12.3125 9C12.3125 9.74592 12.0162 10.4613 11.4887 10.9887C10.9613 11.5162 10.2459 11.8125 9.5 11.8125Z" fill="#F2F4F5"/>
<path d="M9.50001 5.62499C8.8325 5.62499 8.17998 5.82293 7.62496 6.19378C7.06995 6.56463 6.63736 7.09173 6.38192 7.70843C6.12647 8.32513 6.05964 9.00373 6.18986 9.65842C6.32009 10.3131 6.64152 10.9145 7.11353 11.3865C7.58553 11.8585 8.1869 12.1799 8.84158 12.3101C9.49627 12.4404 10.1749 12.3735 10.7916 12.1181C11.4083 11.8626 11.9354 11.4301 12.3062 10.875C12.6771 10.32 12.875 9.6675 12.875 8.99999C12.8741 8.10517 12.5182 7.24726 11.8855 6.61453C11.2527 5.9818 10.3948 5.62592 9.50001 5.62499ZM9.50001 11.25C9.055 11.25 8.61999 11.118 8.24998 10.8708C7.87997 10.6236 7.59158 10.2722 7.42128 9.86102C7.25099 9.44989 7.20643 8.99749 7.29324 8.56103C7.38006 8.12458 7.59435 7.72366 7.90902 7.409C8.22369 7.09433 8.6246 6.88004 9.06106 6.79322C9.49752 6.7064 9.94991 6.75096 10.361 6.92126C10.7722 7.09155 11.1236 7.37994 11.3708 7.74995C11.6181 8.11996 11.75 8.55498 11.75 8.99999C11.75 9.59672 11.513 10.169 11.091 10.591C10.669 11.0129 10.0967 11.25 9.50001 11.25ZM17.2302 7.53819C17.2145 7.45898 17.182 7.38407 17.1348 7.31855C17.0876 7.25304 17.0268 7.19845 16.9567 7.1585L14.8592 5.96319L14.8508 3.59928C14.8505 3.51787 14.8326 3.43748 14.7983 3.36368C14.7639 3.28987 14.7139 3.2244 14.6518 3.17178C13.891 2.52821 13.0148 2.03502 12.0699 1.71842C11.9955 1.69324 11.9167 1.68392 11.8384 1.69106C11.7602 1.69821 11.6843 1.72166 11.6157 1.75991L9.50001 2.94256L7.3822 1.7578C7.31354 1.71933 7.23758 1.69571 7.15921 1.68844C7.08085 1.68117 7.00184 1.69043 6.92728 1.71561C5.98296 2.03424 5.10776 2.52934 4.34821 3.1746C4.28618 3.22713 4.23626 3.29249 4.20191 3.36617C4.16756 3.43985 4.14959 3.5201 4.14923 3.60139L4.13868 5.96741L2.04126 7.16272C1.97109 7.20267 1.91034 7.25726 1.86315 7.32277C1.81595 7.38829 1.78341 7.4632 1.76775 7.54241C1.57579 8.50701 1.57579 9.49999 1.76775 10.4646C1.78341 10.5438 1.81595 10.6187 1.86315 10.6842C1.91034 10.7497 1.97109 10.8043 2.04126 10.8443L4.13868 12.0396L4.14712 14.4042C4.14738 14.4856 4.1653 14.566 4.19965 14.6398C4.23401 14.7136 4.28398 14.7791 4.34611 14.8317C5.10694 15.4753 5.98309 15.9685 6.92798 16.2851C7.00239 16.3103 7.08125 16.3196 7.15948 16.3124C7.23771 16.3053 7.31358 16.2818 7.3822 16.2436L9.50001 15.0574L11.6178 16.2422C11.7016 16.2889 11.7961 16.3131 11.892 16.3125C11.9535 16.3125 12.0145 16.3025 12.0727 16.283C13.0168 15.9645 13.892 15.4699 14.6518 14.8254C14.7138 14.7728 14.7638 14.7075 14.7981 14.6338C14.8325 14.5601 14.8504 14.4799 14.8508 14.3986L14.8613 12.0326L16.9588 10.8373C17.0289 10.7973 17.0897 10.7427 17.1369 10.6772C17.1841 10.6117 17.2166 10.5368 17.2323 10.4576C17.4232 9.49373 17.4224 8.50175 17.2302 7.53819ZM16.1755 9.9928L14.1667 11.1354C14.0786 11.1854 14.0058 11.2583 13.9557 11.3463C13.9149 11.4166 13.872 11.4912 13.8284 11.5615C13.7726 11.6501 13.7429 11.7527 13.7427 11.8575L13.7321 14.1251C13.1922 14.5491 12.5906 14.8882 11.9483 15.1305L9.92189 14.0013C9.83776 13.9548 9.74311 13.9306 9.64696 13.931H9.63361C9.54853 13.931 9.46275 13.931 9.37767 13.931C9.27705 13.9286 9.17758 13.9528 9.08939 14.0013L7.06157 15.1333C6.41787 14.8928 5.81467 14.5554 5.27282 14.1328L5.26509 11.8687C5.26474 11.7638 5.23503 11.661 5.17931 11.572C5.13572 11.5017 5.09282 11.4314 5.05275 11.3569C5.00305 11.2675 4.93018 11.1932 4.84181 11.1417L2.83087 9.99632C2.72681 9.33806 2.72681 8.66754 2.83087 8.00928L4.83618 6.8646C4.9242 6.81455 4.99707 6.74167 5.04712 6.65366C5.0879 6.58335 5.13079 6.50881 5.17439 6.4385C5.23019 6.34983 5.25992 6.24725 5.26017 6.14249L5.27071 3.87491C5.81066 3.45089 6.41221 3.11182 7.05454 2.86944L9.07814 3.99866C9.1662 4.04748 9.26576 4.07176 9.36642 4.06897C9.4515 4.06897 9.53728 4.06897 9.62236 4.06897C9.72301 4.07176 9.82257 4.04748 9.91064 3.99866L11.9384 2.86663C12.5822 3.10715 13.1854 3.44455 13.7272 3.86717L13.7349 6.13124C13.7353 6.23621 13.765 6.33899 13.8207 6.42796C13.8643 6.49827 13.9072 6.56858 13.9473 6.64311C13.997 6.73249 14.0698 6.80681 14.1582 6.85827L16.1692 8.00366C16.2746 8.66242 16.2758 9.33367 16.1727 9.9928H16.1755Z" fill="#F2F4F5"/>
</svg>
