<svg width="19" height="18" viewBox="0 0 19 18" fill="none" xmlns="http://www.w3.org/2000/svg">
<path opacity="0.2" d="M7.25 16.875L8.375 11.25L3.875 9.5625L11.75 1.125L10.625 6.75L15.125 8.4375L7.25 16.875Z" fill="#F2F4F5"/>
<path d="M15.6727 8.30894C15.6514 8.21879 15.6082 8.13529 15.5469 8.06586C15.4855 7.99643 15.408 7.94323 15.3212 7.91097L11.2705 6.39152L12.3012 1.2355C12.3246 1.1157 12.3083 0.991566 12.2549 0.881818C12.2015 0.77207 12.1139 0.682668 12.0052 0.627104C11.8965 0.571539 11.7728 0.552826 11.6525 0.57379C11.5323 0.594753 11.4221 0.654254 11.3387 0.743315L3.46367 9.18082C3.39971 9.24821 3.35344 9.3304 3.329 9.42004C3.30455 9.50968 3.30269 9.60398 3.32359 9.69451C3.34448 9.78505 3.38747 9.869 3.44873 9.93886C3.50998 10.0087 3.58759 10.0623 3.67461 10.0949L7.72672 11.6143L6.69875 16.7647C6.67541 16.8845 6.69167 17.0087 6.74507 17.1184C6.79847 17.2282 6.88612 17.3176 6.99478 17.3731C7.10345 17.4287 7.22725 17.4474 7.34748 17.4264C7.46772 17.4055 7.57788 17.346 7.66133 17.2569L15.5363 8.81941C15.5991 8.752 15.6444 8.6702 15.6682 8.58119C15.692 8.49218 15.6935 8.39869 15.6727 8.30894ZM8.19008 15.047L8.92625 11.364C8.9526 11.2334 8.93172 11.0977 8.86734 10.981C8.80295 10.8643 8.69924 10.7743 8.57469 10.727L4.85938 9.33128L10.8092 2.95675L10.0738 6.63972C10.0474 6.77034 10.0683 6.90607 10.1327 7.02273C10.197 7.1394 10.3008 7.22941 10.4253 7.27675L14.1378 8.66894L8.19008 15.047Z" fill="#F2F4F5"/>
</svg>
