<svg width="19" height="18" viewBox="0 0 19 18" fill="none" xmlns="http://www.w3.org/2000/svg">
<path opacity="0.2" d="M15.523 14.1326L14.6328 15.0228C14.5273 15.1282 14.3843 15.1874 14.2352 15.1874C14.0861 15.1874 13.9431 15.1282 13.8376 15.0228L10.3438 11.5311C10.279 11.4661 10.1993 11.418 10.1116 11.3909C10.024 11.3639 9.93107 11.3586 9.84094 11.3757C9.75081 11.3927 9.66622 11.4316 9.59454 11.4888C9.52286 11.546 9.46627 11.6199 9.42969 11.704L8.06141 14.8519C8.01484 14.9545 7.93857 15.0406 7.84247 15.0993C7.74638 15.158 7.63488 15.1865 7.5224 15.1812C7.40993 15.1758 7.30166 15.1368 7.2116 15.0692C7.12154 15.0016 7.05384 14.9085 7.01727 14.802L3.34133 3.54639C3.31124 3.44866 3.30835 3.34457 3.33299 3.24532C3.35763 3.14608 3.40886 3.05542 3.48117 2.98311C3.55348 2.9108 3.64414 2.85957 3.74339 2.83493C3.84263 2.81029 3.94672 2.81317 4.04445 2.84327L15.3015 6.51639C15.408 6.55297 15.5011 6.62067 15.5686 6.71072C15.6362 6.80078 15.6753 6.90905 15.6806 7.02153C15.686 7.134 15.6575 7.2455 15.5988 7.3416C15.5401 7.4377 15.4539 7.51396 15.3514 7.56053L12.2035 8.92952C12.1194 8.96617 12.0456 9.02282 11.9885 9.09453C11.9313 9.16624 11.8925 9.25085 11.8755 9.34097C11.8586 9.43109 11.8639 9.524 11.891 9.6116C11.9181 9.69921 11.9663 9.77884 12.0313 9.84358L15.5237 13.336C15.576 13.3883 15.6176 13.4504 15.6459 13.5188C15.6742 13.5872 15.6887 13.6605 15.6886 13.7345C15.6886 13.8085 15.6739 13.8817 15.6455 13.9501C15.6171 14.0184 15.5754 14.0804 15.523 14.1326Z" fill="#F2F4F5"/>
<path d="M12.4278 9.44495L15.5757 8.07667C15.7831 7.98472 15.9578 7.83223 16.0769 7.63921C16.1961 7.44619 16.2541 7.22166 16.2434 6.99508C16.2327 6.76849 16.1537 6.55044 16.0169 6.36954C15.88 6.18863 15.6917 6.05332 15.4766 5.98136L4.22093 2.30612C4.02408 2.24303 3.81366 2.23539 3.61275 2.28405C3.41185 2.33271 3.22824 2.43578 3.08207 2.58195C2.9359 2.72811 2.83283 2.91173 2.78417 3.11263C2.73552 3.31354 2.74315 3.52396 2.80625 3.72081L6.48148 14.9764C6.55083 15.1936 6.6852 15.3842 6.8664 15.5226C7.04761 15.6609 7.26692 15.7402 7.49468 15.7499H7.54953C7.76804 15.7507 7.98197 15.6872 8.16464 15.5673C8.34732 15.4474 8.49066 15.2764 8.57679 15.0756L9.94507 11.9277L13.4375 15.4201C13.542 15.5246 13.666 15.6075 13.8025 15.664C13.939 15.7206 14.0853 15.7497 14.2331 15.7497C14.3808 15.7497 14.5272 15.7206 14.6637 15.664C14.8002 15.6075 14.9242 15.5246 15.0287 15.4201L15.9202 14.5285C16.0247 14.4241 16.1076 14.3 16.1642 14.1635C16.2207 14.027 16.2498 13.8807 16.2498 13.733C16.2498 13.5852 16.2207 13.4389 16.1642 13.3024C16.1076 13.1659 16.0247 13.0418 15.9202 12.9374L12.4278 9.44495ZM14.2327 14.6249L10.7403 11.1325C10.6106 11.0026 10.4512 10.9065 10.2758 10.8524C10.1005 10.7983 9.91457 10.7879 9.7343 10.8222C9.55403 10.8565 9.38487 10.9343 9.24157 11.0489C9.09828 11.1635 8.9852 11.3114 8.91218 11.4798L7.54671 14.6192L3.875 3.37487L15.1159 7.04589L11.9771 8.41065C11.8088 8.48367 11.6608 8.59675 11.5462 8.74005C11.4316 8.88334 11.3538 9.0525 11.3195 9.23277C11.2853 9.41304 11.2956 9.59896 11.3497 9.7743C11.4038 9.94965 11.4999 10.1091 11.6298 10.2388L15.125 13.7326L14.2327 14.6249Z" fill="#F2F4F5"/>
</svg>
