<svg width="109" height="54" viewBox="0 0 109 54" fill="none" xmlns="http://www.w3.org/2000/svg">
<rect width="109" height="53" transform="translate(0 0.908691)" fill="#F78D40"/>
<path d="M17.463 16.1807C17.5143 16.1854 17.582 16.19 17.666 16.1947C17.75 16.1947 17.8643 16.1947 18.009 16.1947C18.6017 16.1947 19.0427 16.0454 19.332 15.7467C19.626 15.4434 19.773 15.021 19.773 14.4797C19.773 13.929 19.6307 13.5067 19.346 13.2127C19.0613 12.9187 18.6203 12.7717 18.023 12.7717C17.7617 12.7717 17.575 12.7787 17.463 12.7927V16.1807ZM20.697 14.4797C20.697 14.8997 20.6317 15.266 20.501 15.5787C20.3703 15.8867 20.1837 16.1457 19.941 16.3557C19.703 16.561 19.4137 16.715 19.073 16.8177C18.737 16.9157 18.3637 16.9647 17.953 16.9647C17.757 16.9647 17.5353 16.9554 17.288 16.9367C17.0407 16.9227 16.805 16.89 16.581 16.8387V12.1277C16.805 12.0764 17.043 12.0437 17.295 12.0297C17.547 12.0157 17.771 12.0087 17.967 12.0087C18.373 12.0087 18.744 12.0577 19.08 12.1557C19.416 12.249 19.703 12.3984 19.941 12.6037C20.1837 12.8044 20.3703 13.061 20.501 13.3737C20.6317 13.6817 20.697 14.0504 20.697 14.4797ZM21.8001 16.9087V12.0577H24.9151V12.8067H22.6821V14.0037H24.6701V14.7387H22.6821V16.1597H25.0831V16.9087H21.8001ZM27.4277 16.9087C27.0777 16.1527 26.7393 15.3617 26.4127 14.5357C26.0907 13.7097 25.7897 12.8837 25.5097 12.0577H26.4827C26.5947 12.3844 26.709 12.718 26.8257 13.0587C26.9423 13.3994 27.059 13.7354 27.1757 14.0667C27.2923 14.3934 27.409 14.7107 27.5257 15.0187C27.6423 15.3267 27.7567 15.609 27.8687 15.8657C27.976 15.609 28.088 15.329 28.2047 15.0257C28.3213 14.7177 28.438 14.398 28.5547 14.0667C28.676 13.7354 28.795 13.3994 28.9117 13.0587C29.0283 12.718 29.1403 12.3844 29.2477 12.0577H30.1927C29.908 12.8837 29.6047 13.7097 29.2827 14.5357C28.9607 15.3617 28.6247 16.1527 28.2747 16.9087H27.4277ZM30.96 16.9087V12.0577H34.075V12.8067H31.842V14.0037H33.83V14.7387H31.842V16.1597H34.243V16.9087H30.96ZM38.2675 16.1457V16.9087H35.2015V12.0577H36.0835V16.1457H38.2675ZM39.5215 14.4797C39.5215 14.7457 39.5542 14.9884 39.6195 15.2077C39.6849 15.4224 39.7782 15.6067 39.8995 15.7607C40.0255 15.91 40.1772 16.0267 40.3545 16.1107C40.5319 16.1947 40.7325 16.2367 40.9565 16.2367C41.1759 16.2367 41.3742 16.1947 41.5515 16.1107C41.7289 16.0267 41.8782 15.91 41.9995 15.7607C42.1255 15.6067 42.2212 15.4224 42.2865 15.2077C42.3519 14.9884 42.3845 14.7457 42.3845 14.4797C42.3845 14.2137 42.3519 13.9734 42.2865 13.7587C42.2212 13.5394 42.1255 13.355 41.9995 13.2057C41.8782 13.0517 41.7289 12.9327 41.5515 12.8487C41.3742 12.7647 41.1759 12.7227 40.9565 12.7227C40.7325 12.7227 40.5319 12.7647 40.3545 12.8487C40.1772 12.9327 40.0255 13.0517 39.8995 13.2057C39.7782 13.3597 39.6849 13.544 39.6195 13.7587C39.5542 13.9734 39.5215 14.2137 39.5215 14.4797ZM43.3085 14.4797C43.3085 14.895 43.2455 15.2614 43.1195 15.5787C42.9982 15.896 42.8302 16.162 42.6155 16.3767C42.4055 16.5867 42.1582 16.7454 41.8735 16.8527C41.5889 16.96 41.2855 17.0137 40.9635 17.0137C40.6415 17.0137 40.3359 16.96 40.0465 16.8527C39.7619 16.7454 39.5122 16.5867 39.2975 16.3767C39.0875 16.162 38.9195 15.896 38.7935 15.5787C38.6675 15.2614 38.6045 14.895 38.6045 14.4797C38.6045 14.0644 38.6675 13.7004 38.7935 13.3877C38.9195 13.0704 39.0899 12.8044 39.3045 12.5897C39.5239 12.375 39.7759 12.214 40.0605 12.1067C40.3452 11.9994 40.6462 11.9457 40.9635 11.9457C41.2809 11.9457 41.5819 11.9994 41.8665 12.1067C42.1512 12.214 42.3985 12.375 42.6085 12.5897C42.8232 12.8044 42.9935 13.0704 43.1195 13.3877C43.2455 13.7004 43.3085 14.0644 43.3085 14.4797ZM45.7881 12.0087C46.4928 12.0087 47.0318 12.137 47.4051 12.3937C47.7831 12.6504 47.9721 13.0517 47.9721 13.5977C47.9721 13.8824 47.9208 14.1274 47.8181 14.3327C47.7201 14.5334 47.5755 14.699 47.3841 14.8297C47.1928 14.9557 46.9595 15.049 46.6841 15.1097C46.4088 15.1704 46.0938 15.2007 45.7391 15.2007H45.2981V16.9087H44.4161V12.1277C44.6215 12.081 44.8478 12.0507 45.0951 12.0367C45.3471 12.018 45.5781 12.0087 45.7881 12.0087ZM45.8511 12.7717C45.6271 12.7717 45.4428 12.7787 45.2981 12.7927V14.4447H45.7251C46.1498 14.4447 46.4765 14.3864 46.7051 14.2697C46.9338 14.1484 47.0481 13.922 47.0481 13.5907C47.0481 13.432 47.0178 13.299 46.9571 13.1917C46.8965 13.0844 46.8125 13.0004 46.7051 12.9397C46.5978 12.879 46.4695 12.837 46.3201 12.8137C46.1755 12.7857 46.0191 12.7717 45.8511 12.7717ZM48.9174 16.9087V12.0577H52.0324V12.8067H49.7994V14.0037H51.7874V14.7387H49.7994V16.1597H52.2004V16.9087H48.9174ZM54.041 16.1807C54.0923 16.1854 54.16 16.19 54.244 16.1947C54.328 16.1947 54.4423 16.1947 54.587 16.1947C55.1797 16.1947 55.6207 16.0454 55.91 15.7467C56.204 15.4434 56.351 15.021 56.351 14.4797C56.351 13.929 56.2087 13.5067 55.924 13.2127C55.6393 12.9187 55.1983 12.7717 54.601 12.7717C54.3397 12.7717 54.153 12.7787 54.041 12.7927V16.1807ZM57.275 14.4797C57.275 14.8997 57.2097 15.266 57.079 15.5787C56.9483 15.8867 56.7617 16.1457 56.519 16.3557C56.281 16.561 55.9917 16.715 55.651 16.8177C55.315 16.9157 54.9417 16.9647 54.531 16.9647C54.335 16.9647 54.1133 16.9554 53.866 16.9367C53.6187 16.9227 53.383 16.89 53.159 16.8387V12.1277C53.383 12.0764 53.621 12.0437 53.873 12.0297C54.125 12.0157 54.349 12.0087 54.545 12.0087C54.951 12.0087 55.322 12.0577 55.658 12.1557C55.994 12.249 56.281 12.3984 56.519 12.6037C56.7617 12.8044 56.9483 13.061 57.079 13.3737C57.2097 13.6817 57.275 14.0504 57.275 14.4797ZM61.6149 16.9647C61.3582 16.9647 61.0992 16.9554 60.8379 16.9367C60.5766 16.9227 60.3479 16.89 60.1519 16.8387V12.1277C60.2546 12.109 60.3642 12.0927 60.4809 12.0787C60.5976 12.06 60.7166 12.046 60.8379 12.0367C60.9592 12.0274 61.0782 12.0204 61.1949 12.0157C61.3162 12.011 61.4306 12.0087 61.5379 12.0087C61.8319 12.0087 62.1049 12.032 62.3569 12.0787C62.6089 12.1207 62.8259 12.193 63.0079 12.2957C63.1946 12.3984 63.3392 12.5337 63.4419 12.7017C63.5446 12.8697 63.5959 13.0774 63.5959 13.3247C63.5959 13.5534 63.5399 13.7494 63.4279 13.9127C63.3206 14.076 63.1689 14.2067 62.9729 14.3047C63.2669 14.4027 63.4839 14.5474 63.6239 14.7387C63.7639 14.93 63.8339 15.1727 63.8339 15.4667C63.8339 15.966 63.6519 16.3417 63.2879 16.5937C62.9239 16.841 62.3662 16.9647 61.6149 16.9647ZM61.0199 14.7247V16.2017C61.1179 16.211 61.2229 16.218 61.3349 16.2227C61.4469 16.2274 61.5496 16.2297 61.6429 16.2297C61.8249 16.2297 61.9929 16.218 62.1469 16.1947C62.3056 16.1714 62.4409 16.1317 62.5529 16.0757C62.6696 16.015 62.7606 15.9357 62.8259 15.8377C62.8959 15.7397 62.9309 15.6137 62.9309 15.4597C62.9309 15.1844 62.8306 14.993 62.6299 14.8857C62.4292 14.7784 62.1516 14.7247 61.7969 14.7247H61.0199ZM61.0199 14.0317H61.6429C61.9789 14.0317 62.2426 13.985 62.4339 13.8917C62.6252 13.7937 62.7209 13.621 62.7209 13.3737C62.7209 13.1404 62.6206 12.9747 62.4199 12.8767C62.2239 12.7787 61.9672 12.7297 61.6499 12.7297C61.5146 12.7297 61.3932 12.732 61.2859 12.7367C61.1832 12.7414 61.0946 12.7484 61.0199 12.7577V14.0317ZM66.3663 14.2067C66.5763 13.8567 66.7816 13.502 66.9823 13.1427C67.1829 12.7834 67.3649 12.4217 67.5283 12.0577H68.5083C68.2469 12.5524 67.9739 13.0447 67.6893 13.5347C67.4093 14.02 67.1083 14.51 66.7863 15.0047V16.9087H65.9043V15.0187C65.5823 14.5194 65.2789 14.0247 64.9943 13.5347C64.7096 13.0447 64.4366 12.5524 64.1753 12.0577H65.2113C65.3746 12.4217 65.5543 12.7834 65.7503 13.1427C65.9463 13.502 66.1516 13.8567 66.3663 14.2067Z" fill="#F0F0F0" fill-opacity="0.5"/>
<path d="M18.2506 28.8785C18.3331 29.4841 19.049 29.8878 19.9257 29.8878C20.8478 29.8878 21.446 29.4958 21.446 28.9647C21.446 28.4747 21.0541 28.2356 20.002 28.0279L18.7849 27.8006C17.0706 27.4889 16.1877 26.607 16.1877 25.2665C16.1877 23.5516 17.7349 22.4482 19.8865 22.4482C22.2134 22.4482 23.5873 23.5203 23.6121 25.1803H21.4275C21.3821 24.5374 20.757 24.1513 19.9071 24.1513C19.0572 24.1513 18.5332 24.5061 18.5332 25.045C18.5332 25.5232 18.9458 25.7858 19.9195 25.976L21.1242 26.1896C22.9623 26.5267 23.7874 27.3165 23.7874 28.7138C23.7874 30.4777 22.2588 31.5909 19.8679 31.5909C17.477 31.5909 16.0289 30.5972 16 28.8785H18.2506Z" fill="#F0F0F0"/>
<path d="M31.7585 31.442V27.8848H28.0452V31.442H25.6874V22.607H28.0514V26.072H31.7647V22.607H34.1225V31.442H31.7585Z" fill="#F0F0F0"/>
<path d="M35.8059 31.442L38.927 22.607H41.8151L44.9507 31.442H42.434L41.846 29.5017H38.8094L35.8059 31.442ZM39.2653 27.8848H41.386L40.3546 24.4806H40.303L39.2653 27.8848Z" fill="#F0F0F0"/>
<path d="M46.6319 31.442V22.607H50.6608C52.6577 22.607 54.0109 23.8378 54.0109 25.7427C54.0109 27.6477 52.5875 28.8589 50.5184 28.8589H48.9981L46.6319 31.442ZM48.9981 27.1695H50.0295C51.0342 27.1695 51.6262 26.6737 51.6262 25.7486C51.6262 24.8236 51.0342 24.3336 50.0419 24.3336H49.0105L48.9981 27.1695Z" fill="#F0F0F0"/>
<path d="M64.7813 27.0265C64.7813 29.8427 63.0093 31.5948 60.1914 31.5948C57.3734 31.5948 55.5973 29.8427 55.5973 27.0265C55.5973 24.2102 57.3755 22.4522 60.1914 22.4522C63.0072 22.4522 64.7813 24.2102 64.7813 27.0265ZM58.0067 27.0265C58.0067 28.7041 58.8649 29.7702 60.1914 29.7702C61.5178 29.7702 62.378 28.7041 62.378 27.0265C62.378 25.3488 61.5137 24.2827 60.1914 24.2827C58.869 24.2827 58.0067 25.3508 58.0067 27.0265Z" fill="#F0F0F0"/>
<path d="M69.1897 24.8785L70.3676 29.243H70.4192L72.2057 22.607H74.7967L71.8302 31.442H68.8535L65.8891 22.607" fill="#F0F0F0"/>
<path d="M74.8792 31.442L78.0045 22.607H80.8925L84.0178 31.442H81.5114L80.9235 29.5017H77.8828L74.8792 31.442ZM78.3407 27.8848H80.4614L79.4299 24.4806H79.3784L78.3407 27.8848Z" fill="#F0F0F0"/>
<path d="M88.0714 29.6291H91.9187V31.442H85.7053V22.607" fill="#F0F0F0"/>
<path d="M16.0664 43.2838L19.2515 34.2823H22.1994L25.3845 43.2838H22.8224L22.218 41.3064H19.1236L16.0664 43.2838ZM19.5898 39.6601H21.7518L20.6997 36.1912H20.6481L19.5898 39.6601Z" fill="#F0F0F0"/>
<path d="M38.8882 38.3744V39.4798C38.8882 41.9374 37.2854 43.4406 34.5871 43.4406C31.664 43.4406 29.9043 41.7257 29.9043 38.7683C29.9043 35.8482 31.664 34.1255 34.5273 34.1255C36.8253 34.1255 38.5458 35.417 38.7892 37.2612H36.4066C36.1693 36.4636 35.4597 35.9775 34.5335 35.9775C33.1678 35.9775 32.3612 36.9927 32.3612 38.7468C32.3612 40.5008 33.2545 41.6101 34.6304 41.6101C35.7217 41.6101 36.487 40.9986 36.5489 40.0932V39.956H34.8161" fill="#F0F0F0"/>
<path d="M51.0201 43.2838H44.5241V34.2823H51.0201V36.1304H46.9356V37.9217H50.7767V39.6052H46.9356V41.4396H51.0201V43.2838Z" fill="#F0F0F0"/>
<path d="M56.821 43.2838V34.2823H58.7436L62.7642 39.517H62.8158V34.2823H65.1015V43.2838H63.1974L59.1582 37.9923H59.1067V43.2838H56.821Z" fill="#F0F0F0"/>
<path d="M70.4237 38.7938C70.4237 35.8541 72.1999 34.1529 75.0137 34.1529C77.4046 34.1529 79.2178 35.615 79.29 37.7355H76.9775C76.86 36.6792 76.0678 35.9717 75.0137 35.9717C73.7037 35.9717 72.8724 37.0359 72.8724 38.7782C72.8724 40.5204 73.6975 41.618 75.0281 41.618C76.0822 41.618 76.8496 40.9575 77.0002 39.907H79.3107C79.1993 42.0413 77.4541 43.4465 75.0219 43.4465C72.1854 43.4406 70.4237 41.7297 70.4237 38.7938Z" fill="#F0F0F0"/>
<path d="M86.5143 43.2838V40.1912L83.2508 34.2823H85.8377L87.7211 38.0256H87.7686L89.6458 34.2823H92.1873L88.9238 40.1912V43.2838H86.5143Z" fill="#F0F0F0"/>
</svg>
