<svg width="21" height="21" viewBox="0 0 21 21" fill="none" xmlns="http://www.w3.org/2000/svg">
<path d="M10.7 0.368164C5.17728 0.368164 0.700012 4.84498 0.700012 10.3682C0.700012 15.8913 5.17728 20.3682 10.7 20.3682C16.2227 20.3682 20.7 15.8913 20.7 10.3682C20.7 4.84498 16.2227 0.368164 10.7 0.368164ZM15.5788 14.7838C15.4182 15.0682 15.1227 15.2282 14.8182 15.2282C14.6758 15.2282 14.5288 15.1926 14.394 15.1176C13.1455 14.4176 11.7849 13.9888 10.347 13.8432C8.90608 13.6988 7.48335 13.845 6.11668 14.2813C5.66062 14.427 5.16972 14.175 5.02426 13.7182C4.87729 13.2606 5.13032 12.7713 5.58789 12.625C7.18183 12.1157 8.84395 11.9426 10.5227 12.1132C12.1985 12.2838 13.7864 12.7838 15.244 13.6007C15.6636 13.8344 15.8136 14.3644 15.5788 14.7838ZM16.7758 11.7463C16.6212 12.0438 16.3182 12.2144 16.0046 12.2144C15.8682 12.2144 15.7318 12.1832 15.603 12.1157C14.0682 11.3163 12.4106 10.8213 10.6727 10.645C8.92122 10.4657 7.18638 10.622 5.51365 11.1044C5.05153 11.2356 4.56972 10.9713 4.4379 10.5094C4.30456 10.0482 4.57122 9.56635 5.03183 9.43316C6.9197 8.88877 8.87728 8.71438 10.8485 8.91438C12.8061 9.11377 14.6758 9.67135 16.4076 10.5738C16.8318 10.7957 16.9985 11.3206 16.7758 11.7463ZM17.2091 9.21938C17.0788 9.21938 16.947 9.18998 16.8212 9.12816C15 8.21998 13.0409 7.65438 10.997 7.44695C8.95001 7.23756 6.91365 7.39938 4.94244 7.92574C4.4788 8.04877 4.00304 7.77377 3.8788 7.30938C3.75455 6.84559 4.03032 6.36877 4.49547 6.24498C6.66972 5.66438 8.91819 5.48756 11.1743 5.71695C13.4273 5.94498 15.5879 6.56938 17.597 7.57135C18.0273 7.78559 18.2015 8.30817 17.9879 8.73756C17.8364 9.04317 17.5288 9.21938 17.2091 9.21938Z" fill="#1ED760"/>
</svg>
