<svg width="12" height="13" viewBox="0 0 12 13" fill="none" xmlns="http://www.w3.org/2000/svg">
<path opacity="0.2" d="M10.8724 4.29361L10.2045 9.91861C10.1932 10.0101 10.1488 10.0943 10.0797 10.1553C10.0106 10.2163 9.92165 10.25 9.82948 10.25H2.17198C2.0798 10.25 1.9908 10.2163 1.92174 10.1553C1.85267 10.0943 1.8083 10.0101 1.79698 9.91861L1.12901 4.29361C1.12283 4.24083 1.12794 4.18734 1.144 4.13669C1.16006 4.08603 1.1867 4.03937 1.22215 3.99979C1.25761 3.96021 1.30108 3.92861 1.34967 3.9071C1.39826 3.88559 1.45087 3.87466 1.50401 3.87502H10.4965C10.5497 3.87452 10.6024 3.88536 10.6511 3.90681C10.6998 3.92826 10.7434 3.95984 10.779 3.99943C10.8145 4.03903 10.8413 4.08574 10.8574 4.13646C10.8735 4.18718 10.8786 4.24075 10.8724 4.29361Z" fill="#FF9E18"/>
<path d="M11.0625 3.75313C10.9914 3.6733 10.9042 3.60946 10.8066 3.56583C10.709 3.52219 10.6032 3.49976 10.4963 3.5H8.25005C8.25005 2.90326 8.013 2.33097 7.59104 1.90901C7.16908 1.48705 6.59679 1.25 6.00005 1.25C5.40331 1.25 4.83102 1.48705 4.40906 1.90901C3.9871 2.33097 3.75005 2.90326 3.75005 3.5H1.5038C1.39752 3.50029 1.29249 3.52298 1.19556 3.56659C1.09864 3.61021 1.012 3.67377 0.9413 3.75313C0.871188 3.83219 0.818575 3.92517 0.786909 4.02599C0.755242 4.1268 0.745237 4.23317 0.75755 4.33812L1.42599 9.96313C1.44767 10.1464 1.53616 10.3152 1.67453 10.4374C1.8129 10.5595 1.99144 10.6263 2.17599 10.625H9.82833C10.0129 10.6263 10.1914 10.5595 10.3298 10.4374C10.4682 10.3152 10.5567 10.1464 10.5783 9.96313L11.2468 4.33812C11.259 4.23314 11.2489 4.12675 11.2172 4.02593C11.1854 3.92512 11.1327 3.83215 11.0625 3.75313ZM6.00005 2C6.39787 2 6.7794 2.15804 7.06071 2.43934C7.34201 2.72064 7.50005 3.10218 7.50005 3.5H4.50005C4.50005 3.10218 4.65808 2.72064 4.93939 2.43934C5.22069 2.15804 5.60222 2 6.00005 2ZM9.83255 9.875C9.83119 9.8755 9.82969 9.8755 9.82833 9.875H2.16802L1.5038 4.25H3.75005V5.375C3.75005 5.47446 3.78956 5.56984 3.85988 5.64016C3.93021 5.71049 4.02559 5.75 4.12505 5.75C4.22451 5.75 4.31989 5.71049 4.39021 5.64016C4.46054 5.56984 4.50005 5.47446 4.50005 5.375V4.25H7.50005V5.375C7.50005 5.47446 7.53956 5.56984 7.60988 5.64016C7.68021 5.71049 7.77559 5.75 7.87505 5.75C7.97451 5.75 8.06989 5.71049 8.14021 5.64016C8.21054 5.56984 8.25005 5.47446 8.25005 5.375V4.25H10.5L9.83255 9.875Z" fill="#FF9E18"/>
</svg>
