<svg width="12" height="13" viewBox="0 0 12 13" fill="none" xmlns="http://www.w3.org/2000/svg">
<path opacity="0.2" d="M9.75 2.375V10.25H7.125V2.375H9.75Z" fill="#FF9E18"/>
<path d="M10.5 9.875H10.125V2.375C10.125 2.27554 10.0855 2.18016 10.0152 2.10984C9.94484 2.03951 9.84946 2 9.75 2H7.125C7.02554 2 6.93016 2.03951 6.85983 2.10984C6.78951 2.18016 6.75 2.27554 6.75 2.375V4.25H4.5C4.40054 4.25 4.30516 4.28951 4.23484 4.35984C4.16451 4.43016 4.125 4.52554 4.125 4.625V6.5H2.25C2.15054 6.5 2.05516 6.53951 1.98484 6.60983C1.91451 6.68016 1.875 6.77554 1.875 6.875V9.875H1.5C1.40054 9.875 1.30516 9.91451 1.23483 9.98483C1.16451 10.0552 1.125 10.1505 1.125 10.25C1.125 10.3495 1.16451 10.4448 1.23483 10.5152C1.30516 10.5855 1.40054 10.625 1.5 10.625H10.5C10.5995 10.625 10.6948 10.5855 10.7652 10.5152C10.8355 10.4448 10.875 10.3495 10.875 10.25C10.875 10.1505 10.8355 10.0552 10.7652 9.98483C10.6948 9.91451 10.5995 9.875 10.5 9.875ZM7.5 2.75H9.375V9.875H7.5V2.75ZM4.875 5H6.75V9.875H4.875V5ZM2.625 7.25H4.125V9.875H2.625V7.25Z" fill="#FF9E18"/>
</svg>
