<svg width="21" height="21" viewBox="0 0 21 21" fill="none" xmlns="http://www.w3.org/2000/svg">
<g clip-path="url(#clip0_701_14320)">
<path d="M20.1017 5.52275C19.9886 5.09727 19.7658 4.70894 19.4555 4.39663C19.1452 4.08433 18.7583 3.859 18.3335 3.74321C16.7699 3.32275 10.5199 3.32275 10.5199 3.32275C10.5199 3.32275 4.2699 3.32275 2.70626 3.74321C2.28151 3.859 1.89461 4.08433 1.5843 4.39663C1.27399 4.70894 1.05115 5.09727 0.938079 5.52275C0.519898 7.09321 0.519897 10.3682 0.519897 10.3682C0.519897 10.3682 0.519898 13.6432 0.938079 15.2137C1.05115 15.6391 1.27399 16.0275 1.5843 16.3398C1.89461 16.6521 2.28151 16.8774 2.70626 16.9932C4.2699 17.4137 10.5199 17.4137 10.5199 17.4137C10.5199 17.4137 16.7699 17.4137 18.3335 16.9932C18.7583 16.8774 19.1452 16.6521 19.4555 16.3398C19.7658 16.0275 19.9886 15.6391 20.1017 15.2137C20.5199 13.6432 20.5199 10.3682 20.5199 10.3682C20.5199 10.3682 20.5199 7.09321 20.1017 5.52275Z" fill="#FF0302"/>
<path d="M8.47443 13.342V7.39429L13.7017 10.3682L8.47443 13.342Z" fill="#FEFEFE"/>
</g>
<defs>
<clipPath id="clip0_701_14320">
<rect width="20" height="20" fill="white" transform="translate(0.499969 0.368164)"/>
</clipPath>
</defs>
</svg>
